M48
; DRILL file {KiCad (5.1.6)-1} date 11/05/20 08:21:25
; FORMAT={-:-/ absolute / metric / decimal}
; #@! TF.CreationDate,2020-11-05T08:21:25+01:00
; #@! TF.GenerationSoftware,Kicad,Pcbnew,(5.1.6)-1
FMAT,2
METRIC
T1C0.305
T2C0.400
T3C0.800
T4C1.000
%
G90
G05
T1
X30.339Y20.868
X32.879Y20.487
X33.006Y23.154
X35.8Y23.154
X35.8Y20.487
X38.594Y23.154
X38.594Y20.487
X41.261Y23.154
X41.261Y20.487
X44.436Y24.043
X44.436Y19.344
X47.611Y19.725
X47.738Y24.424
X48.627Y21.63
X49.643Y26.202
X50.532Y23.535
X51.294Y28.107
X52.056Y25.059
X52.31Y29.25
T2
X4.848Y30.104
X4.975Y28.072
X5.22Y2.03
X6.626Y18.801
X9.388Y23.981
X9.718Y26.897
X9.928Y25.786
X11.452Y20.071
X13.15Y29.9
X14.5Y31.12
X15.767Y23.232
X15.915Y22.243
X16.052Y24.919
X16.151Y29.088
X16.576Y23.82
X17.052Y24.897
X17.108Y21.92
X17.421Y19.576
X17.683Y25.779
X18.31Y21.468
X21.485Y29.088
X22.628Y25.278
X23.644Y25.659
X25.295Y27.31
X25.828Y19.803
X26.153Y28.718
X26.805Y20.014
X26.819Y26.802
X27.073Y28.326
X27.327Y23.5
X29.06Y31.24
X29.994Y30.104
X32.026Y25.278
X36.979Y28.072
X40.154Y11.181
X40.266Y10.181
X40.356Y9.185
X41.551Y10.456
X42.821Y29.596
X42.857Y5.375
T3
X1.5Y31.1
X1.5Y29.1
X1.5Y27.1
X1.5Y25.1
X1.5Y23.1
X1.5Y21.1
X1.5Y19.1
X1.5Y17.1
X1.5Y15.1
X1.5Y13.1
X1.5Y11.1
X1.5Y9.1
X1.5Y7.1
X1.5Y5.1
X1.5Y3.1
X1.5Y1.1
X41.043Y17.404
X41.043Y2.164
X54.0Y31.1
X54.0Y29.1
X54.0Y27.1
X54.0Y25.1
X54.0Y23.1
X54.0Y21.1
X54.0Y19.1
X54.0Y17.1
X54.0Y15.1
X54.0Y13.1
X54.0Y11.1
X54.0Y9.1
X54.0Y7.1
X54.0Y5.1
X54.0Y3.1
X54.0Y1.1
T4
X8.861Y16.083
X8.861Y13.543
X8.861Y11.003
X8.861Y8.463
X8.861Y5.923
X8.861Y3.383
T0
M30
