G04 #@! TF.GenerationSoftware,KiCad,Pcbnew,(5.1.6)-1*
G04 #@! TF.CreationDate,2020-11-05T08:21:22+01:00*
G04 #@! TF.ProjectId,repl board,7265706c-2062-46f6-9172-642e6b696361,1.05*
G04 #@! TF.SameCoordinates,PX9bbc2a0PY6b31680*
G04 #@! TF.FileFunction,Copper,L2,Bot*
G04 #@! TF.FilePolarity,Positive*
%FSLAX46Y46*%
G04 Gerber Fmt 4.6, Leading zero omitted, Abs format (unit mm)*
G04 Created by KiCad (PCBNEW (5.1.6)-1) date 2020-11-05 08:21:22*
%MOMM*%
%LPD*%
G01*
G04 APERTURE LIST*
G04 #@! TA.AperFunction,ComponentPad*
%ADD10O,1.600000X1.600000*%
G04 #@! TD*
G04 #@! TA.AperFunction,ComponentPad*
%ADD11C,1.600000*%
G04 #@! TD*
G04 #@! TA.AperFunction,ComponentPad*
%ADD12O,1.700000X1.700000*%
G04 #@! TD*
G04 #@! TA.AperFunction,ComponentPad*
%ADD13R,1.700000X1.700000*%
G04 #@! TD*
G04 #@! TA.AperFunction,ComponentPad*
%ADD14O,1.350000X1.350000*%
G04 #@! TD*
G04 #@! TA.AperFunction,ComponentPad*
%ADD15R,1.350000X1.350000*%
G04 #@! TD*
G04 #@! TA.AperFunction,ViaPad*
%ADD16C,0.609600*%
G04 #@! TD*
G04 #@! TA.AperFunction,ViaPad*
%ADD17C,0.800000*%
G04 #@! TD*
G04 #@! TA.AperFunction,Conductor*
%ADD18C,0.450000*%
G04 #@! TD*
G04 #@! TA.AperFunction,Conductor*
%ADD19C,0.250000*%
G04 #@! TD*
G04 #@! TA.AperFunction,Conductor*
%ADD20C,0.254000*%
G04 #@! TD*
G04 APERTURE END LIST*
G04 #@! TA.AperFunction,SMDPad,CuDef*
G36*
G01*
X34535000Y24532500D02*
X34535000Y25007500D01*
G75*
G02*
X34772500Y25245000I237500J0D01*
G01*
X35347500Y25245000D01*
G75*
G02*
X35585000Y25007500I0J-237500D01*
G01*
X35585000Y24532500D01*
G75*
G02*
X35347500Y24295000I-237500J0D01*
G01*
X34772500Y24295000D01*
G75*
G02*
X34535000Y24532500I0J237500D01*
G01*
G37*
G04 #@! TD.AperFunction*
G04 #@! TA.AperFunction,SMDPad,CuDef*
G36*
G01*
X32785000Y24532500D02*
X32785000Y25007500D01*
G75*
G02*
X33022500Y25245000I237500J0D01*
G01*
X33597500Y25245000D01*
G75*
G02*
X33835000Y25007500I0J-237500D01*
G01*
X33835000Y24532500D01*
G75*
G02*
X33597500Y24295000I-237500J0D01*
G01*
X33022500Y24295000D01*
G75*
G02*
X32785000Y24532500I0J237500D01*
G01*
G37*
G04 #@! TD.AperFunction*
D10*
X41043000Y17404000D03*
D11*
X41043000Y2164000D03*
D12*
X8861200Y16083200D03*
X8861200Y13543200D03*
X8861200Y11003200D03*
X8861200Y8463200D03*
X8861200Y5923200D03*
D13*
X8861200Y3383200D03*
G04 #@! TA.AperFunction,SMDPad,CuDef*
G36*
G01*
X32249000Y30374500D02*
X32249000Y30849500D01*
G75*
G02*
X32486500Y31087000I237500J0D01*
G01*
X33061500Y31087000D01*
G75*
G02*
X33299000Y30849500I0J-237500D01*
G01*
X33299000Y30374500D01*
G75*
G02*
X33061500Y30137000I-237500J0D01*
G01*
X32486500Y30137000D01*
G75*
G02*
X32249000Y30374500I0J237500D01*
G01*
G37*
G04 #@! TD.AperFunction*
G04 #@! TA.AperFunction,SMDPad,CuDef*
G36*
G01*
X30499000Y30374500D02*
X30499000Y30849500D01*
G75*
G02*
X30736500Y31087000I237500J0D01*
G01*
X31311500Y31087000D01*
G75*
G02*
X31549000Y30849500I0J-237500D01*
G01*
X31549000Y30374500D01*
G75*
G02*
X31311500Y30137000I-237500J0D01*
G01*
X30736500Y30137000D01*
G75*
G02*
X30499000Y30374500I0J237500D01*
G01*
G37*
G04 #@! TD.AperFunction*
G04 #@! TA.AperFunction,SMDPad,CuDef*
G36*
G01*
X20819000Y19706500D02*
X20819000Y20181500D01*
G75*
G02*
X21056500Y20419000I237500J0D01*
G01*
X21631500Y20419000D01*
G75*
G02*
X21869000Y20181500I0J-237500D01*
G01*
X21869000Y19706500D01*
G75*
G02*
X21631500Y19469000I-237500J0D01*
G01*
X21056500Y19469000D01*
G75*
G02*
X20819000Y19706500I0J237500D01*
G01*
G37*
G04 #@! TD.AperFunction*
G04 #@! TA.AperFunction,SMDPad,CuDef*
G36*
G01*
X19069000Y19706500D02*
X19069000Y20181500D01*
G75*
G02*
X19306500Y20419000I237500J0D01*
G01*
X19881500Y20419000D01*
G75*
G02*
X20119000Y20181500I0J-237500D01*
G01*
X20119000Y19706500D01*
G75*
G02*
X19881500Y19469000I-237500J0D01*
G01*
X19306500Y19469000D01*
G75*
G02*
X19069000Y19706500I0J237500D01*
G01*
G37*
G04 #@! TD.AperFunction*
G04 #@! TA.AperFunction,SMDPad,CuDef*
G36*
G01*
X28247000Y25134500D02*
X28247000Y24659500D01*
G75*
G02*
X28009500Y24422000I-237500J0D01*
G01*
X27434500Y24422000D01*
G75*
G02*
X27197000Y24659500I0J237500D01*
G01*
X27197000Y25134500D01*
G75*
G02*
X27434500Y25372000I237500J0D01*
G01*
X28009500Y25372000D01*
G75*
G02*
X28247000Y25134500I0J-237500D01*
G01*
G37*
G04 #@! TD.AperFunction*
G04 #@! TA.AperFunction,SMDPad,CuDef*
G36*
G01*
X29997000Y25134500D02*
X29997000Y24659500D01*
G75*
G02*
X29759500Y24422000I-237500J0D01*
G01*
X29184500Y24422000D01*
G75*
G02*
X28947000Y24659500I0J237500D01*
G01*
X28947000Y25134500D01*
G75*
G02*
X29184500Y25372000I237500J0D01*
G01*
X29759500Y25372000D01*
G75*
G02*
X29997000Y25134500I0J-237500D01*
G01*
G37*
G04 #@! TD.AperFunction*
D14*
X1500000Y1100000D03*
X1500000Y3100000D03*
X1500000Y5100000D03*
X1500000Y7100000D03*
X1500000Y9100000D03*
X1500000Y11100000D03*
X1500000Y13100000D03*
X1500000Y15100000D03*
X1500000Y17100000D03*
X1500000Y19100000D03*
X1500000Y21100000D03*
X1500000Y23100000D03*
X1500000Y25100000D03*
X1500000Y27100000D03*
X1500000Y29100000D03*
D15*
X1500000Y31100000D03*
D14*
X54000000Y1100000D03*
X54000000Y3100000D03*
X54000000Y5100000D03*
X54000000Y7100000D03*
X54000000Y9100000D03*
X54000000Y11100000D03*
X54000000Y13100000D03*
X54000000Y15100000D03*
X54000000Y17100000D03*
X54000000Y19100000D03*
X54000000Y21100000D03*
X54000000Y23100000D03*
X54000000Y25100000D03*
X54000000Y27100000D03*
X54000000Y29100000D03*
D15*
X54000000Y31100000D03*
G04 #@! TA.AperFunction,SMDPad,CuDef*
G36*
G01*
X18722000Y29198500D02*
X18722000Y28723500D01*
G75*
G02*
X18484500Y28486000I-237500J0D01*
G01*
X17909500Y28486000D01*
G75*
G02*
X17672000Y28723500I0J237500D01*
G01*
X17672000Y29198500D01*
G75*
G02*
X17909500Y29436000I237500J0D01*
G01*
X18484500Y29436000D01*
G75*
G02*
X18722000Y29198500I0J-237500D01*
G01*
G37*
G04 #@! TD.AperFunction*
G04 #@! TA.AperFunction,SMDPad,CuDef*
G36*
G01*
X20472000Y29198500D02*
X20472000Y28723500D01*
G75*
G02*
X20234500Y28486000I-237500J0D01*
G01*
X19659500Y28486000D01*
G75*
G02*
X19422000Y28723500I0J237500D01*
G01*
X19422000Y29198500D01*
G75*
G02*
X19659500Y29436000I237500J0D01*
G01*
X20234500Y29436000D01*
G75*
G02*
X20472000Y29198500I0J-237500D01*
G01*
G37*
G04 #@! TD.AperFunction*
G04 #@! TA.AperFunction,SMDPad,CuDef*
G36*
G01*
X11308500Y30327000D02*
X10833500Y30327000D01*
G75*
G02*
X10596000Y30564500I0J237500D01*
G01*
X10596000Y31139500D01*
G75*
G02*
X10833500Y31377000I237500J0D01*
G01*
X11308500Y31377000D01*
G75*
G02*
X11546000Y31139500I0J-237500D01*
G01*
X11546000Y30564500D01*
G75*
G02*
X11308500Y30327000I-237500J0D01*
G01*
G37*
G04 #@! TD.AperFunction*
G04 #@! TA.AperFunction,SMDPad,CuDef*
G36*
G01*
X11308500Y28577000D02*
X10833500Y28577000D01*
G75*
G02*
X10596000Y28814500I0J237500D01*
G01*
X10596000Y29389500D01*
G75*
G02*
X10833500Y29627000I237500J0D01*
G01*
X11308500Y29627000D01*
G75*
G02*
X11546000Y29389500I0J-237500D01*
G01*
X11546000Y28814500D01*
G75*
G02*
X11308500Y28577000I-237500J0D01*
G01*
G37*
G04 #@! TD.AperFunction*
D16*
X51294000Y28107000D03*
X47738000Y24424000D03*
X49643000Y26202000D03*
X52056000Y25059000D03*
X50532000Y23535000D03*
X48627000Y21630000D03*
X47611000Y19725000D03*
X44436000Y19344000D03*
X44436000Y24043000D03*
X41261000Y23154000D03*
X41261000Y20487000D03*
X38594000Y23154000D03*
X38594000Y20487000D03*
X35800000Y20487000D03*
X35800000Y23154000D03*
X33006000Y23154000D03*
X30339000Y20868000D03*
X32879000Y20487000D03*
D17*
X5220000Y2030000D03*
X29060000Y31240000D03*
D16*
X52310000Y29250000D03*
D17*
X36979000Y28072000D03*
X14500000Y31120000D03*
X6626000Y18801000D03*
X23644000Y25659000D03*
X11452000Y20071000D03*
X16151000Y29088000D03*
X13150000Y29900000D03*
X42857004Y5375000D03*
X32026000Y25278000D03*
X42821020Y29596000D03*
X29994000Y30104000D03*
X17421000Y19576010D03*
X27327000Y23500000D03*
X40356204Y9185120D03*
X26152979Y28717899D03*
X40266429Y10181095D03*
X25295000Y27310000D03*
X41551000Y10455990D03*
X26819000Y26802000D03*
X40154000Y11181000D03*
X27073000Y28326000D03*
X18310000Y21468000D03*
X17108480Y21920207D03*
X15914842Y22242795D03*
X15767128Y23231837D03*
X9387979Y23980707D03*
X16575719Y23820229D03*
X16052244Y24918747D03*
X9928000Y25786000D03*
X17052014Y24896736D03*
X9718000Y26896979D03*
X17683037Y25779073D03*
X4975000Y28072000D03*
X26805417Y20014029D03*
X22628000Y25278000D03*
X4847988Y30104000D03*
X21485000Y29088000D03*
X25828021Y19802600D03*
D18*
X33310000Y24770000D02*
X32534000Y24770000D01*
X32534000Y24770000D02*
X32026000Y25278000D01*
X12355000Y29102000D02*
X11071000Y29102000D01*
X13150000Y29900000D02*
X13150000Y29897000D01*
X13150000Y29897000D02*
X12355000Y29102000D01*
X42857004Y5375000D02*
X42857004Y29560016D01*
X42857004Y29560016D02*
X42821020Y29596000D01*
X13715685Y29900000D02*
X13919685Y30104000D01*
X13150000Y29900000D02*
X13715685Y29900000D01*
X13919685Y30104000D02*
X29428315Y30104000D01*
X29428315Y30104000D02*
X29994000Y30104000D01*
X19212010Y19576010D02*
X17421000Y19576010D01*
X19580000Y19944000D02*
X19212010Y19576010D01*
X42821020Y30611980D02*
X42821020Y29596000D01*
X30502000Y30612000D02*
X31010000Y30612000D01*
X29994000Y30104000D02*
X30502000Y30612000D01*
X31010000Y30612000D02*
X32026000Y31628000D01*
X41805000Y31628000D02*
X42821020Y30611980D01*
X32026000Y31628000D02*
X41805000Y31628000D01*
D19*
X27722000Y23895000D02*
X27327000Y23500000D01*
X27722000Y24897000D02*
X27722000Y23895000D01*
X40356204Y9185120D02*
X39790519Y9185120D01*
X29446809Y18397956D02*
X24533000Y23311765D01*
X24533000Y23311765D02*
X24533000Y27663605D01*
X38249000Y10726639D02*
X38249000Y17644988D01*
X37496032Y18397956D02*
X29446809Y18397956D01*
X25587294Y28717899D02*
X26152979Y28717899D01*
X38249000Y17644988D02*
X37496032Y18397956D01*
X24533000Y27663605D02*
X25587294Y28717899D01*
X39790519Y9185120D02*
X38249000Y10726639D01*
X38699011Y11182828D02*
X38699011Y17831388D01*
X40266429Y10181095D02*
X39700744Y10181095D01*
X39700744Y10181095D02*
X38699011Y11182828D01*
X25295000Y23186176D02*
X25295000Y27310000D01*
X29633209Y18847967D02*
X25295000Y23186176D01*
X38699011Y17831388D02*
X37682432Y18847967D01*
X37682432Y18847967D02*
X29633209Y18847967D01*
X39599033Y12973642D02*
X41551000Y11021675D01*
X39599033Y18204188D02*
X39599033Y12973642D01*
X26601999Y23151999D02*
X30006009Y19747989D01*
X26819000Y26802000D02*
X26601999Y26584999D01*
X41551000Y11021675D02*
X41551000Y10455990D01*
X30006009Y19747989D02*
X38055232Y19747989D01*
X26601999Y26584999D02*
X26601999Y23151999D01*
X38055232Y19747989D02*
X39599033Y18204188D01*
X29819609Y19297978D02*
X26093999Y23023588D01*
X37868832Y19297978D02*
X29819609Y19297978D01*
X39149022Y18017788D02*
X37868832Y19297978D01*
X40154000Y11181000D02*
X39149022Y12185978D01*
X39149022Y12185978D02*
X39149022Y18017788D01*
X26093999Y27346999D02*
X27073000Y28326000D01*
X26093999Y23023588D02*
X26093999Y27346999D01*
X15380441Y21067783D02*
X17909783Y21067783D01*
X5356000Y20452000D02*
X5972001Y21068001D01*
X5356000Y6956000D02*
X5356000Y20452000D01*
X15380223Y21068001D02*
X15380441Y21067783D01*
X5972001Y21068001D02*
X15380223Y21068001D01*
X1500000Y3100000D02*
X5356000Y6956000D01*
X17909783Y21067783D02*
X18310000Y21468000D01*
X15547624Y21537011D02*
X15566841Y21517794D01*
X4905989Y8505989D02*
X4905989Y20638400D01*
X1500000Y5100000D02*
X4905989Y8505989D01*
X5804600Y21537011D02*
X15547624Y21537011D01*
X4905989Y20638400D02*
X5804600Y21537011D01*
X16706067Y21517794D02*
X17108480Y21920207D01*
X15566841Y21517794D02*
X16706067Y21517794D01*
X5873973Y22242795D02*
X15914842Y22242795D01*
X4455978Y10055978D02*
X4455978Y20824800D01*
X1500000Y7100000D02*
X4455978Y10055978D01*
X4455978Y20824800D02*
X5873973Y22242795D01*
X4005967Y15605967D02*
X4005967Y21011200D01*
X1500000Y13100000D02*
X4005967Y15605967D01*
X6226604Y23231837D02*
X15767128Y23231837D01*
X4005967Y21011200D02*
X6226604Y23231837D01*
X3555956Y21197600D02*
X6339063Y23980707D01*
X6339063Y23980707D02*
X9387979Y23980707D01*
X1500000Y17100000D02*
X3555956Y19155956D01*
X3555956Y19155956D02*
X3555956Y21197600D01*
X16425336Y23970612D02*
X16575719Y23820229D01*
X15689915Y23980707D02*
X15700010Y23970612D01*
X15700010Y23970612D02*
X16425336Y23970612D01*
X9387979Y23980707D02*
X15689915Y23980707D01*
X5318747Y24918747D02*
X16052244Y24918747D01*
X1500000Y21100000D02*
X5318747Y24918747D01*
X1500000Y23100000D02*
X4186000Y25786000D01*
X4186000Y25786000D02*
X9928000Y25786000D01*
X16274956Y25786000D02*
X17052014Y25008942D01*
X9928000Y25786000D02*
X16274956Y25786000D01*
X17052014Y25008942D02*
X17052014Y24896736D01*
X1500000Y27100000D02*
X9514979Y27100000D01*
X9514979Y27100000D02*
X9718000Y26896979D01*
X16565131Y26896979D02*
X17683037Y25779073D01*
X9718000Y26896979D02*
X16565131Y26896979D01*
X4975000Y28072000D02*
X5425011Y27621989D01*
X20351582Y26467864D02*
X26805417Y20014029D01*
X16899262Y27621989D02*
X18053387Y26467864D01*
X18053387Y26467864D02*
X20351582Y26467864D01*
X5425011Y27621989D02*
X16899262Y27621989D01*
X18239787Y26917875D02*
X17085662Y28072000D01*
X6879988Y28072000D02*
X4847988Y30104000D01*
X22628000Y25278000D02*
X20988125Y26917875D01*
X17085662Y28072000D02*
X6879988Y28072000D01*
X20988125Y26917875D02*
X18239787Y26917875D01*
X20074000Y28580000D02*
X20582000Y29088000D01*
X20582000Y29088000D02*
X21485000Y29088000D01*
X10086201Y14768201D02*
X8861200Y13543200D01*
X10086201Y17422189D02*
X10086201Y14768201D01*
X11465012Y18801000D02*
X10086201Y17422189D01*
X20088000Y18801000D02*
X11465012Y18801000D01*
X21231000Y19944000D02*
X20088000Y18801000D01*
X25686621Y19944000D02*
X21231000Y19944000D01*
X25828021Y19802600D02*
X25686621Y19944000D01*
D20*
G36*
X52686928Y30425000D02*
G01*
X52699188Y30300518D01*
X52735498Y30180820D01*
X52794463Y30070506D01*
X52873815Y29973815D01*
X52960697Y29902513D01*
X52839093Y29720518D01*
X52740342Y29482113D01*
X52690000Y29229024D01*
X52690000Y28970976D01*
X52740342Y28717887D01*
X52839093Y28479482D01*
X52982456Y28264923D01*
X53147379Y28100000D01*
X52982456Y27935077D01*
X52839093Y27720518D01*
X52740342Y27482113D01*
X52690000Y27229024D01*
X52690000Y26970976D01*
X52740342Y26717887D01*
X52839093Y26479482D01*
X52982456Y26264923D01*
X53154060Y26093319D01*
X53021697Y25971227D01*
X52870527Y25763629D01*
X52762762Y25530528D01*
X52732090Y25429400D01*
X52855776Y25227000D01*
X53873000Y25227000D01*
X53873000Y25247000D01*
X54127000Y25247000D01*
X54127000Y25227000D01*
X54147000Y25227000D01*
X54147000Y24973000D01*
X54127000Y24973000D01*
X54127000Y24953000D01*
X53873000Y24953000D01*
X53873000Y24973000D01*
X52855776Y24973000D01*
X52732090Y24770600D01*
X52762762Y24669472D01*
X52870527Y24436371D01*
X53021697Y24228773D01*
X53154060Y24106681D01*
X52982456Y23935077D01*
X52839093Y23720518D01*
X52740342Y23482113D01*
X52690000Y23229024D01*
X52690000Y22970976D01*
X52740342Y22717887D01*
X52839093Y22479482D01*
X52982456Y22264923D01*
X53147379Y22100000D01*
X52982456Y21935077D01*
X52839093Y21720518D01*
X52740342Y21482113D01*
X52690000Y21229024D01*
X52690000Y20970976D01*
X52740342Y20717887D01*
X52839093Y20479482D01*
X52982456Y20264923D01*
X53147379Y20100000D01*
X52982456Y19935077D01*
X52839093Y19720518D01*
X52740342Y19482113D01*
X52690000Y19229024D01*
X52690000Y18970976D01*
X52740342Y18717887D01*
X52839093Y18479482D01*
X52982456Y18264923D01*
X53147379Y18100000D01*
X52982456Y17935077D01*
X52839093Y17720518D01*
X52740342Y17482113D01*
X52690000Y17229024D01*
X52690000Y16970976D01*
X52740342Y16717887D01*
X52839093Y16479482D01*
X52982456Y16264923D01*
X53147379Y16100000D01*
X52982456Y15935077D01*
X52839093Y15720518D01*
X52740342Y15482113D01*
X52690000Y15229024D01*
X52690000Y14970976D01*
X52740342Y14717887D01*
X52839093Y14479482D01*
X52982456Y14264923D01*
X53147379Y14100000D01*
X52982456Y13935077D01*
X52839093Y13720518D01*
X52740342Y13482113D01*
X52690000Y13229024D01*
X52690000Y12970976D01*
X52740342Y12717887D01*
X52839093Y12479482D01*
X52982456Y12264923D01*
X53147379Y12100000D01*
X52982456Y11935077D01*
X52839093Y11720518D01*
X52740342Y11482113D01*
X52690000Y11229024D01*
X52690000Y10970976D01*
X52740342Y10717887D01*
X52839093Y10479482D01*
X52982456Y10264923D01*
X53147379Y10100000D01*
X52982456Y9935077D01*
X52839093Y9720518D01*
X52740342Y9482113D01*
X52690000Y9229024D01*
X52690000Y8970976D01*
X52740342Y8717887D01*
X52839093Y8479482D01*
X52982456Y8264923D01*
X53147379Y8100000D01*
X52982456Y7935077D01*
X52839093Y7720518D01*
X52740342Y7482113D01*
X52690000Y7229024D01*
X52690000Y6970976D01*
X52740342Y6717887D01*
X52839093Y6479482D01*
X52982456Y6264923D01*
X53147379Y6100000D01*
X52982456Y5935077D01*
X52839093Y5720518D01*
X52740342Y5482113D01*
X52690000Y5229024D01*
X52690000Y4970976D01*
X52740342Y4717887D01*
X52839093Y4479482D01*
X52982456Y4264923D01*
X53147379Y4100000D01*
X52982456Y3935077D01*
X52839093Y3720518D01*
X52740342Y3482113D01*
X52690000Y3229024D01*
X52690000Y2970976D01*
X52740342Y2717887D01*
X52839093Y2479482D01*
X52982456Y2264923D01*
X53147379Y2100000D01*
X52982456Y1935077D01*
X52839093Y1720518D01*
X52740342Y1482113D01*
X52690000Y1229024D01*
X52690000Y970976D01*
X52740342Y717887D01*
X52764320Y660000D01*
X41784922Y660000D01*
X41942998Y739356D01*
X42014785Y787322D01*
X42063132Y1111341D01*
X41043000Y2131473D01*
X40022868Y1111341D01*
X40071215Y787322D01*
X40295407Y660000D01*
X38020000Y660000D01*
X38020000Y2207168D01*
X39358439Y2207168D01*
X39382386Y1877697D01*
X39470149Y1559229D01*
X39618356Y1264002D01*
X39666322Y1192215D01*
X39990341Y1143868D01*
X41010473Y2164000D01*
X41075527Y2164000D01*
X42095659Y1143868D01*
X42419678Y1192215D01*
X42582811Y1479464D01*
X42686771Y1793020D01*
X42727561Y2120832D01*
X42703614Y2450303D01*
X42615851Y2768771D01*
X42467644Y3063998D01*
X42419678Y3135785D01*
X42095659Y3184132D01*
X41075527Y2164000D01*
X41010473Y2164000D01*
X39990341Y3184132D01*
X39666322Y3135785D01*
X39503189Y2848536D01*
X39399229Y2534980D01*
X39358439Y2207168D01*
X38020000Y2207168D01*
X38020000Y3216659D01*
X40022868Y3216659D01*
X41043000Y2196527D01*
X42063132Y3216659D01*
X42014785Y3540678D01*
X41727536Y3703811D01*
X41413980Y3807771D01*
X41086168Y3848561D01*
X40756697Y3824614D01*
X40438229Y3736851D01*
X40143002Y3588644D01*
X40071215Y3540678D01*
X40022868Y3216659D01*
X38020000Y3216659D01*
X38020000Y9880838D01*
X39226720Y8674117D01*
X39250518Y8645119D01*
X39279516Y8621321D01*
X39366242Y8550146D01*
X39498272Y8479574D01*
X39641480Y8436133D01*
X39696430Y8381183D01*
X39865948Y8267915D01*
X40054306Y8189894D01*
X40254265Y8150120D01*
X40458143Y8150120D01*
X40658102Y8189894D01*
X40846460Y8267915D01*
X41015978Y8381183D01*
X41160141Y8525346D01*
X41273409Y8694864D01*
X41351430Y8883222D01*
X41391204Y9083181D01*
X41391204Y9287059D01*
X41361083Y9438490D01*
X41449061Y9420990D01*
X41652939Y9420990D01*
X41852898Y9460764D01*
X41997004Y9520455D01*
X41997004Y5950870D01*
X41939799Y5865256D01*
X41861778Y5676898D01*
X41822004Y5476939D01*
X41822004Y5273061D01*
X41861778Y5073102D01*
X41939799Y4884744D01*
X42053067Y4715226D01*
X42197230Y4571063D01*
X42366748Y4457795D01*
X42555106Y4379774D01*
X42755065Y4340000D01*
X42958943Y4340000D01*
X43158902Y4379774D01*
X43347260Y4457795D01*
X43516778Y4571063D01*
X43660941Y4715226D01*
X43774209Y4884744D01*
X43852230Y5073102D01*
X43892004Y5273061D01*
X43892004Y5476939D01*
X43852230Y5676898D01*
X43774209Y5865256D01*
X43717004Y5950870D01*
X43717004Y29073984D01*
X43738225Y29105744D01*
X43816246Y29294102D01*
X43856020Y29494061D01*
X43856020Y29697939D01*
X43816246Y29897898D01*
X43738225Y30086256D01*
X43681020Y30171870D01*
X43681020Y30569742D01*
X43685180Y30611981D01*
X43681020Y30654220D01*
X43681020Y30654226D01*
X43668576Y30780569D01*
X43619401Y30942680D01*
X43539544Y31092082D01*
X43432074Y31223034D01*
X43399262Y31249962D01*
X43109224Y31540000D01*
X52686928Y31540000D01*
X52686928Y30425000D01*
G37*
X52686928Y30425000D02*
X52699188Y30300518D01*
X52735498Y30180820D01*
X52794463Y30070506D01*
X52873815Y29973815D01*
X52960697Y29902513D01*
X52839093Y29720518D01*
X52740342Y29482113D01*
X52690000Y29229024D01*
X52690000Y28970976D01*
X52740342Y28717887D01*
X52839093Y28479482D01*
X52982456Y28264923D01*
X53147379Y28100000D01*
X52982456Y27935077D01*
X52839093Y27720518D01*
X52740342Y27482113D01*
X52690000Y27229024D01*
X52690000Y26970976D01*
X52740342Y26717887D01*
X52839093Y26479482D01*
X52982456Y26264923D01*
X53154060Y26093319D01*
X53021697Y25971227D01*
X52870527Y25763629D01*
X52762762Y25530528D01*
X52732090Y25429400D01*
X52855776Y25227000D01*
X53873000Y25227000D01*
X53873000Y25247000D01*
X54127000Y25247000D01*
X54127000Y25227000D01*
X54147000Y25227000D01*
X54147000Y24973000D01*
X54127000Y24973000D01*
X54127000Y24953000D01*
X53873000Y24953000D01*
X53873000Y24973000D01*
X52855776Y24973000D01*
X52732090Y24770600D01*
X52762762Y24669472D01*
X52870527Y24436371D01*
X53021697Y24228773D01*
X53154060Y24106681D01*
X52982456Y23935077D01*
X52839093Y23720518D01*
X52740342Y23482113D01*
X52690000Y23229024D01*
X52690000Y22970976D01*
X52740342Y22717887D01*
X52839093Y22479482D01*
X52982456Y22264923D01*
X53147379Y22100000D01*
X52982456Y21935077D01*
X52839093Y21720518D01*
X52740342Y21482113D01*
X52690000Y21229024D01*
X52690000Y20970976D01*
X52740342Y20717887D01*
X52839093Y20479482D01*
X52982456Y20264923D01*
X53147379Y20100000D01*
X52982456Y19935077D01*
X52839093Y19720518D01*
X52740342Y19482113D01*
X52690000Y19229024D01*
X52690000Y18970976D01*
X52740342Y18717887D01*
X52839093Y18479482D01*
X52982456Y18264923D01*
X53147379Y18100000D01*
X52982456Y17935077D01*
X52839093Y17720518D01*
X52740342Y17482113D01*
X52690000Y17229024D01*
X52690000Y16970976D01*
X52740342Y16717887D01*
X52839093Y16479482D01*
X52982456Y16264923D01*
X53147379Y16100000D01*
X52982456Y15935077D01*
X52839093Y15720518D01*
X52740342Y15482113D01*
X52690000Y15229024D01*
X52690000Y14970976D01*
X52740342Y14717887D01*
X52839093Y14479482D01*
X52982456Y14264923D01*
X53147379Y14100000D01*
X52982456Y13935077D01*
X52839093Y13720518D01*
X52740342Y13482113D01*
X52690000Y13229024D01*
X52690000Y12970976D01*
X52740342Y12717887D01*
X52839093Y12479482D01*
X52982456Y12264923D01*
X53147379Y12100000D01*
X52982456Y11935077D01*
X52839093Y11720518D01*
X52740342Y11482113D01*
X52690000Y11229024D01*
X52690000Y10970976D01*
X52740342Y10717887D01*
X52839093Y10479482D01*
X52982456Y10264923D01*
X53147379Y10100000D01*
X52982456Y9935077D01*
X52839093Y9720518D01*
X52740342Y9482113D01*
X52690000Y9229024D01*
X52690000Y8970976D01*
X52740342Y8717887D01*
X52839093Y8479482D01*
X52982456Y8264923D01*
X53147379Y8100000D01*
X52982456Y7935077D01*
X52839093Y7720518D01*
X52740342Y7482113D01*
X52690000Y7229024D01*
X52690000Y6970976D01*
X52740342Y6717887D01*
X52839093Y6479482D01*
X52982456Y6264923D01*
X53147379Y6100000D01*
X52982456Y5935077D01*
X52839093Y5720518D01*
X52740342Y5482113D01*
X52690000Y5229024D01*
X52690000Y4970976D01*
X52740342Y4717887D01*
X52839093Y4479482D01*
X52982456Y4264923D01*
X53147379Y4100000D01*
X52982456Y3935077D01*
X52839093Y3720518D01*
X52740342Y3482113D01*
X52690000Y3229024D01*
X52690000Y2970976D01*
X52740342Y2717887D01*
X52839093Y2479482D01*
X52982456Y2264923D01*
X53147379Y2100000D01*
X52982456Y1935077D01*
X52839093Y1720518D01*
X52740342Y1482113D01*
X52690000Y1229024D01*
X52690000Y970976D01*
X52740342Y717887D01*
X52764320Y660000D01*
X41784922Y660000D01*
X41942998Y739356D01*
X42014785Y787322D01*
X42063132Y1111341D01*
X41043000Y2131473D01*
X40022868Y1111341D01*
X40071215Y787322D01*
X40295407Y660000D01*
X38020000Y660000D01*
X38020000Y2207168D01*
X39358439Y2207168D01*
X39382386Y1877697D01*
X39470149Y1559229D01*
X39618356Y1264002D01*
X39666322Y1192215D01*
X39990341Y1143868D01*
X41010473Y2164000D01*
X41075527Y2164000D01*
X42095659Y1143868D01*
X42419678Y1192215D01*
X42582811Y1479464D01*
X42686771Y1793020D01*
X42727561Y2120832D01*
X42703614Y2450303D01*
X42615851Y2768771D01*
X42467644Y3063998D01*
X42419678Y3135785D01*
X42095659Y3184132D01*
X41075527Y2164000D01*
X41010473Y2164000D01*
X39990341Y3184132D01*
X39666322Y3135785D01*
X39503189Y2848536D01*
X39399229Y2534980D01*
X39358439Y2207168D01*
X38020000Y2207168D01*
X38020000Y3216659D01*
X40022868Y3216659D01*
X41043000Y2196527D01*
X42063132Y3216659D01*
X42014785Y3540678D01*
X41727536Y3703811D01*
X41413980Y3807771D01*
X41086168Y3848561D01*
X40756697Y3824614D01*
X40438229Y3736851D01*
X40143002Y3588644D01*
X40071215Y3540678D01*
X40022868Y3216659D01*
X38020000Y3216659D01*
X38020000Y9880838D01*
X39226720Y8674117D01*
X39250518Y8645119D01*
X39279516Y8621321D01*
X39366242Y8550146D01*
X39498272Y8479574D01*
X39641480Y8436133D01*
X39696430Y8381183D01*
X39865948Y8267915D01*
X40054306Y8189894D01*
X40254265Y8150120D01*
X40458143Y8150120D01*
X40658102Y8189894D01*
X40846460Y8267915D01*
X41015978Y8381183D01*
X41160141Y8525346D01*
X41273409Y8694864D01*
X41351430Y8883222D01*
X41391204Y9083181D01*
X41391204Y9287059D01*
X41361083Y9438490D01*
X41449061Y9420990D01*
X41652939Y9420990D01*
X41852898Y9460764D01*
X41997004Y9520455D01*
X41997004Y5950870D01*
X41939799Y5865256D01*
X41861778Y5676898D01*
X41822004Y5476939D01*
X41822004Y5273061D01*
X41861778Y5073102D01*
X41939799Y4884744D01*
X42053067Y4715226D01*
X42197230Y4571063D01*
X42366748Y4457795D01*
X42555106Y4379774D01*
X42755065Y4340000D01*
X42958943Y4340000D01*
X43158902Y4379774D01*
X43347260Y4457795D01*
X43516778Y4571063D01*
X43660941Y4715226D01*
X43774209Y4884744D01*
X43852230Y5073102D01*
X43892004Y5273061D01*
X43892004Y5476939D01*
X43852230Y5676898D01*
X43774209Y5865256D01*
X43717004Y5950870D01*
X43717004Y29073984D01*
X43738225Y29105744D01*
X43816246Y29294102D01*
X43856020Y29494061D01*
X43856020Y29697939D01*
X43816246Y29897898D01*
X43738225Y30086256D01*
X43681020Y30171870D01*
X43681020Y30569742D01*
X43685180Y30611981D01*
X43681020Y30654220D01*
X43681020Y30654226D01*
X43668576Y30780569D01*
X43619401Y30942680D01*
X43539544Y31092082D01*
X43432074Y31223034D01*
X43399262Y31249962D01*
X43109224Y31540000D01*
X52686928Y31540000D01*
X52686928Y30425000D01*
G36*
X15343108Y20307783D02*
G01*
X15343118Y20307783D01*
X15380440Y20304107D01*
X15417763Y20307783D01*
X16689062Y20307783D01*
X16617063Y20235784D01*
X16503795Y20066266D01*
X16425774Y19877908D01*
X16386000Y19677949D01*
X16386000Y19561000D01*
X11502334Y19561000D01*
X11465011Y19564676D01*
X11427688Y19561000D01*
X11427679Y19561000D01*
X11316026Y19550003D01*
X11172765Y19506546D01*
X11040736Y19435974D01*
X10925011Y19341001D01*
X10901213Y19312003D01*
X9575204Y17985993D01*
X9546200Y17962190D01*
X9504963Y17911942D01*
X9451227Y17846465D01*
X9438457Y17822574D01*
X9380655Y17714435D01*
X9337198Y17571174D01*
X9328752Y17485426D01*
X9218091Y17524681D01*
X8988200Y17404014D01*
X8988200Y16210200D01*
X9008200Y16210200D01*
X9008200Y15956200D01*
X8988200Y15956200D01*
X8988200Y15936200D01*
X8734200Y15936200D01*
X8734200Y15956200D01*
X7541045Y15956200D01*
X7419724Y15726310D01*
X7464375Y15579101D01*
X7589559Y15316280D01*
X7763612Y15082931D01*
X7979845Y14888022D01*
X8096734Y14818395D01*
X7914568Y14696675D01*
X7707725Y14489832D01*
X7545210Y14246611D01*
X7433268Y13976358D01*
X7376200Y13689460D01*
X7376200Y13396940D01*
X7433268Y13110042D01*
X7545210Y12839789D01*
X7707725Y12596568D01*
X7914568Y12389725D01*
X8088960Y12273200D01*
X7914568Y12156675D01*
X7707725Y11949832D01*
X7545210Y11706611D01*
X7433268Y11436358D01*
X7376200Y11149460D01*
X7376200Y10856940D01*
X7433268Y10570042D01*
X7545210Y10299789D01*
X7707725Y10056568D01*
X7914568Y9849725D01*
X8088960Y9733200D01*
X7914568Y9616675D01*
X7707725Y9409832D01*
X7545210Y9166611D01*
X7433268Y8896358D01*
X7376200Y8609460D01*
X7376200Y8316940D01*
X7433268Y8030042D01*
X7545210Y7759789D01*
X7707725Y7516568D01*
X7914568Y7309725D01*
X8088960Y7193200D01*
X7914568Y7076675D01*
X7707725Y6869832D01*
X7545210Y6626611D01*
X7433268Y6356358D01*
X7376200Y6069460D01*
X7376200Y5776940D01*
X7433268Y5490042D01*
X7545210Y5219789D01*
X7707725Y4976568D01*
X7839580Y4844713D01*
X7767020Y4822702D01*
X7656706Y4763737D01*
X7560015Y4684385D01*
X7480663Y4587694D01*
X7421698Y4477380D01*
X7385388Y4357682D01*
X7373128Y4233200D01*
X7373128Y2533200D01*
X7385388Y2408718D01*
X7421698Y2289020D01*
X7480663Y2178706D01*
X7560015Y2082015D01*
X7656706Y2002663D01*
X7767020Y1943698D01*
X7886718Y1907388D01*
X8011200Y1895128D01*
X9711200Y1895128D01*
X9835682Y1907388D01*
X9955380Y1943698D01*
X10065694Y2002663D01*
X10162385Y2082015D01*
X10241737Y2178706D01*
X10300702Y2289020D01*
X10337012Y2408718D01*
X10349272Y2533200D01*
X10349272Y4233200D01*
X10337012Y4357682D01*
X10300702Y4477380D01*
X10241737Y4587694D01*
X10162385Y4684385D01*
X10065694Y4763737D01*
X9955380Y4822702D01*
X9882820Y4844713D01*
X10014675Y4976568D01*
X10177190Y5219789D01*
X10289132Y5490042D01*
X10346200Y5776940D01*
X10346200Y6069460D01*
X10289132Y6356358D01*
X10177190Y6626611D01*
X10014675Y6869832D01*
X9807832Y7076675D01*
X9633440Y7193200D01*
X9807832Y7309725D01*
X10014675Y7516568D01*
X10177190Y7759789D01*
X10289132Y8030042D01*
X10346200Y8316940D01*
X10346200Y8609460D01*
X10289132Y8896358D01*
X10177190Y9166611D01*
X10014675Y9409832D01*
X9807832Y9616675D01*
X9633440Y9733200D01*
X9807832Y9849725D01*
X10014675Y10056568D01*
X10177190Y10299789D01*
X10289132Y10570042D01*
X10346200Y10856940D01*
X10346200Y11149460D01*
X10289132Y11436358D01*
X10177190Y11706611D01*
X10014675Y11949832D01*
X9807832Y12156675D01*
X9633440Y12273200D01*
X9807832Y12389725D01*
X10014675Y12596568D01*
X10177190Y12839789D01*
X10289132Y13110042D01*
X10346200Y13396940D01*
X10346200Y13689460D01*
X10302410Y13909608D01*
X10538000Y14145198D01*
X10538001Y660000D01*
X2735680Y660000D01*
X2759658Y717887D01*
X2810000Y970976D01*
X2810000Y1229024D01*
X2759658Y1482113D01*
X2660907Y1720518D01*
X2517544Y1935077D01*
X2352621Y2100000D01*
X2517544Y2264923D01*
X2660907Y2479482D01*
X2759658Y2717887D01*
X2810000Y2970976D01*
X2810000Y3229024D01*
X2792385Y3317583D01*
X5867009Y6392206D01*
X5896001Y6415999D01*
X5919795Y6444992D01*
X5919799Y6444996D01*
X5990973Y6531723D01*
X5990974Y6531724D01*
X6061546Y6663753D01*
X6105003Y6807014D01*
X6116000Y6918667D01*
X6116000Y6918676D01*
X6119676Y6955999D01*
X6116000Y6993322D01*
X6116000Y16440090D01*
X7419724Y16440090D01*
X7541045Y16210200D01*
X8734200Y16210200D01*
X8734200Y17404014D01*
X8504309Y17524681D01*
X8229948Y17427357D01*
X7979845Y17278378D01*
X7763612Y17083469D01*
X7589559Y16850120D01*
X7464375Y16587299D01*
X7419724Y16440090D01*
X6116000Y16440090D01*
X6116000Y20137199D01*
X6286803Y20308001D01*
X15340895Y20308001D01*
X15343108Y20307783D01*
G37*
X15343108Y20307783D02*
X15343118Y20307783D01*
X15380440Y20304107D01*
X15417763Y20307783D01*
X16689062Y20307783D01*
X16617063Y20235784D01*
X16503795Y20066266D01*
X16425774Y19877908D01*
X16386000Y19677949D01*
X16386000Y19561000D01*
X11502334Y19561000D01*
X11465011Y19564676D01*
X11427688Y19561000D01*
X11427679Y19561000D01*
X11316026Y19550003D01*
X11172765Y19506546D01*
X11040736Y19435974D01*
X10925011Y19341001D01*
X10901213Y19312003D01*
X9575204Y17985993D01*
X9546200Y17962190D01*
X9504963Y17911942D01*
X9451227Y17846465D01*
X9438457Y17822574D01*
X9380655Y17714435D01*
X9337198Y17571174D01*
X9328752Y17485426D01*
X9218091Y17524681D01*
X8988200Y17404014D01*
X8988200Y16210200D01*
X9008200Y16210200D01*
X9008200Y15956200D01*
X8988200Y15956200D01*
X8988200Y15936200D01*
X8734200Y15936200D01*
X8734200Y15956200D01*
X7541045Y15956200D01*
X7419724Y15726310D01*
X7464375Y15579101D01*
X7589559Y15316280D01*
X7763612Y15082931D01*
X7979845Y14888022D01*
X8096734Y14818395D01*
X7914568Y14696675D01*
X7707725Y14489832D01*
X7545210Y14246611D01*
X7433268Y13976358D01*
X7376200Y13689460D01*
X7376200Y13396940D01*
X7433268Y13110042D01*
X7545210Y12839789D01*
X7707725Y12596568D01*
X7914568Y12389725D01*
X8088960Y12273200D01*
X7914568Y12156675D01*
X7707725Y11949832D01*
X7545210Y11706611D01*
X7433268Y11436358D01*
X7376200Y11149460D01*
X7376200Y10856940D01*
X7433268Y10570042D01*
X7545210Y10299789D01*
X7707725Y10056568D01*
X7914568Y9849725D01*
X8088960Y9733200D01*
X7914568Y9616675D01*
X7707725Y9409832D01*
X7545210Y9166611D01*
X7433268Y8896358D01*
X7376200Y8609460D01*
X7376200Y8316940D01*
X7433268Y8030042D01*
X7545210Y7759789D01*
X7707725Y7516568D01*
X7914568Y7309725D01*
X8088960Y7193200D01*
X7914568Y7076675D01*
X7707725Y6869832D01*
X7545210Y6626611D01*
X7433268Y6356358D01*
X7376200Y6069460D01*
X7376200Y5776940D01*
X7433268Y5490042D01*
X7545210Y5219789D01*
X7707725Y4976568D01*
X7839580Y4844713D01*
X7767020Y4822702D01*
X7656706Y4763737D01*
X7560015Y4684385D01*
X7480663Y4587694D01*
X7421698Y4477380D01*
X7385388Y4357682D01*
X7373128Y4233200D01*
X7373128Y2533200D01*
X7385388Y2408718D01*
X7421698Y2289020D01*
X7480663Y2178706D01*
X7560015Y2082015D01*
X7656706Y2002663D01*
X7767020Y1943698D01*
X7886718Y1907388D01*
X8011200Y1895128D01*
X9711200Y1895128D01*
X9835682Y1907388D01*
X9955380Y1943698D01*
X10065694Y2002663D01*
X10162385Y2082015D01*
X10241737Y2178706D01*
X10300702Y2289020D01*
X10337012Y2408718D01*
X10349272Y2533200D01*
X10349272Y4233200D01*
X10337012Y4357682D01*
X10300702Y4477380D01*
X10241737Y4587694D01*
X10162385Y4684385D01*
X10065694Y4763737D01*
X9955380Y4822702D01*
X9882820Y4844713D01*
X10014675Y4976568D01*
X10177190Y5219789D01*
X10289132Y5490042D01*
X10346200Y5776940D01*
X10346200Y6069460D01*
X10289132Y6356358D01*
X10177190Y6626611D01*
X10014675Y6869832D01*
X9807832Y7076675D01*
X9633440Y7193200D01*
X9807832Y7309725D01*
X10014675Y7516568D01*
X10177190Y7759789D01*
X10289132Y8030042D01*
X10346200Y8316940D01*
X10346200Y8609460D01*
X10289132Y8896358D01*
X10177190Y9166611D01*
X10014675Y9409832D01*
X9807832Y9616675D01*
X9633440Y9733200D01*
X9807832Y9849725D01*
X10014675Y10056568D01*
X10177190Y10299789D01*
X10289132Y10570042D01*
X10346200Y10856940D01*
X10346200Y11149460D01*
X10289132Y11436358D01*
X10177190Y11706611D01*
X10014675Y11949832D01*
X9807832Y12156675D01*
X9633440Y12273200D01*
X9807832Y12389725D01*
X10014675Y12596568D01*
X10177190Y12839789D01*
X10289132Y13110042D01*
X10346200Y13396940D01*
X10346200Y13689460D01*
X10302410Y13909608D01*
X10538000Y14145198D01*
X10538001Y660000D01*
X2735680Y660000D01*
X2759658Y717887D01*
X2810000Y970976D01*
X2810000Y1229024D01*
X2759658Y1482113D01*
X2660907Y1720518D01*
X2517544Y1935077D01*
X2352621Y2100000D01*
X2517544Y2264923D01*
X2660907Y2479482D01*
X2759658Y2717887D01*
X2810000Y2970976D01*
X2810000Y3229024D01*
X2792385Y3317583D01*
X5867009Y6392206D01*
X5896001Y6415999D01*
X5919795Y6444992D01*
X5919799Y6444996D01*
X5990973Y6531723D01*
X5990974Y6531724D01*
X6061546Y6663753D01*
X6105003Y6807014D01*
X6116000Y6918667D01*
X6116000Y6918676D01*
X6119676Y6955999D01*
X6116000Y6993322D01*
X6116000Y16440090D01*
X7419724Y16440090D01*
X7541045Y16210200D01*
X8734200Y16210200D01*
X8734200Y17404014D01*
X8504309Y17524681D01*
X8229948Y17427357D01*
X7979845Y17278378D01*
X7763612Y17083469D01*
X7589559Y16850120D01*
X7464375Y16587299D01*
X7419724Y16440090D01*
X6116000Y16440090D01*
X6116000Y20137199D01*
X6286803Y20308001D01*
X15340895Y20308001D01*
X15343108Y20307783D01*
G36*
X41961020Y30255756D02*
G01*
X41961020Y30171870D01*
X41903815Y30086256D01*
X41825794Y29897898D01*
X41786020Y29697939D01*
X41786020Y29494061D01*
X41825794Y29294102D01*
X41903815Y29105744D01*
X41997005Y28966275D01*
X41997005Y18479391D01*
X41957759Y18518637D01*
X41722727Y18675680D01*
X41461574Y18783853D01*
X41184335Y18839000D01*
X40901665Y18839000D01*
X40624426Y18783853D01*
X40363273Y18675680D01*
X40249429Y18599612D01*
X40234007Y18628464D01*
X40139034Y18744189D01*
X40110037Y18767986D01*
X38619036Y20258986D01*
X38595233Y20287990D01*
X38479508Y20382963D01*
X38347479Y20453535D01*
X38204218Y20496992D01*
X38092565Y20507989D01*
X38092554Y20507989D01*
X38055232Y20511665D01*
X38017910Y20507989D01*
X30320811Y20507989D01*
X28059755Y22769044D01*
X28130937Y22840226D01*
X28244205Y23009744D01*
X28322226Y23198102D01*
X28362000Y23398061D01*
X28362000Y23480127D01*
X28427546Y23602753D01*
X28471003Y23746014D01*
X28482000Y23857667D01*
X28482000Y23857676D01*
X28485676Y23894999D01*
X28482775Y23924450D01*
X28495942Y23931488D01*
X28519839Y23951099D01*
X28592506Y23891463D01*
X28702820Y23832498D01*
X28822518Y23796188D01*
X28947000Y23783928D01*
X29186250Y23787000D01*
X29345000Y23945750D01*
X29345000Y24770000D01*
X29599000Y24770000D01*
X29599000Y23945750D01*
X29757750Y23787000D01*
X29997000Y23783928D01*
X30121482Y23796188D01*
X30241180Y23832498D01*
X30351494Y23891463D01*
X30448185Y23970815D01*
X30527537Y24067506D01*
X30586502Y24177820D01*
X30622812Y24297518D01*
X30635072Y24422000D01*
X30632000Y24611250D01*
X30473250Y24770000D01*
X29599000Y24770000D01*
X29345000Y24770000D01*
X29325000Y24770000D01*
X29325000Y25024000D01*
X29345000Y25024000D01*
X29345000Y25848250D01*
X29599000Y25848250D01*
X29599000Y25024000D01*
X30473250Y25024000D01*
X30632000Y25182750D01*
X30635072Y25372000D01*
X30634291Y25379939D01*
X30991000Y25379939D01*
X30991000Y25176061D01*
X31030774Y24976102D01*
X31108795Y24787744D01*
X31222063Y24618226D01*
X31366226Y24474063D01*
X31535744Y24360795D01*
X31724102Y24282774D01*
X31825092Y24262686D01*
X31896008Y24191770D01*
X31922946Y24158946D01*
X32053898Y24051476D01*
X32203300Y23971619D01*
X32285320Y23946739D01*
X32365409Y23922444D01*
X32396538Y23919378D01*
X32398620Y23919173D01*
X32403377Y23913377D01*
X32536058Y23804488D01*
X32687433Y23723577D01*
X32851684Y23673752D01*
X33022500Y23656928D01*
X33597500Y23656928D01*
X33768316Y23673752D01*
X33932567Y23723577D01*
X34083942Y23804488D01*
X34107839Y23824099D01*
X34180506Y23764463D01*
X34290820Y23705498D01*
X34410518Y23669188D01*
X34535000Y23656928D01*
X34774250Y23660000D01*
X34933000Y23818750D01*
X34933000Y24643000D01*
X35187000Y24643000D01*
X35187000Y23818750D01*
X35345750Y23660000D01*
X35585000Y23656928D01*
X35709482Y23669188D01*
X35829180Y23705498D01*
X35939494Y23764463D01*
X36036185Y23843815D01*
X36115537Y23940506D01*
X36174502Y24050820D01*
X36210812Y24170518D01*
X36223072Y24295000D01*
X36220000Y24484250D01*
X36061250Y24643000D01*
X35187000Y24643000D01*
X34933000Y24643000D01*
X34913000Y24643000D01*
X34913000Y24897000D01*
X34933000Y24897000D01*
X34933000Y25721250D01*
X35187000Y25721250D01*
X35187000Y24897000D01*
X36061250Y24897000D01*
X36220000Y25055750D01*
X36223072Y25245000D01*
X36210812Y25369482D01*
X36174502Y25489180D01*
X36115537Y25599494D01*
X36036185Y25696185D01*
X35939494Y25775537D01*
X35829180Y25834502D01*
X35709482Y25870812D01*
X35585000Y25883072D01*
X35345750Y25880000D01*
X35187000Y25721250D01*
X34933000Y25721250D01*
X34774250Y25880000D01*
X34535000Y25883072D01*
X34410518Y25870812D01*
X34290820Y25834502D01*
X34180506Y25775537D01*
X34107839Y25715901D01*
X34083942Y25735512D01*
X33932567Y25816423D01*
X33768316Y25866248D01*
X33597500Y25883072D01*
X33022500Y25883072D01*
X32876121Y25868655D01*
X32829937Y25937774D01*
X32685774Y26081937D01*
X32516256Y26195205D01*
X32327898Y26273226D01*
X32127939Y26313000D01*
X31924061Y26313000D01*
X31724102Y26273226D01*
X31535744Y26195205D01*
X31366226Y26081937D01*
X31222063Y25937774D01*
X31108795Y25768256D01*
X31030774Y25579898D01*
X30991000Y25379939D01*
X30634291Y25379939D01*
X30622812Y25496482D01*
X30586502Y25616180D01*
X30527537Y25726494D01*
X30448185Y25823185D01*
X30351494Y25902537D01*
X30241180Y25961502D01*
X30121482Y25997812D01*
X29997000Y26010072D01*
X29757750Y26007000D01*
X29599000Y25848250D01*
X29345000Y25848250D01*
X29186250Y26007000D01*
X28947000Y26010072D01*
X28822518Y25997812D01*
X28702820Y25961502D01*
X28592506Y25902537D01*
X28519839Y25842901D01*
X28495942Y25862512D01*
X28344567Y25943423D01*
X28180316Y25993248D01*
X28009500Y26010072D01*
X27490783Y26010072D01*
X27622937Y26142226D01*
X27736205Y26311744D01*
X27814226Y26500102D01*
X27854000Y26700061D01*
X27854000Y26903939D01*
X27814226Y27103898D01*
X27736205Y27292256D01*
X27628989Y27452716D01*
X27732774Y27522063D01*
X27876937Y27666226D01*
X27990205Y27835744D01*
X28068226Y28024102D01*
X28108000Y28224061D01*
X28108000Y28427939D01*
X28068226Y28627898D01*
X27990205Y28816256D01*
X27876937Y28985774D01*
X27732774Y29129937D01*
X27563256Y29243205D01*
X27561337Y29244000D01*
X29418130Y29244000D01*
X29503744Y29186795D01*
X29692102Y29108774D01*
X29892061Y29069000D01*
X30095939Y29069000D01*
X30295898Y29108774D01*
X30484256Y29186795D01*
X30653774Y29300063D01*
X30797937Y29444226D01*
X30834488Y29498928D01*
X31311500Y29498928D01*
X31482316Y29515752D01*
X31646567Y29565577D01*
X31797942Y29646488D01*
X31821839Y29666099D01*
X31894506Y29606463D01*
X32004820Y29547498D01*
X32124518Y29511188D01*
X32249000Y29498928D01*
X32488250Y29502000D01*
X32647000Y29660750D01*
X32647000Y30485000D01*
X32901000Y30485000D01*
X32901000Y29660750D01*
X33059750Y29502000D01*
X33299000Y29498928D01*
X33423482Y29511188D01*
X33543180Y29547498D01*
X33653494Y29606463D01*
X33750185Y29685815D01*
X33829537Y29782506D01*
X33888502Y29892820D01*
X33924812Y30012518D01*
X33937072Y30137000D01*
X33934000Y30326250D01*
X33775250Y30485000D01*
X32901000Y30485000D01*
X32647000Y30485000D01*
X32627000Y30485000D01*
X32627000Y30739000D01*
X32647000Y30739000D01*
X32647000Y30759000D01*
X32901000Y30759000D01*
X32901000Y30739000D01*
X33775250Y30739000D01*
X33804250Y30768000D01*
X41448777Y30768000D01*
X41961020Y30255756D01*
G37*
X41961020Y30255756D02*
X41961020Y30171870D01*
X41903815Y30086256D01*
X41825794Y29897898D01*
X41786020Y29697939D01*
X41786020Y29494061D01*
X41825794Y29294102D01*
X41903815Y29105744D01*
X41997005Y28966275D01*
X41997005Y18479391D01*
X41957759Y18518637D01*
X41722727Y18675680D01*
X41461574Y18783853D01*
X41184335Y18839000D01*
X40901665Y18839000D01*
X40624426Y18783853D01*
X40363273Y18675680D01*
X40249429Y18599612D01*
X40234007Y18628464D01*
X40139034Y18744189D01*
X40110037Y18767986D01*
X38619036Y20258986D01*
X38595233Y20287990D01*
X38479508Y20382963D01*
X38347479Y20453535D01*
X38204218Y20496992D01*
X38092565Y20507989D01*
X38092554Y20507989D01*
X38055232Y20511665D01*
X38017910Y20507989D01*
X30320811Y20507989D01*
X28059755Y22769044D01*
X28130937Y22840226D01*
X28244205Y23009744D01*
X28322226Y23198102D01*
X28362000Y23398061D01*
X28362000Y23480127D01*
X28427546Y23602753D01*
X28471003Y23746014D01*
X28482000Y23857667D01*
X28482000Y23857676D01*
X28485676Y23894999D01*
X28482775Y23924450D01*
X28495942Y23931488D01*
X28519839Y23951099D01*
X28592506Y23891463D01*
X28702820Y23832498D01*
X28822518Y23796188D01*
X28947000Y23783928D01*
X29186250Y23787000D01*
X29345000Y23945750D01*
X29345000Y24770000D01*
X29599000Y24770000D01*
X29599000Y23945750D01*
X29757750Y23787000D01*
X29997000Y23783928D01*
X30121482Y23796188D01*
X30241180Y23832498D01*
X30351494Y23891463D01*
X30448185Y23970815D01*
X30527537Y24067506D01*
X30586502Y24177820D01*
X30622812Y24297518D01*
X30635072Y24422000D01*
X30632000Y24611250D01*
X30473250Y24770000D01*
X29599000Y24770000D01*
X29345000Y24770000D01*
X29325000Y24770000D01*
X29325000Y25024000D01*
X29345000Y25024000D01*
X29345000Y25848250D01*
X29599000Y25848250D01*
X29599000Y25024000D01*
X30473250Y25024000D01*
X30632000Y25182750D01*
X30635072Y25372000D01*
X30634291Y25379939D01*
X30991000Y25379939D01*
X30991000Y25176061D01*
X31030774Y24976102D01*
X31108795Y24787744D01*
X31222063Y24618226D01*
X31366226Y24474063D01*
X31535744Y24360795D01*
X31724102Y24282774D01*
X31825092Y24262686D01*
X31896008Y24191770D01*
X31922946Y24158946D01*
X32053898Y24051476D01*
X32203300Y23971619D01*
X32285320Y23946739D01*
X32365409Y23922444D01*
X32396538Y23919378D01*
X32398620Y23919173D01*
X32403377Y23913377D01*
X32536058Y23804488D01*
X32687433Y23723577D01*
X32851684Y23673752D01*
X33022500Y23656928D01*
X33597500Y23656928D01*
X33768316Y23673752D01*
X33932567Y23723577D01*
X34083942Y23804488D01*
X34107839Y23824099D01*
X34180506Y23764463D01*
X34290820Y23705498D01*
X34410518Y23669188D01*
X34535000Y23656928D01*
X34774250Y23660000D01*
X34933000Y23818750D01*
X34933000Y24643000D01*
X35187000Y24643000D01*
X35187000Y23818750D01*
X35345750Y23660000D01*
X35585000Y23656928D01*
X35709482Y23669188D01*
X35829180Y23705498D01*
X35939494Y23764463D01*
X36036185Y23843815D01*
X36115537Y23940506D01*
X36174502Y24050820D01*
X36210812Y24170518D01*
X36223072Y24295000D01*
X36220000Y24484250D01*
X36061250Y24643000D01*
X35187000Y24643000D01*
X34933000Y24643000D01*
X34913000Y24643000D01*
X34913000Y24897000D01*
X34933000Y24897000D01*
X34933000Y25721250D01*
X35187000Y25721250D01*
X35187000Y24897000D01*
X36061250Y24897000D01*
X36220000Y25055750D01*
X36223072Y25245000D01*
X36210812Y25369482D01*
X36174502Y25489180D01*
X36115537Y25599494D01*
X36036185Y25696185D01*
X35939494Y25775537D01*
X35829180Y25834502D01*
X35709482Y25870812D01*
X35585000Y25883072D01*
X35345750Y25880000D01*
X35187000Y25721250D01*
X34933000Y25721250D01*
X34774250Y25880000D01*
X34535000Y25883072D01*
X34410518Y25870812D01*
X34290820Y25834502D01*
X34180506Y25775537D01*
X34107839Y25715901D01*
X34083942Y25735512D01*
X33932567Y25816423D01*
X33768316Y25866248D01*
X33597500Y25883072D01*
X33022500Y25883072D01*
X32876121Y25868655D01*
X32829937Y25937774D01*
X32685774Y26081937D01*
X32516256Y26195205D01*
X32327898Y26273226D01*
X32127939Y26313000D01*
X31924061Y26313000D01*
X31724102Y26273226D01*
X31535744Y26195205D01*
X31366226Y26081937D01*
X31222063Y25937774D01*
X31108795Y25768256D01*
X31030774Y25579898D01*
X30991000Y25379939D01*
X30634291Y25379939D01*
X30622812Y25496482D01*
X30586502Y25616180D01*
X30527537Y25726494D01*
X30448185Y25823185D01*
X30351494Y25902537D01*
X30241180Y25961502D01*
X30121482Y25997812D01*
X29997000Y26010072D01*
X29757750Y26007000D01*
X29599000Y25848250D01*
X29345000Y25848250D01*
X29186250Y26007000D01*
X28947000Y26010072D01*
X28822518Y25997812D01*
X28702820Y25961502D01*
X28592506Y25902537D01*
X28519839Y25842901D01*
X28495942Y25862512D01*
X28344567Y25943423D01*
X28180316Y25993248D01*
X28009500Y26010072D01*
X27490783Y26010072D01*
X27622937Y26142226D01*
X27736205Y26311744D01*
X27814226Y26500102D01*
X27854000Y26700061D01*
X27854000Y26903939D01*
X27814226Y27103898D01*
X27736205Y27292256D01*
X27628989Y27452716D01*
X27732774Y27522063D01*
X27876937Y27666226D01*
X27990205Y27835744D01*
X28068226Y28024102D01*
X28108000Y28224061D01*
X28108000Y28427939D01*
X28068226Y28627898D01*
X27990205Y28816256D01*
X27876937Y28985774D01*
X27732774Y29129937D01*
X27563256Y29243205D01*
X27561337Y29244000D01*
X29418130Y29244000D01*
X29503744Y29186795D01*
X29692102Y29108774D01*
X29892061Y29069000D01*
X30095939Y29069000D01*
X30295898Y29108774D01*
X30484256Y29186795D01*
X30653774Y29300063D01*
X30797937Y29444226D01*
X30834488Y29498928D01*
X31311500Y29498928D01*
X31482316Y29515752D01*
X31646567Y29565577D01*
X31797942Y29646488D01*
X31821839Y29666099D01*
X31894506Y29606463D01*
X32004820Y29547498D01*
X32124518Y29511188D01*
X32249000Y29498928D01*
X32488250Y29502000D01*
X32647000Y29660750D01*
X32647000Y30485000D01*
X32901000Y30485000D01*
X32901000Y29660750D01*
X33059750Y29502000D01*
X33299000Y29498928D01*
X33423482Y29511188D01*
X33543180Y29547498D01*
X33653494Y29606463D01*
X33750185Y29685815D01*
X33829537Y29782506D01*
X33888502Y29892820D01*
X33924812Y30012518D01*
X33937072Y30137000D01*
X33934000Y30326250D01*
X33775250Y30485000D01*
X32901000Y30485000D01*
X32647000Y30485000D01*
X32627000Y30485000D01*
X32627000Y30739000D01*
X32647000Y30739000D01*
X32647000Y30759000D01*
X32901000Y30759000D01*
X32901000Y30739000D01*
X33775250Y30739000D01*
X33804250Y30768000D01*
X41448777Y30768000D01*
X41961020Y30255756D01*
G36*
X25023495Y29228902D02*
G01*
X24021998Y28227404D01*
X23993000Y28203606D01*
X23969202Y28174608D01*
X23969201Y28174607D01*
X23898026Y28087881D01*
X23827454Y27955851D01*
X23799821Y27864752D01*
X23783998Y27812591D01*
X23774800Y27719205D01*
X23769324Y27663605D01*
X23773001Y27626273D01*
X23773000Y24121247D01*
X23353979Y24540268D01*
X23431937Y24618226D01*
X23545205Y24787744D01*
X23623226Y24976102D01*
X23663000Y25176061D01*
X23663000Y25379939D01*
X23623226Y25579898D01*
X23545205Y25768256D01*
X23431937Y25937774D01*
X23287774Y26081937D01*
X23118256Y26195205D01*
X22929898Y26273226D01*
X22729939Y26313000D01*
X22667802Y26313000D01*
X21551928Y27428873D01*
X21528126Y27457876D01*
X21412401Y27552849D01*
X21280372Y27623421D01*
X21137111Y27666878D01*
X21025458Y27677875D01*
X21025447Y27677875D01*
X20988125Y27681551D01*
X20950803Y27677875D01*
X18554589Y27677875D01*
X18324002Y27908462D01*
X18324002Y28009748D01*
X18482750Y27851000D01*
X18722000Y27847928D01*
X18846482Y27860188D01*
X18966180Y27896498D01*
X19076494Y27955463D01*
X19149161Y28015099D01*
X19173058Y27995488D01*
X19324433Y27914577D01*
X19488684Y27864752D01*
X19659500Y27847928D01*
X19869202Y27847928D01*
X19925015Y27830998D01*
X20074000Y27816324D01*
X20222985Y27830998D01*
X20300097Y27854389D01*
X20405316Y27864752D01*
X20569567Y27914577D01*
X20720942Y27995488D01*
X20853623Y28104377D01*
X20938806Y28208172D01*
X20994744Y28170795D01*
X21183102Y28092774D01*
X21383061Y28053000D01*
X21586939Y28053000D01*
X21786898Y28092774D01*
X21975256Y28170795D01*
X22144774Y28284063D01*
X22288937Y28428226D01*
X22402205Y28597744D01*
X22480226Y28786102D01*
X22520000Y28986061D01*
X22520000Y29189939D01*
X22509247Y29244000D01*
X25035886Y29244000D01*
X25023495Y29228902D01*
G37*
X25023495Y29228902D02*
X24021998Y28227404D01*
X23993000Y28203606D01*
X23969202Y28174608D01*
X23969201Y28174607D01*
X23898026Y28087881D01*
X23827454Y27955851D01*
X23799821Y27864752D01*
X23783998Y27812591D01*
X23774800Y27719205D01*
X23769324Y27663605D01*
X23773001Y27626273D01*
X23773000Y24121247D01*
X23353979Y24540268D01*
X23431937Y24618226D01*
X23545205Y24787744D01*
X23623226Y24976102D01*
X23663000Y25176061D01*
X23663000Y25379939D01*
X23623226Y25579898D01*
X23545205Y25768256D01*
X23431937Y25937774D01*
X23287774Y26081937D01*
X23118256Y26195205D01*
X22929898Y26273226D01*
X22729939Y26313000D01*
X22667802Y26313000D01*
X21551928Y27428873D01*
X21528126Y27457876D01*
X21412401Y27552849D01*
X21280372Y27623421D01*
X21137111Y27666878D01*
X21025458Y27677875D01*
X21025447Y27677875D01*
X20988125Y27681551D01*
X20950803Y27677875D01*
X18554589Y27677875D01*
X18324002Y27908462D01*
X18324002Y28009748D01*
X18482750Y27851000D01*
X18722000Y27847928D01*
X18846482Y27860188D01*
X18966180Y27896498D01*
X19076494Y27955463D01*
X19149161Y28015099D01*
X19173058Y27995488D01*
X19324433Y27914577D01*
X19488684Y27864752D01*
X19659500Y27847928D01*
X19869202Y27847928D01*
X19925015Y27830998D01*
X20074000Y27816324D01*
X20222985Y27830998D01*
X20300097Y27854389D01*
X20405316Y27864752D01*
X20569567Y27914577D01*
X20720942Y27995488D01*
X20853623Y28104377D01*
X20938806Y28208172D01*
X20994744Y28170795D01*
X21183102Y28092774D01*
X21383061Y28053000D01*
X21586939Y28053000D01*
X21786898Y28092774D01*
X21975256Y28170795D01*
X22144774Y28284063D01*
X22288937Y28428226D01*
X22402205Y28597744D01*
X22480226Y28786102D01*
X22520000Y28986061D01*
X22520000Y29189939D01*
X22509247Y29244000D01*
X25035886Y29244000D01*
X25023495Y29228902D01*
G36*
X9970188Y31501482D02*
G01*
X9957928Y31377000D01*
X9961000Y31137750D01*
X10119750Y30979000D01*
X10944000Y30979000D01*
X10944000Y30999000D01*
X11198000Y30999000D01*
X11198000Y30979000D01*
X12022250Y30979000D01*
X12181000Y31137750D01*
X12184072Y31377000D01*
X12171812Y31501482D01*
X12160128Y31540000D01*
X30204350Y31540000D01*
X30117377Y31468623D01*
X30008488Y31335942D01*
X29992850Y31306685D01*
X29890946Y31223054D01*
X29864008Y31190230D01*
X29793092Y31119314D01*
X29692102Y31099226D01*
X29503744Y31021205D01*
X29418130Y30964000D01*
X13961931Y30964000D01*
X13919685Y30968161D01*
X13751095Y30951556D01*
X13696517Y30935000D01*
X13588985Y30902381D01*
X13521591Y30866358D01*
X13451898Y30895226D01*
X13251939Y30935000D01*
X13048061Y30935000D01*
X12848102Y30895226D01*
X12659744Y30817205D01*
X12490226Y30703937D01*
X12346063Y30559774D01*
X12232795Y30390256D01*
X12177047Y30255669D01*
X12184072Y30327000D01*
X12181000Y30566250D01*
X12022250Y30725000D01*
X11198000Y30725000D01*
X11198000Y30705000D01*
X10944000Y30705000D01*
X10944000Y30725000D01*
X10119750Y30725000D01*
X9961000Y30566250D01*
X9957928Y30327000D01*
X9970188Y30202518D01*
X10006498Y30082820D01*
X10065463Y29972506D01*
X10125099Y29899839D01*
X10105488Y29875942D01*
X10024577Y29724567D01*
X9974752Y29560316D01*
X9957928Y29389500D01*
X9957928Y28832000D01*
X7194790Y28832000D01*
X5882988Y30143801D01*
X5882988Y30205939D01*
X5843214Y30405898D01*
X5765193Y30594256D01*
X5651925Y30763774D01*
X5507762Y30907937D01*
X5338244Y31021205D01*
X5149886Y31099226D01*
X4949927Y31139000D01*
X4746049Y31139000D01*
X4546090Y31099226D01*
X4357732Y31021205D01*
X4188214Y30907937D01*
X4044051Y30763774D01*
X3930783Y30594256D01*
X3852762Y30405898D01*
X3812988Y30205939D01*
X3812988Y30002061D01*
X3852762Y29802102D01*
X3930783Y29613744D01*
X4044051Y29444226D01*
X4188214Y29300063D01*
X4357732Y29186795D01*
X4546090Y29108774D01*
X4714035Y29075368D01*
X4673102Y29067226D01*
X4484744Y28989205D01*
X4315226Y28875937D01*
X4171063Y28731774D01*
X4057795Y28562256D01*
X3979774Y28373898D01*
X3940000Y28173939D01*
X3940000Y27970061D01*
X3961892Y27860000D01*
X2567709Y27860000D01*
X2517544Y27935077D01*
X2352621Y28100000D01*
X2517544Y28264923D01*
X2660907Y28479482D01*
X2759658Y28717887D01*
X2810000Y28970976D01*
X2810000Y29229024D01*
X2759658Y29482113D01*
X2660907Y29720518D01*
X2539303Y29902513D01*
X2626185Y29973815D01*
X2705537Y30070506D01*
X2764502Y30180820D01*
X2800812Y30300518D01*
X2813072Y30425000D01*
X2813072Y31540000D01*
X9981872Y31540000D01*
X9970188Y31501482D01*
G37*
X9970188Y31501482D02*
X9957928Y31377000D01*
X9961000Y31137750D01*
X10119750Y30979000D01*
X10944000Y30979000D01*
X10944000Y30999000D01*
X11198000Y30999000D01*
X11198000Y30979000D01*
X12022250Y30979000D01*
X12181000Y31137750D01*
X12184072Y31377000D01*
X12171812Y31501482D01*
X12160128Y31540000D01*
X30204350Y31540000D01*
X30117377Y31468623D01*
X30008488Y31335942D01*
X29992850Y31306685D01*
X29890946Y31223054D01*
X29864008Y31190230D01*
X29793092Y31119314D01*
X29692102Y31099226D01*
X29503744Y31021205D01*
X29418130Y30964000D01*
X13961931Y30964000D01*
X13919685Y30968161D01*
X13751095Y30951556D01*
X13696517Y30935000D01*
X13588985Y30902381D01*
X13521591Y30866358D01*
X13451898Y30895226D01*
X13251939Y30935000D01*
X13048061Y30935000D01*
X12848102Y30895226D01*
X12659744Y30817205D01*
X12490226Y30703937D01*
X12346063Y30559774D01*
X12232795Y30390256D01*
X12177047Y30255669D01*
X12184072Y30327000D01*
X12181000Y30566250D01*
X12022250Y30725000D01*
X11198000Y30725000D01*
X11198000Y30705000D01*
X10944000Y30705000D01*
X10944000Y30725000D01*
X10119750Y30725000D01*
X9961000Y30566250D01*
X9957928Y30327000D01*
X9970188Y30202518D01*
X10006498Y30082820D01*
X10065463Y29972506D01*
X10125099Y29899839D01*
X10105488Y29875942D01*
X10024577Y29724567D01*
X9974752Y29560316D01*
X9957928Y29389500D01*
X9957928Y28832000D01*
X7194790Y28832000D01*
X5882988Y30143801D01*
X5882988Y30205939D01*
X5843214Y30405898D01*
X5765193Y30594256D01*
X5651925Y30763774D01*
X5507762Y30907937D01*
X5338244Y31021205D01*
X5149886Y31099226D01*
X4949927Y31139000D01*
X4746049Y31139000D01*
X4546090Y31099226D01*
X4357732Y31021205D01*
X4188214Y30907937D01*
X4044051Y30763774D01*
X3930783Y30594256D01*
X3852762Y30405898D01*
X3812988Y30205939D01*
X3812988Y30002061D01*
X3852762Y29802102D01*
X3930783Y29613744D01*
X4044051Y29444226D01*
X4188214Y29300063D01*
X4357732Y29186795D01*
X4546090Y29108774D01*
X4714035Y29075368D01*
X4673102Y29067226D01*
X4484744Y28989205D01*
X4315226Y28875937D01*
X4171063Y28731774D01*
X4057795Y28562256D01*
X3979774Y28373898D01*
X3940000Y28173939D01*
X3940000Y27970061D01*
X3961892Y27860000D01*
X2567709Y27860000D01*
X2517544Y27935077D01*
X2352621Y28100000D01*
X2517544Y28264923D01*
X2660907Y28479482D01*
X2759658Y28717887D01*
X2810000Y28970976D01*
X2810000Y29229024D01*
X2759658Y29482113D01*
X2660907Y29720518D01*
X2539303Y29902513D01*
X2626185Y29973815D01*
X2705537Y30070506D01*
X2764502Y30180820D01*
X2800812Y30300518D01*
X2813072Y30425000D01*
X2813072Y31540000D01*
X9981872Y31540000D01*
X9970188Y31501482D01*
G36*
X17195750Y29088000D02*
G01*
X18070000Y29088000D01*
X18070000Y29108000D01*
X18324000Y29108000D01*
X18324000Y29088000D01*
X18344000Y29088000D01*
X18344000Y28834000D01*
X18324000Y28834000D01*
X18324000Y28814000D01*
X18070000Y28814000D01*
X18070000Y28834000D01*
X17195750Y28834000D01*
X17187406Y28825656D01*
X17122995Y28832000D01*
X17122984Y28832000D01*
X17085662Y28835676D01*
X17048340Y28832000D01*
X13301223Y28832000D01*
X13354655Y28885431D01*
X13451898Y28904774D01*
X13640256Y28982795D01*
X13720328Y29036297D01*
X13757924Y29040000D01*
X13757931Y29040000D01*
X13884274Y29052444D01*
X14046385Y29101619D01*
X14195787Y29181476D01*
X14271972Y29244000D01*
X17039750Y29244000D01*
X17195750Y29088000D01*
G37*
X17195750Y29088000D02*
X18070000Y29088000D01*
X18070000Y29108000D01*
X18324000Y29108000D01*
X18324000Y29088000D01*
X18344000Y29088000D01*
X18344000Y28834000D01*
X18324000Y28834000D01*
X18324000Y28814000D01*
X18070000Y28814000D01*
X18070000Y28834000D01*
X17195750Y28834000D01*
X17187406Y28825656D01*
X17122995Y28832000D01*
X17122984Y28832000D01*
X17085662Y28835676D01*
X17048340Y28832000D01*
X13301223Y28832000D01*
X13354655Y28885431D01*
X13451898Y28904774D01*
X13640256Y28982795D01*
X13720328Y29036297D01*
X13757924Y29040000D01*
X13757931Y29040000D01*
X13884274Y29052444D01*
X14046385Y29101619D01*
X14195787Y29181476D01*
X14271972Y29244000D01*
X17039750Y29244000D01*
X17195750Y29088000D01*
M02*
