G04 #@! TF.GenerationSoftware,KiCad,Pcbnew,(5.1.6)-1*
G04 #@! TF.CreationDate,2020-11-05T08:21:22+01:00*
G04 #@! TF.ProjectId,repl board,7265706c-2062-46f6-9172-642e6b696361,1.05*
G04 #@! TF.SameCoordinates,PX9bbc2a0PY6b31680*
G04 #@! TF.FileFunction,Copper,L1,Top*
G04 #@! TF.FilePolarity,Positive*
%FSLAX46Y46*%
G04 Gerber Fmt 4.6, Leading zero omitted, Abs format (unit mm)*
G04 Created by KiCad (PCBNEW (5.1.6)-1) date 2020-11-05 08:21:22*
%MOMM*%
%LPD*%
G01*
G04 APERTURE LIST*
G04 #@! TA.AperFunction,SMDPad,CuDef*
%ADD10R,1.100000X1.300000*%
G04 #@! TD*
G04 #@! TA.AperFunction,ComponentPad*
%ADD11O,1.600000X1.600000*%
G04 #@! TD*
G04 #@! TA.AperFunction,ComponentPad*
%ADD12C,1.600000*%
G04 #@! TD*
G04 #@! TA.AperFunction,SMDPad,CuDef*
%ADD13C,0.100000*%
G04 #@! TD*
G04 #@! TA.AperFunction,ComponentPad*
%ADD14O,1.700000X1.700000*%
G04 #@! TD*
G04 #@! TA.AperFunction,ComponentPad*
%ADD15R,1.700000X1.700000*%
G04 #@! TD*
G04 #@! TA.AperFunction,SMDPad,CuDef*
%ADD16R,1.300000X0.800000*%
G04 #@! TD*
G04 #@! TA.AperFunction,ComponentPad*
%ADD17O,1.350000X1.350000*%
G04 #@! TD*
G04 #@! TA.AperFunction,ComponentPad*
%ADD18R,1.350000X1.350000*%
G04 #@! TD*
G04 #@! TA.AperFunction,ViaPad*
%ADD19C,0.609600*%
G04 #@! TD*
G04 #@! TA.AperFunction,ViaPad*
%ADD20C,0.800000*%
G04 #@! TD*
G04 #@! TA.AperFunction,Conductor*
%ADD21C,0.450000*%
G04 #@! TD*
G04 #@! TA.AperFunction,Conductor*
%ADD22C,0.250000*%
G04 #@! TD*
G04 #@! TA.AperFunction,Conductor*
%ADD23C,0.200000*%
G04 #@! TD*
G04 #@! TA.AperFunction,Conductor*
%ADD24C,0.254000*%
G04 #@! TD*
G04 APERTURE END LIST*
D10*
X40048000Y26872000D03*
X40048000Y29272000D03*
X38228000Y29272000D03*
X38228000Y26872000D03*
G04 #@! TA.AperFunction,SMDPad,CuDef*
G36*
G01*
X35043000Y27199500D02*
X35043000Y27674500D01*
G75*
G02*
X35280500Y27912000I237500J0D01*
G01*
X35855500Y27912000D01*
G75*
G02*
X36093000Y27674500I0J-237500D01*
G01*
X36093000Y27199500D01*
G75*
G02*
X35855500Y26962000I-237500J0D01*
G01*
X35280500Y26962000D01*
G75*
G02*
X35043000Y27199500I0J237500D01*
G01*
G37*
G04 #@! TD.AperFunction*
G04 #@! TA.AperFunction,SMDPad,CuDef*
G36*
G01*
X33293000Y27199500D02*
X33293000Y27674500D01*
G75*
G02*
X33530500Y27912000I237500J0D01*
G01*
X34105500Y27912000D01*
G75*
G02*
X34343000Y27674500I0J-237500D01*
G01*
X34343000Y27199500D01*
G75*
G02*
X34105500Y26962000I-237500J0D01*
G01*
X33530500Y26962000D01*
G75*
G02*
X33293000Y27199500I0J237500D01*
G01*
G37*
G04 #@! TD.AperFunction*
D11*
X41043000Y17404000D03*
D12*
X41043000Y2164000D03*
G04 #@! TA.AperFunction,SMDPad,CuDef*
D13*
G36*
X30644380Y24750926D02*
G01*
X31033289Y25139835D01*
X32164660Y24008464D01*
X31775751Y23619555D01*
X30644380Y24750926D01*
G37*
G04 #@! TD.AperFunction*
G04 #@! TA.AperFunction,SMDPad,CuDef*
G36*
X30078694Y24185241D02*
G01*
X30467603Y24574150D01*
X31598974Y23442779D01*
X31210065Y23053870D01*
X30078694Y24185241D01*
G37*
G04 #@! TD.AperFunction*
G04 #@! TA.AperFunction,SMDPad,CuDef*
G36*
X29513009Y23619555D02*
G01*
X29901918Y24008464D01*
X31033289Y22877093D01*
X30644380Y22488184D01*
X29513009Y23619555D01*
G37*
G04 #@! TD.AperFunction*
G04 #@! TA.AperFunction,SMDPad,CuDef*
G36*
X28947324Y23053870D02*
G01*
X29336233Y23442779D01*
X30467604Y22311408D01*
X30078695Y21922499D01*
X28947324Y23053870D01*
G37*
G04 #@! TD.AperFunction*
G04 #@! TA.AperFunction,SMDPad,CuDef*
G36*
X28381638Y22488184D02*
G01*
X28770547Y22877093D01*
X29901918Y21745722D01*
X29513009Y21356813D01*
X28381638Y22488184D01*
G37*
G04 #@! TD.AperFunction*
G04 #@! TA.AperFunction,SMDPad,CuDef*
G36*
X27815953Y21922499D02*
G01*
X28204862Y22311408D01*
X29336233Y21180037D01*
X28947324Y20791128D01*
X27815953Y21922499D01*
G37*
G04 #@! TD.AperFunction*
G04 #@! TA.AperFunction,SMDPad,CuDef*
G36*
X27250267Y21356814D02*
G01*
X27639176Y21745723D01*
X28770547Y20614352D01*
X28381638Y20225443D01*
X27250267Y21356814D01*
G37*
G04 #@! TD.AperFunction*
G04 #@! TA.AperFunction,SMDPad,CuDef*
G36*
X26684582Y20791128D02*
G01*
X27073491Y21180037D01*
X28204862Y20048666D01*
X27815953Y19659757D01*
X26684582Y20791128D01*
G37*
G04 #@! TD.AperFunction*
G04 #@! TA.AperFunction,SMDPad,CuDef*
G36*
X25765343Y21180037D02*
G01*
X26154252Y20791128D01*
X25022881Y19659757D01*
X24633972Y20048666D01*
X25765343Y21180037D01*
G37*
G04 #@! TD.AperFunction*
G04 #@! TA.AperFunction,SMDPad,CuDef*
G36*
X25199658Y21745723D02*
G01*
X25588567Y21356814D01*
X24457196Y20225443D01*
X24068287Y20614352D01*
X25199658Y21745723D01*
G37*
G04 #@! TD.AperFunction*
G04 #@! TA.AperFunction,SMDPad,CuDef*
G36*
X24633972Y22311408D02*
G01*
X25022881Y21922499D01*
X23891510Y20791128D01*
X23502601Y21180037D01*
X24633972Y22311408D01*
G37*
G04 #@! TD.AperFunction*
G04 #@! TA.AperFunction,SMDPad,CuDef*
G36*
X24068287Y22877093D02*
G01*
X24457196Y22488184D01*
X23325825Y21356813D01*
X22936916Y21745722D01*
X24068287Y22877093D01*
G37*
G04 #@! TD.AperFunction*
G04 #@! TA.AperFunction,SMDPad,CuDef*
G36*
X23502601Y23442779D02*
G01*
X23891510Y23053870D01*
X22760139Y21922499D01*
X22371230Y22311408D01*
X23502601Y23442779D01*
G37*
G04 #@! TD.AperFunction*
G04 #@! TA.AperFunction,SMDPad,CuDef*
G36*
X22936916Y24008464D02*
G01*
X23325825Y23619555D01*
X22194454Y22488184D01*
X21805545Y22877093D01*
X22936916Y24008464D01*
G37*
G04 #@! TD.AperFunction*
G04 #@! TA.AperFunction,SMDPad,CuDef*
G36*
X22371231Y24574150D02*
G01*
X22760140Y24185241D01*
X21628769Y23053870D01*
X21239860Y23442779D01*
X22371231Y24574150D01*
G37*
G04 #@! TD.AperFunction*
G04 #@! TA.AperFunction,SMDPad,CuDef*
G36*
X21805545Y25139835D02*
G01*
X22194454Y24750926D01*
X21063083Y23619555D01*
X20674174Y24008464D01*
X21805545Y25139835D01*
G37*
G04 #@! TD.AperFunction*
G04 #@! TA.AperFunction,SMDPad,CuDef*
G36*
X20674174Y26801536D02*
G01*
X21063083Y27190445D01*
X22194454Y26059074D01*
X21805545Y25670165D01*
X20674174Y26801536D01*
G37*
G04 #@! TD.AperFunction*
G04 #@! TA.AperFunction,SMDPad,CuDef*
G36*
X21239860Y27367221D02*
G01*
X21628769Y27756130D01*
X22760140Y26624759D01*
X22371231Y26235850D01*
X21239860Y27367221D01*
G37*
G04 #@! TD.AperFunction*
G04 #@! TA.AperFunction,SMDPad,CuDef*
G36*
X21805545Y27932907D02*
G01*
X22194454Y28321816D01*
X23325825Y27190445D01*
X22936916Y26801536D01*
X21805545Y27932907D01*
G37*
G04 #@! TD.AperFunction*
G04 #@! TA.AperFunction,SMDPad,CuDef*
G36*
X22371230Y28498592D02*
G01*
X22760139Y28887501D01*
X23891510Y27756130D01*
X23502601Y27367221D01*
X22371230Y28498592D01*
G37*
G04 #@! TD.AperFunction*
G04 #@! TA.AperFunction,SMDPad,CuDef*
G36*
X22936916Y29064278D02*
G01*
X23325825Y29453187D01*
X24457196Y28321816D01*
X24068287Y27932907D01*
X22936916Y29064278D01*
G37*
G04 #@! TD.AperFunction*
G04 #@! TA.AperFunction,SMDPad,CuDef*
G36*
X23502601Y29629963D02*
G01*
X23891510Y30018872D01*
X25022881Y28887501D01*
X24633972Y28498592D01*
X23502601Y29629963D01*
G37*
G04 #@! TD.AperFunction*
G04 #@! TA.AperFunction,SMDPad,CuDef*
G36*
X24068287Y30195648D02*
G01*
X24457196Y30584557D01*
X25588567Y29453186D01*
X25199658Y29064277D01*
X24068287Y30195648D01*
G37*
G04 #@! TD.AperFunction*
G04 #@! TA.AperFunction,SMDPad,CuDef*
G36*
X24633972Y30761334D02*
G01*
X25022881Y31150243D01*
X26154252Y30018872D01*
X25765343Y29629963D01*
X24633972Y30761334D01*
G37*
G04 #@! TD.AperFunction*
G04 #@! TA.AperFunction,SMDPad,CuDef*
G36*
X27815953Y31150243D02*
G01*
X28204862Y30761334D01*
X27073491Y29629963D01*
X26684582Y30018872D01*
X27815953Y31150243D01*
G37*
G04 #@! TD.AperFunction*
G04 #@! TA.AperFunction,SMDPad,CuDef*
G36*
X28381638Y30584557D02*
G01*
X28770547Y30195648D01*
X27639176Y29064277D01*
X27250267Y29453186D01*
X28381638Y30584557D01*
G37*
G04 #@! TD.AperFunction*
G04 #@! TA.AperFunction,SMDPad,CuDef*
G36*
X28947324Y30018872D02*
G01*
X29336233Y29629963D01*
X28204862Y28498592D01*
X27815953Y28887501D01*
X28947324Y30018872D01*
G37*
G04 #@! TD.AperFunction*
G04 #@! TA.AperFunction,SMDPad,CuDef*
G36*
X29513009Y29453187D02*
G01*
X29901918Y29064278D01*
X28770547Y27932907D01*
X28381638Y28321816D01*
X29513009Y29453187D01*
G37*
G04 #@! TD.AperFunction*
G04 #@! TA.AperFunction,SMDPad,CuDef*
G36*
X30078695Y28887501D02*
G01*
X30467604Y28498592D01*
X29336233Y27367221D01*
X28947324Y27756130D01*
X30078695Y28887501D01*
G37*
G04 #@! TD.AperFunction*
G04 #@! TA.AperFunction,SMDPad,CuDef*
G36*
X30644380Y28321816D02*
G01*
X31033289Y27932907D01*
X29901918Y26801536D01*
X29513009Y27190445D01*
X30644380Y28321816D01*
G37*
G04 #@! TD.AperFunction*
G04 #@! TA.AperFunction,SMDPad,CuDef*
G36*
X31210065Y27756130D02*
G01*
X31598974Y27367221D01*
X30467603Y26235850D01*
X30078694Y26624759D01*
X31210065Y27756130D01*
G37*
G04 #@! TD.AperFunction*
G04 #@! TA.AperFunction,SMDPad,CuDef*
G36*
X31775751Y27190445D02*
G01*
X32164660Y26801536D01*
X31033289Y25670165D01*
X30644380Y26059074D01*
X31775751Y27190445D01*
G37*
G04 #@! TD.AperFunction*
G04 #@! TA.AperFunction,SMDPad,CuDef*
G36*
G01*
X44060000Y22273500D02*
X44060000Y22748500D01*
G75*
G02*
X44297500Y22986000I237500J0D01*
G01*
X44872500Y22986000D01*
G75*
G02*
X45110000Y22748500I0J-237500D01*
G01*
X45110000Y22273500D01*
G75*
G02*
X44872500Y22036000I-237500J0D01*
G01*
X44297500Y22036000D01*
G75*
G02*
X44060000Y22273500I0J237500D01*
G01*
G37*
G04 #@! TD.AperFunction*
G04 #@! TA.AperFunction,SMDPad,CuDef*
G36*
G01*
X42310000Y22273500D02*
X42310000Y22748500D01*
G75*
G02*
X42547500Y22986000I237500J0D01*
G01*
X43122500Y22986000D01*
G75*
G02*
X43360000Y22748500I0J-237500D01*
G01*
X43360000Y22273500D01*
G75*
G02*
X43122500Y22036000I-237500J0D01*
G01*
X42547500Y22036000D01*
G75*
G02*
X42310000Y22273500I0J237500D01*
G01*
G37*
G04 #@! TD.AperFunction*
D14*
X8861200Y16083200D03*
X8861200Y13543200D03*
X8861200Y11003200D03*
X8861200Y8463200D03*
X8861200Y5923200D03*
D15*
X8861200Y3383200D03*
G04 #@! TA.AperFunction,SMDPad,CuDef*
G36*
G01*
X35043000Y28702500D02*
X35043000Y29177500D01*
G75*
G02*
X35280500Y29415000I237500J0D01*
G01*
X35855500Y29415000D01*
G75*
G02*
X36093000Y29177500I0J-237500D01*
G01*
X36093000Y28702500D01*
G75*
G02*
X35855500Y28465000I-237500J0D01*
G01*
X35280500Y28465000D01*
G75*
G02*
X35043000Y28702500I0J237500D01*
G01*
G37*
G04 #@! TD.AperFunction*
G04 #@! TA.AperFunction,SMDPad,CuDef*
G36*
G01*
X33293000Y28702500D02*
X33293000Y29177500D01*
G75*
G02*
X33530500Y29415000I237500J0D01*
G01*
X34105500Y29415000D01*
G75*
G02*
X34343000Y29177500I0J-237500D01*
G01*
X34343000Y28702500D01*
G75*
G02*
X34105500Y28465000I-237500J0D01*
G01*
X33530500Y28465000D01*
G75*
G02*
X33293000Y28702500I0J237500D01*
G01*
G37*
G04 #@! TD.AperFunction*
G04 #@! TA.AperFunction,SMDPad,CuDef*
G36*
G01*
X45857500Y23071000D02*
X46332500Y23071000D01*
G75*
G02*
X46570000Y22833500I0J-237500D01*
G01*
X46570000Y22258500D01*
G75*
G02*
X46332500Y22021000I-237500J0D01*
G01*
X45857500Y22021000D01*
G75*
G02*
X45620000Y22258500I0J237500D01*
G01*
X45620000Y22833500D01*
G75*
G02*
X45857500Y23071000I237500J0D01*
G01*
G37*
G04 #@! TD.AperFunction*
G04 #@! TA.AperFunction,SMDPad,CuDef*
G36*
G01*
X45857500Y24821000D02*
X46332500Y24821000D01*
G75*
G02*
X46570000Y24583500I0J-237500D01*
G01*
X46570000Y24008500D01*
G75*
G02*
X46332500Y23771000I-237500J0D01*
G01*
X45857500Y23771000D01*
G75*
G02*
X45620000Y24008500I0J237500D01*
G01*
X45620000Y24583500D01*
G75*
G02*
X45857500Y24821000I237500J0D01*
G01*
G37*
G04 #@! TD.AperFunction*
G04 #@! TA.AperFunction,SMDPad,CuDef*
G36*
G01*
X46332500Y20471000D02*
X45857500Y20471000D01*
G75*
G02*
X45620000Y20708500I0J237500D01*
G01*
X45620000Y21283500D01*
G75*
G02*
X45857500Y21521000I237500J0D01*
G01*
X46332500Y21521000D01*
G75*
G02*
X46570000Y21283500I0J-237500D01*
G01*
X46570000Y20708500D01*
G75*
G02*
X46332500Y20471000I-237500J0D01*
G01*
G37*
G04 #@! TD.AperFunction*
G04 #@! TA.AperFunction,SMDPad,CuDef*
G36*
G01*
X46332500Y18721000D02*
X45857500Y18721000D01*
G75*
G02*
X45620000Y18958500I0J237500D01*
G01*
X45620000Y19533500D01*
G75*
G02*
X45857500Y19771000I237500J0D01*
G01*
X46332500Y19771000D01*
G75*
G02*
X46570000Y19533500I0J-237500D01*
G01*
X46570000Y18958500D01*
G75*
G02*
X46332500Y18721000I-237500J0D01*
G01*
G37*
G04 #@! TD.AperFunction*
G04 #@! TA.AperFunction,SMDPad,CuDef*
G36*
G01*
X43355000Y21278500D02*
X43355000Y20803500D01*
G75*
G02*
X43117500Y20566000I-237500J0D01*
G01*
X42542500Y20566000D01*
G75*
G02*
X42305000Y20803500I0J237500D01*
G01*
X42305000Y21278500D01*
G75*
G02*
X42542500Y21516000I237500J0D01*
G01*
X43117500Y21516000D01*
G75*
G02*
X43355000Y21278500I0J-237500D01*
G01*
G37*
G04 #@! TD.AperFunction*
G04 #@! TA.AperFunction,SMDPad,CuDef*
G36*
G01*
X45105000Y21278500D02*
X45105000Y20803500D01*
G75*
G02*
X44867500Y20566000I-237500J0D01*
G01*
X44292500Y20566000D01*
G75*
G02*
X44055000Y20803500I0J237500D01*
G01*
X44055000Y21278500D01*
G75*
G02*
X44292500Y21516000I237500J0D01*
G01*
X44867500Y21516000D01*
G75*
G02*
X45105000Y21278500I0J-237500D01*
G01*
G37*
G04 #@! TD.AperFunction*
G04 #@! TA.AperFunction,SMDPad,CuDef*
G36*
G01*
X48344750Y28730000D02*
X49195250Y28730000D01*
G75*
G02*
X49445000Y28480250I0J-249750D01*
G01*
X49445000Y27404750D01*
G75*
G02*
X49195250Y27155000I-249750J0D01*
G01*
X48344750Y27155000D01*
G75*
G02*
X48095000Y27404750I0J249750D01*
G01*
X48095000Y28480250D01*
G75*
G02*
X48344750Y28730000I249750J0D01*
G01*
G37*
G04 #@! TD.AperFunction*
G04 #@! TA.AperFunction,SMDPad,CuDef*
G36*
G01*
X48344999Y31605000D02*
X49195001Y31605000D01*
G75*
G02*
X49445000Y31355001I0J-249999D01*
G01*
X49445000Y30279999D01*
G75*
G02*
X49195001Y30030000I-249999J0D01*
G01*
X48344999Y30030000D01*
G75*
G02*
X48095000Y30279999I0J249999D01*
G01*
X48095000Y31355001D01*
G75*
G02*
X48344999Y31605000I249999J0D01*
G01*
G37*
G04 #@! TD.AperFunction*
D16*
X44150000Y5375000D03*
X44150000Y6655000D03*
X44150000Y7915000D03*
X44150000Y9185000D03*
X44150000Y10465000D03*
X44150000Y11735000D03*
X44150000Y12995000D03*
X44150000Y14275000D03*
X50450000Y14275000D03*
X50450000Y12995000D03*
X50450000Y11735000D03*
X50450000Y10465000D03*
X50450000Y9185000D03*
X50450000Y7915000D03*
X50450000Y6655000D03*
X50450000Y5375000D03*
X14348000Y28966000D03*
X14348000Y27686000D03*
X14348000Y26426000D03*
X14348000Y25156000D03*
X14348000Y23876000D03*
X14348000Y22606000D03*
X14348000Y21346000D03*
X14348000Y20066000D03*
X8048000Y20066000D03*
X8048000Y21346000D03*
X8048000Y22606000D03*
X8048000Y23876000D03*
X8048000Y25156000D03*
X8048000Y26426000D03*
X8048000Y27686000D03*
X8048000Y28966000D03*
D17*
X1500000Y1100000D03*
X1500000Y3100000D03*
X1500000Y5100000D03*
X1500000Y7100000D03*
X1500000Y9100000D03*
X1500000Y11100000D03*
X1500000Y13100000D03*
X1500000Y15100000D03*
X1500000Y17100000D03*
X1500000Y19100000D03*
X1500000Y21100000D03*
X1500000Y23100000D03*
X1500000Y25100000D03*
X1500000Y27100000D03*
X1500000Y29100000D03*
D18*
X1500000Y31100000D03*
D17*
X54000000Y1100000D03*
X54000000Y3100000D03*
X54000000Y5100000D03*
X54000000Y7100000D03*
X54000000Y9100000D03*
X54000000Y11100000D03*
X54000000Y13100000D03*
X54000000Y15100000D03*
X54000000Y17100000D03*
X54000000Y19100000D03*
X54000000Y21100000D03*
X54000000Y23100000D03*
X54000000Y25100000D03*
X54000000Y27100000D03*
X54000000Y29100000D03*
D18*
X54000000Y31100000D03*
G04 #@! TA.AperFunction,SMDPad,CuDef*
G36*
G01*
X5198000Y30882500D02*
X5198000Y31357500D01*
G75*
G02*
X5435500Y31595000I237500J0D01*
G01*
X6010500Y31595000D01*
G75*
G02*
X6248000Y31357500I0J-237500D01*
G01*
X6248000Y30882500D01*
G75*
G02*
X6010500Y30645000I-237500J0D01*
G01*
X5435500Y30645000D01*
G75*
G02*
X5198000Y30882500I0J237500D01*
G01*
G37*
G04 #@! TD.AperFunction*
G04 #@! TA.AperFunction,SMDPad,CuDef*
G36*
G01*
X3448000Y30882500D02*
X3448000Y31357500D01*
G75*
G02*
X3685500Y31595000I237500J0D01*
G01*
X4260500Y31595000D01*
G75*
G02*
X4498000Y31357500I0J-237500D01*
G01*
X4498000Y30882500D01*
G75*
G02*
X4260500Y30645000I-237500J0D01*
G01*
X3685500Y30645000D01*
G75*
G02*
X3448000Y30882500I0J237500D01*
G01*
G37*
G04 #@! TD.AperFunction*
G04 #@! TA.AperFunction,SMDPad,CuDef*
G36*
G01*
X4498000Y29198500D02*
X4498000Y28723500D01*
G75*
G02*
X4260500Y28486000I-237500J0D01*
G01*
X3685500Y28486000D01*
G75*
G02*
X3448000Y28723500I0J237500D01*
G01*
X3448000Y29198500D01*
G75*
G02*
X3685500Y29436000I237500J0D01*
G01*
X4260500Y29436000D01*
G75*
G02*
X4498000Y29198500I0J-237500D01*
G01*
G37*
G04 #@! TD.AperFunction*
G04 #@! TA.AperFunction,SMDPad,CuDef*
G36*
G01*
X6248000Y29198500D02*
X6248000Y28723500D01*
G75*
G02*
X6010500Y28486000I-237500J0D01*
G01*
X5435500Y28486000D01*
G75*
G02*
X5198000Y28723500I0J237500D01*
G01*
X5198000Y29198500D01*
G75*
G02*
X5435500Y29436000I237500J0D01*
G01*
X6010500Y29436000D01*
G75*
G02*
X6248000Y29198500I0J-237500D01*
G01*
G37*
G04 #@! TD.AperFunction*
G04 #@! TA.AperFunction,SMDPad,CuDef*
G36*
G01*
X44739999Y29560000D02*
X45640001Y29560000D01*
G75*
G02*
X45890000Y29310001I0J-249999D01*
G01*
X45890000Y28659999D01*
G75*
G02*
X45640001Y28410000I-249999J0D01*
G01*
X44739999Y28410000D01*
G75*
G02*
X44490000Y28659999I0J249999D01*
G01*
X44490000Y29310001D01*
G75*
G02*
X44739999Y29560000I249999J0D01*
G01*
G37*
G04 #@! TD.AperFunction*
G04 #@! TA.AperFunction,SMDPad,CuDef*
G36*
G01*
X44739999Y31610000D02*
X45640001Y31610000D01*
G75*
G02*
X45890000Y31360001I0J-249999D01*
G01*
X45890000Y30709999D01*
G75*
G02*
X45640001Y30460000I-249999J0D01*
G01*
X44739999Y30460000D01*
G75*
G02*
X44490000Y30709999I0J249999D01*
G01*
X44490000Y31360001D01*
G75*
G02*
X44739999Y31610000I249999J0D01*
G01*
G37*
G04 #@! TD.AperFunction*
G04 #@! TA.AperFunction,SMDPad,CuDef*
G36*
G01*
X46375000Y2987500D02*
X46375000Y3462500D01*
G75*
G02*
X46612500Y3700000I237500J0D01*
G01*
X47187500Y3700000D01*
G75*
G02*
X47425000Y3462500I0J-237500D01*
G01*
X47425000Y2987500D01*
G75*
G02*
X47187500Y2750000I-237500J0D01*
G01*
X46612500Y2750000D01*
G75*
G02*
X46375000Y2987500I0J237500D01*
G01*
G37*
G04 #@! TD.AperFunction*
G04 #@! TA.AperFunction,SMDPad,CuDef*
G36*
G01*
X44625000Y2987500D02*
X44625000Y3462500D01*
G75*
G02*
X44862500Y3700000I237500J0D01*
G01*
X45437500Y3700000D01*
G75*
G02*
X45675000Y3462500I0J-237500D01*
G01*
X45675000Y2987500D01*
G75*
G02*
X45437500Y2750000I-237500J0D01*
G01*
X44862500Y2750000D01*
G75*
G02*
X44625000Y2987500I0J237500D01*
G01*
G37*
G04 #@! TD.AperFunction*
D19*
X51294000Y28107000D03*
X47738000Y24424000D03*
X49643000Y26202000D03*
X52056000Y25059000D03*
X50532000Y23535000D03*
X48627000Y21630000D03*
X47611000Y19725000D03*
X44436000Y19344000D03*
X44436000Y24043000D03*
X41261000Y23154000D03*
X41261000Y20487000D03*
X38594000Y23154000D03*
X38594000Y20487000D03*
X35800000Y20487000D03*
X35800000Y23154000D03*
X33006000Y23154000D03*
X30339000Y20868000D03*
X32879000Y20487000D03*
D20*
X5220000Y2030000D03*
X29060000Y31240000D03*
D19*
X52310000Y29250000D03*
D20*
X36979000Y28072000D03*
X14500000Y31120000D03*
X6626000Y18801000D03*
X23644000Y25659000D03*
X11452000Y20071000D03*
X16151000Y29088000D03*
X13150000Y29900000D03*
X42857004Y5375000D03*
X32026000Y25278000D03*
X42821020Y29596000D03*
X29994000Y30104000D03*
X17421000Y19576010D03*
X27327000Y23500000D03*
X40356204Y9185120D03*
X26152979Y28717899D03*
X40266429Y10181095D03*
X25295000Y27310000D03*
X41551000Y10455990D03*
X26819000Y26802000D03*
X40154000Y11181000D03*
X27073000Y28326000D03*
X18310000Y21468000D03*
X17108480Y21920207D03*
X15914842Y22242795D03*
X15767128Y23231837D03*
X9387979Y23980707D03*
X16575719Y23820229D03*
X16052244Y24918747D03*
X9928000Y25786000D03*
X17052014Y24896736D03*
X9718000Y26896979D03*
X17683037Y25779073D03*
X4975000Y28072000D03*
X26805417Y20014029D03*
X22628000Y25278000D03*
X4847988Y30104000D03*
X21485000Y29088000D03*
X25828021Y19802600D03*
D21*
X31498718Y28787245D02*
X30273149Y27561676D01*
X31498718Y28941282D02*
X31498718Y28787245D01*
X28472314Y23250627D02*
X29415437Y24193750D01*
X29415437Y24193750D02*
X29415437Y25364705D01*
X29141778Y22116953D02*
X28472314Y22786417D01*
X28472314Y22786417D02*
X28472314Y23250627D01*
X29141778Y22116953D02*
X30806731Y20452000D01*
X30806731Y20452000D02*
X32788000Y20452000D01*
D22*
X32404215Y27430000D02*
X33465000Y27430000D01*
X31404520Y26430305D02*
X32404215Y27430000D01*
X38952800Y25836800D02*
X39988000Y26872000D01*
X39988000Y26872000D02*
X40048000Y26872000D01*
X33465000Y27430000D02*
X35058200Y25836800D01*
X35058200Y25836800D02*
X38952800Y25836800D01*
X34647000Y30122000D02*
X33465000Y28940000D01*
X32782844Y28940000D02*
X30838834Y26995990D01*
X33465000Y28940000D02*
X32782844Y28940000D01*
X38228000Y29526000D02*
X37632000Y30122000D01*
X38228000Y29272000D02*
X38228000Y29526000D01*
X37632000Y30122000D02*
X34647000Y30122000D01*
D21*
X45150000Y4375000D02*
X44150000Y5375000D01*
X45150000Y3225000D02*
X45150000Y4375000D01*
X13100000Y29950000D02*
X13150000Y29900000D01*
X14084000Y28966000D02*
X13150000Y29900000D01*
X14348000Y28966000D02*
X14084000Y28966000D01*
X13248000Y28966000D02*
X12595000Y28313000D01*
X14348000Y28966000D02*
X13248000Y28966000D01*
X12595000Y28313000D02*
X12595000Y19182000D01*
X44150000Y5375000D02*
X42857004Y5375000D01*
X31404520Y24379695D02*
X31400305Y24379695D01*
X31400305Y24379695D02*
X30756000Y25024000D01*
X30756000Y25024000D02*
X30502000Y25024000D01*
X30502000Y25024000D02*
X30248000Y24770000D01*
X30248000Y24404844D02*
X30838834Y23814010D01*
X30248000Y24770000D02*
X30248000Y24404844D01*
X32026000Y25001175D02*
X31404520Y24379695D01*
X32026000Y25278000D02*
X32026000Y25001175D01*
X30290439Y25741248D02*
X30290439Y24812439D01*
X29037999Y26993688D02*
X30290439Y25741248D01*
X30290439Y24812439D02*
X30248000Y24770000D01*
X29707464Y28127361D02*
X29037999Y27457896D01*
X29037999Y27457896D02*
X29037999Y26993688D01*
X45190000Y31035000D02*
X44260020Y31035000D01*
X44260020Y31035000D02*
X42821020Y29596000D01*
X30393999Y29704001D02*
X29994000Y30104000D01*
X29707464Y28127361D02*
X30393999Y28813896D01*
X30393999Y28813896D02*
X30393999Y29704001D01*
X17021001Y19176011D02*
X17421000Y19576010D01*
X12600989Y19176011D02*
X17021001Y19176011D01*
X12595000Y19182000D02*
X12600989Y19176011D01*
X10686212Y18234332D02*
X10686212Y7748212D01*
X10686212Y7748212D02*
X8861200Y5923200D01*
X12595000Y19182000D02*
X11633880Y19182000D01*
X11633880Y19182000D02*
X10686212Y18234332D01*
D22*
X27327000Y22800361D02*
X27327000Y23500000D01*
X28576093Y21551268D02*
X27327000Y22800361D01*
D21*
X46937500Y28985000D02*
X49040000Y31087500D01*
X45190000Y28985000D02*
X46937500Y28985000D01*
X49040000Y31087500D02*
X53987500Y31087500D01*
X53987500Y31087500D02*
X54000000Y31100000D01*
D22*
X44150000Y6655000D02*
X42886324Y6655000D01*
X42886324Y6655000D02*
X40356204Y9185120D01*
X25783021Y30390103D02*
X26152979Y30020145D01*
X26152979Y30020145D02*
X26152979Y28717899D01*
X25394112Y30390103D02*
X25783021Y30390103D01*
X24621180Y31163035D02*
X25394112Y30390103D01*
X16019000Y27686000D02*
X19496035Y31163035D01*
X14348000Y27686000D02*
X16019000Y27686000D01*
X19496035Y31163035D02*
X24621180Y31163035D01*
X40518911Y10181095D02*
X40266429Y10181095D01*
X42785006Y7915000D02*
X40518911Y10181095D01*
X44150000Y7915000D02*
X42785006Y7915000D01*
X25347891Y27362891D02*
X25295000Y27310000D01*
X24828427Y29824417D02*
X25347891Y29304953D01*
X25347891Y29304953D02*
X25347891Y27362891D01*
X23939820Y30713024D02*
X19682434Y30713024D01*
X16205400Y27235989D02*
X15407989Y27235989D01*
X15407989Y27235989D02*
X14598000Y26426000D01*
X19682434Y30713024D02*
X16205400Y27235989D01*
X24828427Y29824417D02*
X23939820Y30713024D01*
X14598000Y26426000D02*
X14348000Y26426000D01*
X44150000Y9185000D02*
X42821990Y9185000D01*
X42821990Y9185000D02*
X41551000Y10455990D01*
X27853999Y27836999D02*
X26819000Y26802000D01*
X27853999Y28536638D02*
X27853999Y27836999D01*
X28576093Y29258732D02*
X27853999Y28536638D01*
X44150000Y10465000D02*
X43250000Y10465000D01*
X43250000Y10465000D02*
X42534000Y11181000D01*
X42534000Y11181000D02*
X40154000Y11181000D01*
X27073000Y28887010D02*
X27073000Y28326000D01*
X28010407Y29824417D02*
X27073000Y28887010D01*
X45385000Y11735000D02*
X44150000Y11735000D01*
X54000000Y15100000D02*
X48750000Y15100000D01*
X48750000Y15100000D02*
X45385000Y11735000D01*
X45855000Y12995000D02*
X44150000Y12995000D01*
X54000000Y17100000D02*
X49960000Y17100000D01*
X49960000Y17100000D02*
X45855000Y12995000D01*
X54000000Y19100000D02*
X51250821Y19100000D01*
X46425821Y14275000D02*
X44150000Y14275000D01*
X51250821Y19100000D02*
X46425821Y14275000D01*
X50555000Y13100000D02*
X54000000Y13100000D01*
X50450000Y12995000D02*
X50555000Y13100000D01*
X53365000Y11735000D02*
X54000000Y11100000D01*
X50450000Y11735000D02*
X53365000Y11735000D01*
X52635000Y10465000D02*
X54000000Y9100000D01*
X50450000Y10465000D02*
X52635000Y10465000D01*
X51915000Y9185000D02*
X54000000Y7100000D01*
X50450000Y9185000D02*
X51915000Y9185000D01*
X51185000Y7915000D02*
X54000000Y5100000D01*
X50450000Y7915000D02*
X51185000Y7915000D01*
X52060000Y5040000D02*
X54000000Y3100000D01*
X52060000Y5470000D02*
X52060000Y5040000D01*
X50450000Y6655000D02*
X50875000Y6655000D01*
X50875000Y6655000D02*
X52060000Y5470000D01*
X50450000Y4650000D02*
X54000000Y1100000D01*
X50450000Y5375000D02*
X50450000Y4650000D01*
X19868834Y30263013D02*
X16391800Y26785978D01*
X23258460Y30263013D02*
X19868834Y30263013D01*
X14598000Y25156000D02*
X14348000Y25156000D01*
X16227978Y26785978D02*
X14598000Y25156000D01*
X16391800Y26785978D02*
X16227978Y26785978D01*
X24262741Y29258732D02*
X23258460Y30263013D01*
X22577101Y29813002D02*
X23697056Y28693047D01*
X15323001Y25244411D02*
X16414557Y26335967D01*
X20055234Y29813002D02*
X22577101Y29813002D01*
X16414557Y26335967D02*
X16578200Y26335967D01*
X15248000Y23876000D02*
X15323001Y23951001D01*
X15323001Y23951001D02*
X15323001Y25244411D01*
X14348000Y23876000D02*
X15248000Y23876000D01*
X16578200Y26335967D02*
X20055234Y29813002D01*
X17979401Y20801022D02*
X19941402Y18839021D01*
X37691378Y18839021D02*
X40505400Y16024999D01*
X45970405Y16024999D02*
X53045406Y23100000D01*
X40505400Y16024999D02*
X45970405Y16024999D01*
X19941402Y18839021D02*
X37691378Y18839021D01*
X14348000Y21346000D02*
X14892978Y20801022D01*
X53045406Y23100000D02*
X54000000Y23100000D01*
X14892978Y20801022D02*
X17979401Y20801022D01*
X54000000Y21100000D02*
X52614410Y21100000D01*
X37504978Y18389010D02*
X19755002Y18389010D01*
X47089399Y15574988D02*
X40319000Y15574988D01*
X14633011Y20351011D02*
X14348000Y20066000D01*
X17793001Y20351011D02*
X14633011Y20351011D01*
X40319000Y15574988D02*
X37504978Y18389010D01*
X52614410Y21100000D02*
X47089399Y15574988D01*
X19755002Y18389010D02*
X17793001Y20351011D01*
X4425044Y4025044D02*
X1500000Y1100000D01*
X4425044Y20865044D02*
X4425044Y4025044D01*
X8048000Y22606000D02*
X6166000Y22606000D01*
X6166000Y22606000D02*
X4425044Y20865044D01*
X3975033Y11575033D02*
X1500000Y9100000D01*
X3975033Y21810033D02*
X3975033Y11575033D01*
X5215000Y23050000D02*
X5129500Y22964500D01*
X5129500Y22964500D02*
X3975033Y21810033D01*
X6041000Y23876000D02*
X5129500Y22964500D01*
X8048000Y23876000D02*
X6041000Y23876000D01*
X3525022Y13125022D02*
X1500000Y11100000D01*
X3525022Y22304022D02*
X3525022Y13125022D01*
X8048000Y25156000D02*
X6377000Y25156000D01*
X6377000Y25156000D02*
X3525022Y22304022D01*
X3075011Y22994190D02*
X3075011Y16675011D01*
X8048000Y26426000D02*
X6506821Y26426000D01*
X3075011Y16675011D02*
X1500000Y15100000D01*
X6506821Y26426000D02*
X3075011Y22994190D01*
X2625000Y20225000D02*
X1500000Y19100000D01*
X8048000Y27686000D02*
X6749411Y27686000D01*
X2625000Y23561590D02*
X2625000Y20225000D01*
X6749411Y27686000D02*
X2625000Y23561590D01*
X3480509Y25100000D02*
X1500000Y25100000D01*
X8048000Y28966000D02*
X7346509Y28966000D01*
X7346509Y28966000D02*
X3480509Y25100000D01*
D23*
X46896000Y21996000D02*
X54000000Y29100000D01*
X46645000Y21996000D02*
X46896000Y21996000D01*
X46095000Y22546000D02*
X46645000Y21996000D01*
D22*
X46060000Y22511000D02*
X46095000Y22546000D01*
X44585000Y22511000D02*
X46060000Y22511000D01*
D23*
X46645000Y21546000D02*
X47082397Y21546000D01*
X47082397Y21546000D02*
X52636397Y27100000D01*
X46095000Y20996000D02*
X46645000Y21546000D01*
X52636397Y27100000D02*
X54000000Y27100000D01*
D22*
X46050000Y21041000D02*
X46095000Y20996000D01*
X44580000Y21041000D02*
X46050000Y21041000D01*
X22691126Y21111023D02*
X18666977Y21111023D01*
X23697056Y22116953D02*
X22691126Y21111023D01*
X18666977Y21111023D02*
X18310000Y21468000D01*
X18658001Y22193001D02*
X17381274Y22193001D01*
X19275623Y21575379D02*
X18658001Y22193001D01*
X22024110Y21575379D02*
X19275623Y21575379D01*
X17381274Y22193001D02*
X17108480Y21920207D01*
X23131370Y22682639D02*
X22024110Y21575379D01*
X16317264Y22645217D02*
X15914842Y22242795D01*
X22565685Y23248324D02*
X21962578Y22645217D01*
X21962578Y22645217D02*
X16317264Y22645217D01*
X21281218Y23095228D02*
X15903737Y23095228D01*
X15903737Y23095228D02*
X15767128Y23231837D01*
X22000000Y23814010D02*
X21281218Y23095228D01*
X8861200Y3383200D02*
X7761200Y3383200D01*
X6360978Y16760798D02*
X9387979Y19787799D01*
X9387979Y19787799D02*
X9387979Y23980707D01*
X7761200Y3383200D02*
X6360978Y4783422D01*
X6360978Y4783422D02*
X6360978Y16760798D01*
X16795546Y23600402D02*
X16575719Y23820229D01*
X21434314Y24379695D02*
X20655021Y23600402D01*
X20655021Y23600402D02*
X16795546Y23600402D01*
X22565685Y27561676D02*
X21801361Y28326000D01*
X21801361Y28326000D02*
X19204643Y28326000D01*
X16052244Y25173601D02*
X16052244Y24918747D01*
X19204643Y28326000D02*
X16052244Y25173601D01*
X7636199Y12228201D02*
X7636199Y16763199D01*
X8861200Y11003200D02*
X7636199Y12228201D01*
X10581999Y19708999D02*
X10581999Y25132001D01*
X7636199Y16763199D02*
X10581999Y19708999D01*
X10581999Y25132001D02*
X9928000Y25786000D01*
X21434314Y26430305D02*
X19900745Y24896736D01*
X19900745Y24896736D02*
X17052014Y24896736D01*
X9202999Y26381978D02*
X9718000Y26896979D01*
X10112989Y24528009D02*
X9202999Y25437999D01*
X7186188Y16949598D02*
X10112989Y19876399D01*
X10112989Y19876399D02*
X10112989Y24528009D01*
X9202999Y25437999D02*
X9202999Y26381978D01*
X7186188Y10138212D02*
X7186188Y16949598D01*
X8861200Y8463200D02*
X7186188Y10138212D01*
X22000000Y26995990D02*
X21177990Y27818000D01*
X19721964Y27818000D02*
X17683037Y25779073D01*
X21177990Y27818000D02*
X19721964Y27818000D01*
X3961000Y29100000D02*
X3973000Y29088000D01*
X1500000Y29100000D02*
X3961000Y29100000D01*
X1520000Y31120000D02*
X1500000Y31100000D01*
X3973000Y31120000D02*
X1520000Y31120000D01*
D23*
X29707464Y22682639D02*
X29954950Y22682639D01*
X31089089Y21548500D02*
X42322500Y21548500D01*
X29954950Y22682639D02*
X31089089Y21548500D01*
X42322500Y21548500D02*
X42830000Y21041000D01*
X42322500Y21998500D02*
X42835000Y22511000D01*
X30273149Y23000838D02*
X31275487Y21998500D01*
X31275487Y21998500D02*
X42322500Y21998500D01*
X30273149Y23248324D02*
X30273149Y23000838D01*
D22*
X4975000Y28213000D02*
X5723000Y28961000D01*
X4975000Y28072000D02*
X4975000Y28213000D01*
X27444722Y20038897D02*
X26830285Y20038897D01*
X26830285Y20038897D02*
X26805417Y20014029D01*
X25347891Y21505047D02*
X25347891Y22558109D01*
X24828427Y20985583D02*
X25347891Y21505047D01*
X25347891Y22558109D02*
X22628000Y25278000D01*
X5723000Y31120000D02*
X5723000Y30979012D01*
X5723000Y30979012D02*
X4847988Y30104000D01*
X22170731Y29088000D02*
X21485000Y29088000D01*
X23131370Y28127361D02*
X22170731Y29088000D01*
X25394112Y20038897D02*
X25394112Y20419897D01*
X25394112Y20419897D02*
X25828021Y19985988D01*
X41043000Y17150000D02*
X38903973Y19289027D01*
X26136073Y19289027D02*
X25394112Y20030988D01*
X25828021Y19985988D02*
X25828021Y19802600D01*
X38903973Y19289027D02*
X26136073Y19289027D01*
X25394112Y20030988D02*
X25394112Y20419897D01*
D24*
G36*
X6759928Y21746000D02*
G01*
X6759928Y20946000D01*
X6772188Y20821518D01*
X6807230Y20706000D01*
X6772188Y20590482D01*
X6759928Y20466000D01*
X6763000Y20351750D01*
X6921750Y20193000D01*
X7921000Y20193000D01*
X7921000Y20213000D01*
X8175000Y20213000D01*
X8175000Y20193000D01*
X8195000Y20193000D01*
X8195000Y19939000D01*
X8175000Y19939000D01*
X8175000Y19919000D01*
X7921000Y19919000D01*
X7921000Y19939000D01*
X6921750Y19939000D01*
X6763000Y19780250D01*
X6759928Y19666000D01*
X6772188Y19541518D01*
X6808498Y19421820D01*
X6867463Y19311506D01*
X6946815Y19214815D01*
X7043506Y19135463D01*
X7153820Y19076498D01*
X7273518Y19040188D01*
X7398000Y19027928D01*
X7554627Y19029249D01*
X5849976Y17324597D01*
X5820978Y17300799D01*
X5797180Y17271801D01*
X5797179Y17271800D01*
X5726004Y17185074D01*
X5655432Y17053044D01*
X5639650Y17001015D01*
X5611976Y16909784D01*
X5600979Y16798131D01*
X5597302Y16760798D01*
X5600979Y16723466D01*
X5600978Y4820744D01*
X5597302Y4783422D01*
X5600978Y4746100D01*
X5600978Y4746090D01*
X5611975Y4634437D01*
X5645531Y4523815D01*
X5655432Y4491176D01*
X5726004Y4359146D01*
X5760355Y4317290D01*
X5820977Y4243421D01*
X5849981Y4219618D01*
X7197401Y2872197D01*
X7221199Y2843199D01*
X7250197Y2819401D01*
X7336923Y2748226D01*
X7373128Y2728874D01*
X7373128Y2533200D01*
X7385388Y2408718D01*
X7421698Y2289020D01*
X7480663Y2178706D01*
X7560015Y2082015D01*
X7656706Y2002663D01*
X7767020Y1943698D01*
X7886718Y1907388D01*
X8011200Y1895128D01*
X9711200Y1895128D01*
X9835682Y1907388D01*
X9955380Y1943698D01*
X10065694Y2002663D01*
X10162385Y2082015D01*
X10241737Y2178706D01*
X10300702Y2289020D01*
X10337012Y2408718D01*
X10349272Y2533200D01*
X10349272Y4233200D01*
X10337012Y4357682D01*
X10300702Y4477380D01*
X10241737Y4587694D01*
X10162385Y4684385D01*
X10065694Y4763737D01*
X9955380Y4822702D01*
X9882820Y4844713D01*
X10014675Y4976568D01*
X10177190Y5219789D01*
X10289132Y5490042D01*
X10346200Y5776940D01*
X10346200Y6069460D01*
X10325873Y6171650D01*
X10538001Y6383777D01*
X10538001Y660000D01*
X2735680Y660000D01*
X2759658Y717887D01*
X2810000Y970976D01*
X2810000Y1229024D01*
X2792385Y1317583D01*
X4936047Y3461245D01*
X4965045Y3485043D01*
X4991376Y3517127D01*
X5060018Y3600767D01*
X5130590Y3732797D01*
X5153243Y3807476D01*
X5174047Y3876058D01*
X5185044Y3987711D01*
X5185044Y3987721D01*
X5188720Y4025044D01*
X5185044Y4062367D01*
X5185044Y20550243D01*
X6480802Y21846000D01*
X6769777Y21846000D01*
X6759928Y21746000D01*
G37*
X6759928Y21746000D02*
X6759928Y20946000D01*
X6772188Y20821518D01*
X6807230Y20706000D01*
X6772188Y20590482D01*
X6759928Y20466000D01*
X6763000Y20351750D01*
X6921750Y20193000D01*
X7921000Y20193000D01*
X7921000Y20213000D01*
X8175000Y20213000D01*
X8175000Y20193000D01*
X8195000Y20193000D01*
X8195000Y19939000D01*
X8175000Y19939000D01*
X8175000Y19919000D01*
X7921000Y19919000D01*
X7921000Y19939000D01*
X6921750Y19939000D01*
X6763000Y19780250D01*
X6759928Y19666000D01*
X6772188Y19541518D01*
X6808498Y19421820D01*
X6867463Y19311506D01*
X6946815Y19214815D01*
X7043506Y19135463D01*
X7153820Y19076498D01*
X7273518Y19040188D01*
X7398000Y19027928D01*
X7554627Y19029249D01*
X5849976Y17324597D01*
X5820978Y17300799D01*
X5797180Y17271801D01*
X5797179Y17271800D01*
X5726004Y17185074D01*
X5655432Y17053044D01*
X5639650Y17001015D01*
X5611976Y16909784D01*
X5600979Y16798131D01*
X5597302Y16760798D01*
X5600979Y16723466D01*
X5600978Y4820744D01*
X5597302Y4783422D01*
X5600978Y4746100D01*
X5600978Y4746090D01*
X5611975Y4634437D01*
X5645531Y4523815D01*
X5655432Y4491176D01*
X5726004Y4359146D01*
X5760355Y4317290D01*
X5820977Y4243421D01*
X5849981Y4219618D01*
X7197401Y2872197D01*
X7221199Y2843199D01*
X7250197Y2819401D01*
X7336923Y2748226D01*
X7373128Y2728874D01*
X7373128Y2533200D01*
X7385388Y2408718D01*
X7421698Y2289020D01*
X7480663Y2178706D01*
X7560015Y2082015D01*
X7656706Y2002663D01*
X7767020Y1943698D01*
X7886718Y1907388D01*
X8011200Y1895128D01*
X9711200Y1895128D01*
X9835682Y1907388D01*
X9955380Y1943698D01*
X10065694Y2002663D01*
X10162385Y2082015D01*
X10241737Y2178706D01*
X10300702Y2289020D01*
X10337012Y2408718D01*
X10349272Y2533200D01*
X10349272Y4233200D01*
X10337012Y4357682D01*
X10300702Y4477380D01*
X10241737Y4587694D01*
X10162385Y4684385D01*
X10065694Y4763737D01*
X9955380Y4822702D01*
X9882820Y4844713D01*
X10014675Y4976568D01*
X10177190Y5219789D01*
X10289132Y5490042D01*
X10346200Y5776940D01*
X10346200Y6069460D01*
X10325873Y6171650D01*
X10538001Y6383777D01*
X10538001Y660000D01*
X2735680Y660000D01*
X2759658Y717887D01*
X2810000Y970976D01*
X2810000Y1229024D01*
X2792385Y1317583D01*
X4936047Y3461245D01*
X4965045Y3485043D01*
X4991376Y3517127D01*
X5060018Y3600767D01*
X5130590Y3732797D01*
X5153243Y3807476D01*
X5174047Y3876058D01*
X5185044Y3987711D01*
X5185044Y3987721D01*
X5188720Y4025044D01*
X5185044Y4062367D01*
X5185044Y20550243D01*
X6480802Y21846000D01*
X6769777Y21846000D01*
X6759928Y21746000D01*
G36*
X39755201Y15063985D02*
G01*
X39778999Y15034987D01*
X39807997Y15011189D01*
X39894723Y14940014D01*
X39991993Y14888022D01*
X40026753Y14869442D01*
X40170014Y14825985D01*
X40281667Y14814988D01*
X40281676Y14814988D01*
X40318999Y14811312D01*
X40356322Y14814988D01*
X42878892Y14814988D01*
X42874188Y14799482D01*
X42861928Y14675000D01*
X42861928Y13875000D01*
X42874188Y13750518D01*
X42909230Y13635000D01*
X42874188Y13519482D01*
X42861928Y13395000D01*
X42861928Y12595000D01*
X42874188Y12470518D01*
X42906197Y12365000D01*
X42874188Y12259482D01*
X42861928Y12135000D01*
X42861928Y11867474D01*
X42826247Y11886546D01*
X42682986Y11930003D01*
X42571333Y11941000D01*
X42571322Y11941000D01*
X42534000Y11944676D01*
X42496678Y11941000D01*
X40857711Y11941000D01*
X40813774Y11984937D01*
X40644256Y12098205D01*
X40455898Y12176226D01*
X40255939Y12216000D01*
X40052061Y12216000D01*
X39852102Y12176226D01*
X39663744Y12098205D01*
X39494226Y11984937D01*
X39350063Y11840774D01*
X39236795Y11671256D01*
X39158774Y11482898D01*
X39119000Y11282939D01*
X39119000Y11079061D01*
X39158774Y10879102D01*
X39236795Y10690744D01*
X39311158Y10579452D01*
X39271203Y10482993D01*
X39231429Y10283034D01*
X39231429Y10079156D01*
X39271203Y9879197D01*
X39349224Y9690839D01*
X39408597Y9601980D01*
X39360978Y9487018D01*
X39321204Y9287059D01*
X39321204Y9083181D01*
X39360978Y8883222D01*
X39438999Y8694864D01*
X39552267Y8525346D01*
X39696430Y8381183D01*
X39865948Y8267915D01*
X40054306Y8189894D01*
X40254265Y8150120D01*
X40316403Y8150120D01*
X42251394Y6215128D01*
X42197230Y6178937D01*
X42053067Y6034774D01*
X41939799Y5865256D01*
X41861778Y5676898D01*
X41822004Y5476939D01*
X41822004Y5273061D01*
X41861778Y5073102D01*
X41939799Y4884744D01*
X42053067Y4715226D01*
X42197230Y4571063D01*
X42366748Y4457795D01*
X42555106Y4379774D01*
X42755065Y4340000D01*
X42958943Y4340000D01*
X43158902Y4379774D01*
X43219539Y4404891D01*
X43255820Y4385498D01*
X43375518Y4349188D01*
X43500000Y4336928D01*
X43971849Y4336928D01*
X44236064Y4072712D01*
X44134488Y3948942D01*
X44053577Y3797567D01*
X44003752Y3633316D01*
X43986928Y3462500D01*
X43986928Y2987500D01*
X44003752Y2816684D01*
X44053577Y2652433D01*
X44134488Y2501058D01*
X44243377Y2368377D01*
X44376058Y2259488D01*
X44527433Y2178577D01*
X44691684Y2128752D01*
X44862500Y2111928D01*
X45437500Y2111928D01*
X45608316Y2128752D01*
X45772567Y2178577D01*
X45923942Y2259488D01*
X45947839Y2279099D01*
X46020506Y2219463D01*
X46130820Y2160498D01*
X46250518Y2124188D01*
X46375000Y2111928D01*
X46614250Y2115000D01*
X46773000Y2273750D01*
X46773000Y3098000D01*
X47027000Y3098000D01*
X47027000Y2273750D01*
X47185750Y2115000D01*
X47425000Y2111928D01*
X47549482Y2124188D01*
X47669180Y2160498D01*
X47779494Y2219463D01*
X47876185Y2298815D01*
X47955537Y2395506D01*
X48014502Y2505820D01*
X48050812Y2625518D01*
X48063072Y2750000D01*
X48060000Y2939250D01*
X47901250Y3098000D01*
X47027000Y3098000D01*
X46773000Y3098000D01*
X46753000Y3098000D01*
X46753000Y3352000D01*
X46773000Y3352000D01*
X46773000Y4176250D01*
X47027000Y4176250D01*
X47027000Y3352000D01*
X47901250Y3352000D01*
X48060000Y3510750D01*
X48063072Y3700000D01*
X48050812Y3824482D01*
X48014502Y3944180D01*
X47955537Y4054494D01*
X47876185Y4151185D01*
X47779494Y4230537D01*
X47669180Y4289502D01*
X47549482Y4325812D01*
X47425000Y4338072D01*
X47185750Y4335000D01*
X47027000Y4176250D01*
X46773000Y4176250D01*
X46614250Y4335000D01*
X46375000Y4338072D01*
X46250518Y4325812D01*
X46130820Y4289502D01*
X46020506Y4230537D01*
X46010000Y4221915D01*
X46010000Y4332754D01*
X46014161Y4375000D01*
X45997556Y4543590D01*
X45948381Y4705701D01*
X45911849Y4774046D01*
X45868524Y4855102D01*
X45761054Y4986054D01*
X45728240Y5012984D01*
X45438072Y5303152D01*
X45438072Y5775000D01*
X45425812Y5899482D01*
X45390770Y6015000D01*
X45425812Y6130518D01*
X45438072Y6255000D01*
X45438072Y7055000D01*
X45425812Y7179482D01*
X45393803Y7285000D01*
X45425812Y7390518D01*
X45438072Y7515000D01*
X45438072Y8315000D01*
X45425812Y8439482D01*
X45392287Y8550000D01*
X45425812Y8660518D01*
X45438072Y8785000D01*
X45438072Y9585000D01*
X45425812Y9709482D01*
X45390770Y9825000D01*
X45425812Y9940518D01*
X45438072Y10065000D01*
X45438072Y10865000D01*
X45427191Y10975478D01*
X45533986Y10985997D01*
X45677247Y11029454D01*
X45809276Y11100026D01*
X45925001Y11194999D01*
X45948804Y11224003D01*
X49064802Y14340000D01*
X52932291Y14340000D01*
X52982456Y14264923D01*
X53147379Y14100000D01*
X52982456Y13935077D01*
X52932291Y13860000D01*
X51736595Y13860000D01*
X51738072Y13875000D01*
X51735000Y13989250D01*
X51576250Y14148000D01*
X50577000Y14148000D01*
X50577000Y14128000D01*
X50323000Y14128000D01*
X50323000Y14148000D01*
X49323750Y14148000D01*
X49165000Y13989250D01*
X49161928Y13875000D01*
X49174188Y13750518D01*
X49209230Y13635000D01*
X49174188Y13519482D01*
X49161928Y13395000D01*
X49161928Y12595000D01*
X49174188Y12470518D01*
X49206197Y12365000D01*
X49174188Y12259482D01*
X49161928Y12135000D01*
X49161928Y11335000D01*
X49174188Y11210518D01*
X49207713Y11100000D01*
X49174188Y10989482D01*
X49161928Y10865000D01*
X49161928Y10065000D01*
X49174188Y9940518D01*
X49209230Y9825000D01*
X49174188Y9709482D01*
X49161928Y9585000D01*
X49161928Y8785000D01*
X49174188Y8660518D01*
X49207713Y8550000D01*
X49174188Y8439482D01*
X49161928Y8315000D01*
X49161928Y7515000D01*
X49174188Y7390518D01*
X49206197Y7285000D01*
X49174188Y7179482D01*
X49161928Y7055000D01*
X49161928Y6255000D01*
X49174188Y6130518D01*
X49209230Y6015000D01*
X49174188Y5899482D01*
X49161928Y5775000D01*
X49161928Y4975000D01*
X49174188Y4850518D01*
X49210498Y4730820D01*
X49269463Y4620506D01*
X49348815Y4523815D01*
X49445506Y4444463D01*
X49555820Y4385498D01*
X49675518Y4349188D01*
X49753118Y4341545D01*
X49815026Y4225724D01*
X49886201Y4138998D01*
X49910000Y4109999D01*
X49938998Y4086201D01*
X52707615Y1317583D01*
X52690000Y1229024D01*
X52690000Y970976D01*
X52740342Y717887D01*
X52764320Y660000D01*
X41784922Y660000D01*
X41942998Y739356D01*
X42014785Y787322D01*
X42063132Y1111341D01*
X41043000Y2131473D01*
X40022868Y1111341D01*
X40071215Y787322D01*
X40295407Y660000D01*
X38020000Y660000D01*
X38020000Y2207168D01*
X39358439Y2207168D01*
X39382386Y1877697D01*
X39470149Y1559229D01*
X39618356Y1264002D01*
X39666322Y1192215D01*
X39990341Y1143868D01*
X41010473Y2164000D01*
X41075527Y2164000D01*
X42095659Y1143868D01*
X42419678Y1192215D01*
X42582811Y1479464D01*
X42686771Y1793020D01*
X42727561Y2120832D01*
X42703614Y2450303D01*
X42615851Y2768771D01*
X42467644Y3063998D01*
X42419678Y3135785D01*
X42095659Y3184132D01*
X41075527Y2164000D01*
X41010473Y2164000D01*
X39990341Y3184132D01*
X39666322Y3135785D01*
X39503189Y2848536D01*
X39399229Y2534980D01*
X39358439Y2207168D01*
X38020000Y2207168D01*
X38020000Y3216659D01*
X40022868Y3216659D01*
X41043000Y2196527D01*
X42063132Y3216659D01*
X42014785Y3540678D01*
X41727536Y3703811D01*
X41413980Y3807771D01*
X41086168Y3848561D01*
X40756697Y3824614D01*
X40438229Y3736851D01*
X40143002Y3588644D01*
X40071215Y3540678D01*
X40022868Y3216659D01*
X38020000Y3216659D01*
X38020000Y16799187D01*
X39755201Y15063985D01*
G37*
X39755201Y15063985D02*
X39778999Y15034987D01*
X39807997Y15011189D01*
X39894723Y14940014D01*
X39991993Y14888022D01*
X40026753Y14869442D01*
X40170014Y14825985D01*
X40281667Y14814988D01*
X40281676Y14814988D01*
X40318999Y14811312D01*
X40356322Y14814988D01*
X42878892Y14814988D01*
X42874188Y14799482D01*
X42861928Y14675000D01*
X42861928Y13875000D01*
X42874188Y13750518D01*
X42909230Y13635000D01*
X42874188Y13519482D01*
X42861928Y13395000D01*
X42861928Y12595000D01*
X42874188Y12470518D01*
X42906197Y12365000D01*
X42874188Y12259482D01*
X42861928Y12135000D01*
X42861928Y11867474D01*
X42826247Y11886546D01*
X42682986Y11930003D01*
X42571333Y11941000D01*
X42571322Y11941000D01*
X42534000Y11944676D01*
X42496678Y11941000D01*
X40857711Y11941000D01*
X40813774Y11984937D01*
X40644256Y12098205D01*
X40455898Y12176226D01*
X40255939Y12216000D01*
X40052061Y12216000D01*
X39852102Y12176226D01*
X39663744Y12098205D01*
X39494226Y11984937D01*
X39350063Y11840774D01*
X39236795Y11671256D01*
X39158774Y11482898D01*
X39119000Y11282939D01*
X39119000Y11079061D01*
X39158774Y10879102D01*
X39236795Y10690744D01*
X39311158Y10579452D01*
X39271203Y10482993D01*
X39231429Y10283034D01*
X39231429Y10079156D01*
X39271203Y9879197D01*
X39349224Y9690839D01*
X39408597Y9601980D01*
X39360978Y9487018D01*
X39321204Y9287059D01*
X39321204Y9083181D01*
X39360978Y8883222D01*
X39438999Y8694864D01*
X39552267Y8525346D01*
X39696430Y8381183D01*
X39865948Y8267915D01*
X40054306Y8189894D01*
X40254265Y8150120D01*
X40316403Y8150120D01*
X42251394Y6215128D01*
X42197230Y6178937D01*
X42053067Y6034774D01*
X41939799Y5865256D01*
X41861778Y5676898D01*
X41822004Y5476939D01*
X41822004Y5273061D01*
X41861778Y5073102D01*
X41939799Y4884744D01*
X42053067Y4715226D01*
X42197230Y4571063D01*
X42366748Y4457795D01*
X42555106Y4379774D01*
X42755065Y4340000D01*
X42958943Y4340000D01*
X43158902Y4379774D01*
X43219539Y4404891D01*
X43255820Y4385498D01*
X43375518Y4349188D01*
X43500000Y4336928D01*
X43971849Y4336928D01*
X44236064Y4072712D01*
X44134488Y3948942D01*
X44053577Y3797567D01*
X44003752Y3633316D01*
X43986928Y3462500D01*
X43986928Y2987500D01*
X44003752Y2816684D01*
X44053577Y2652433D01*
X44134488Y2501058D01*
X44243377Y2368377D01*
X44376058Y2259488D01*
X44527433Y2178577D01*
X44691684Y2128752D01*
X44862500Y2111928D01*
X45437500Y2111928D01*
X45608316Y2128752D01*
X45772567Y2178577D01*
X45923942Y2259488D01*
X45947839Y2279099D01*
X46020506Y2219463D01*
X46130820Y2160498D01*
X46250518Y2124188D01*
X46375000Y2111928D01*
X46614250Y2115000D01*
X46773000Y2273750D01*
X46773000Y3098000D01*
X47027000Y3098000D01*
X47027000Y2273750D01*
X47185750Y2115000D01*
X47425000Y2111928D01*
X47549482Y2124188D01*
X47669180Y2160498D01*
X47779494Y2219463D01*
X47876185Y2298815D01*
X47955537Y2395506D01*
X48014502Y2505820D01*
X48050812Y2625518D01*
X48063072Y2750000D01*
X48060000Y2939250D01*
X47901250Y3098000D01*
X47027000Y3098000D01*
X46773000Y3098000D01*
X46753000Y3098000D01*
X46753000Y3352000D01*
X46773000Y3352000D01*
X46773000Y4176250D01*
X47027000Y4176250D01*
X47027000Y3352000D01*
X47901250Y3352000D01*
X48060000Y3510750D01*
X48063072Y3700000D01*
X48050812Y3824482D01*
X48014502Y3944180D01*
X47955537Y4054494D01*
X47876185Y4151185D01*
X47779494Y4230537D01*
X47669180Y4289502D01*
X47549482Y4325812D01*
X47425000Y4338072D01*
X47185750Y4335000D01*
X47027000Y4176250D01*
X46773000Y4176250D01*
X46614250Y4335000D01*
X46375000Y4338072D01*
X46250518Y4325812D01*
X46130820Y4289502D01*
X46020506Y4230537D01*
X46010000Y4221915D01*
X46010000Y4332754D01*
X46014161Y4375000D01*
X45997556Y4543590D01*
X45948381Y4705701D01*
X45911849Y4774046D01*
X45868524Y4855102D01*
X45761054Y4986054D01*
X45728240Y5012984D01*
X45438072Y5303152D01*
X45438072Y5775000D01*
X45425812Y5899482D01*
X45390770Y6015000D01*
X45425812Y6130518D01*
X45438072Y6255000D01*
X45438072Y7055000D01*
X45425812Y7179482D01*
X45393803Y7285000D01*
X45425812Y7390518D01*
X45438072Y7515000D01*
X45438072Y8315000D01*
X45425812Y8439482D01*
X45392287Y8550000D01*
X45425812Y8660518D01*
X45438072Y8785000D01*
X45438072Y9585000D01*
X45425812Y9709482D01*
X45390770Y9825000D01*
X45425812Y9940518D01*
X45438072Y10065000D01*
X45438072Y10865000D01*
X45427191Y10975478D01*
X45533986Y10985997D01*
X45677247Y11029454D01*
X45809276Y11100026D01*
X45925001Y11194999D01*
X45948804Y11224003D01*
X49064802Y14340000D01*
X52932291Y14340000D01*
X52982456Y14264923D01*
X53147379Y14100000D01*
X52982456Y13935077D01*
X52932291Y13860000D01*
X51736595Y13860000D01*
X51738072Y13875000D01*
X51735000Y13989250D01*
X51576250Y14148000D01*
X50577000Y14148000D01*
X50577000Y14128000D01*
X50323000Y14128000D01*
X50323000Y14148000D01*
X49323750Y14148000D01*
X49165000Y13989250D01*
X49161928Y13875000D01*
X49174188Y13750518D01*
X49209230Y13635000D01*
X49174188Y13519482D01*
X49161928Y13395000D01*
X49161928Y12595000D01*
X49174188Y12470518D01*
X49206197Y12365000D01*
X49174188Y12259482D01*
X49161928Y12135000D01*
X49161928Y11335000D01*
X49174188Y11210518D01*
X49207713Y11100000D01*
X49174188Y10989482D01*
X49161928Y10865000D01*
X49161928Y10065000D01*
X49174188Y9940518D01*
X49209230Y9825000D01*
X49174188Y9709482D01*
X49161928Y9585000D01*
X49161928Y8785000D01*
X49174188Y8660518D01*
X49207713Y8550000D01*
X49174188Y8439482D01*
X49161928Y8315000D01*
X49161928Y7515000D01*
X49174188Y7390518D01*
X49206197Y7285000D01*
X49174188Y7179482D01*
X49161928Y7055000D01*
X49161928Y6255000D01*
X49174188Y6130518D01*
X49209230Y6015000D01*
X49174188Y5899482D01*
X49161928Y5775000D01*
X49161928Y4975000D01*
X49174188Y4850518D01*
X49210498Y4730820D01*
X49269463Y4620506D01*
X49348815Y4523815D01*
X49445506Y4444463D01*
X49555820Y4385498D01*
X49675518Y4349188D01*
X49753118Y4341545D01*
X49815026Y4225724D01*
X49886201Y4138998D01*
X49910000Y4109999D01*
X49938998Y4086201D01*
X52707615Y1317583D01*
X52690000Y1229024D01*
X52690000Y970976D01*
X52740342Y717887D01*
X52764320Y660000D01*
X41784922Y660000D01*
X41942998Y739356D01*
X42014785Y787322D01*
X42063132Y1111341D01*
X41043000Y2131473D01*
X40022868Y1111341D01*
X40071215Y787322D01*
X40295407Y660000D01*
X38020000Y660000D01*
X38020000Y2207168D01*
X39358439Y2207168D01*
X39382386Y1877697D01*
X39470149Y1559229D01*
X39618356Y1264002D01*
X39666322Y1192215D01*
X39990341Y1143868D01*
X41010473Y2164000D01*
X41075527Y2164000D01*
X42095659Y1143868D01*
X42419678Y1192215D01*
X42582811Y1479464D01*
X42686771Y1793020D01*
X42727561Y2120832D01*
X42703614Y2450303D01*
X42615851Y2768771D01*
X42467644Y3063998D01*
X42419678Y3135785D01*
X42095659Y3184132D01*
X41075527Y2164000D01*
X41010473Y2164000D01*
X39990341Y3184132D01*
X39666322Y3135785D01*
X39503189Y2848536D01*
X39399229Y2534980D01*
X39358439Y2207168D01*
X38020000Y2207168D01*
X38020000Y3216659D01*
X40022868Y3216659D01*
X41043000Y2196527D01*
X42063132Y3216659D01*
X42014785Y3540678D01*
X41727536Y3703811D01*
X41413980Y3807771D01*
X41086168Y3848561D01*
X40756697Y3824614D01*
X40438229Y3736851D01*
X40143002Y3588644D01*
X40071215Y3540678D01*
X40022868Y3216659D01*
X38020000Y3216659D01*
X38020000Y16799187D01*
X39755201Y15063985D01*
G36*
X8988200Y16210200D02*
G01*
X9008200Y16210200D01*
X9008200Y15956200D01*
X8988200Y15956200D01*
X8988200Y15936200D01*
X8734200Y15936200D01*
X8734200Y15956200D01*
X8714200Y15956200D01*
X8714200Y16210200D01*
X8734200Y16210200D01*
X8734200Y16230200D01*
X8988200Y16230200D01*
X8988200Y16210200D01*
G37*
X8988200Y16210200D02*
X9008200Y16210200D01*
X9008200Y15956200D01*
X8988200Y15956200D01*
X8988200Y15936200D01*
X8734200Y15936200D01*
X8734200Y15956200D01*
X8714200Y15956200D01*
X8714200Y16210200D01*
X8734200Y16210200D01*
X8734200Y16230200D01*
X8988200Y16230200D01*
X8988200Y16210200D01*
G36*
X52982456Y26264923D02*
G01*
X53154060Y26093319D01*
X53021697Y25971227D01*
X52870527Y25763629D01*
X52762762Y25530528D01*
X52732090Y25429400D01*
X52855776Y25227000D01*
X53873000Y25227000D01*
X53873000Y25247000D01*
X54127000Y25247000D01*
X54127000Y25227000D01*
X54147000Y25227000D01*
X54147000Y24973000D01*
X54127000Y24973000D01*
X54127000Y24953000D01*
X53873000Y24953000D01*
X53873000Y24973000D01*
X52855776Y24973000D01*
X52732090Y24770600D01*
X52762762Y24669472D01*
X52870527Y24436371D01*
X53021697Y24228773D01*
X53154060Y24106681D01*
X52982456Y23935077D01*
X52926953Y23852010D01*
X52896420Y23849003D01*
X52753159Y23805546D01*
X52621130Y23734974D01*
X52505405Y23640001D01*
X52481607Y23611003D01*
X45655604Y16784999D01*
X42339834Y16784999D01*
X42422853Y16985426D01*
X42478000Y17262665D01*
X42478000Y17545335D01*
X42422853Y17822574D01*
X42314680Y18083727D01*
X42157637Y18318759D01*
X41957759Y18518637D01*
X41722727Y18675680D01*
X41613315Y18721000D01*
X44981928Y18721000D01*
X44994188Y18596518D01*
X45030498Y18476820D01*
X45089463Y18366506D01*
X45168815Y18269815D01*
X45265506Y18190463D01*
X45375820Y18131498D01*
X45495518Y18095188D01*
X45620000Y18082928D01*
X45809250Y18086000D01*
X45968000Y18244750D01*
X45968000Y19119000D01*
X46222000Y19119000D01*
X46222000Y18244750D01*
X46380750Y18086000D01*
X46570000Y18082928D01*
X46694482Y18095188D01*
X46814180Y18131498D01*
X46924494Y18190463D01*
X47021185Y18269815D01*
X47100537Y18366506D01*
X47159502Y18476820D01*
X47195812Y18596518D01*
X47208072Y18721000D01*
X47205000Y18960250D01*
X47046250Y19119000D01*
X46222000Y19119000D01*
X45968000Y19119000D01*
X45143750Y19119000D01*
X44985000Y18960250D01*
X44981928Y18721000D01*
X41613315Y18721000D01*
X41461574Y18783853D01*
X41184335Y18839000D01*
X40901665Y18839000D01*
X40624426Y18783853D01*
X40525093Y18742708D01*
X39467777Y19800024D01*
X39443974Y19829028D01*
X39328249Y19924001D01*
X39196220Y19994573D01*
X39052959Y20038030D01*
X38941306Y20049027D01*
X38941295Y20049027D01*
X38903973Y20052703D01*
X38866651Y20049027D01*
X29107592Y20049027D01*
X29221732Y20163167D01*
X29301084Y20259858D01*
X29301339Y20260335D01*
X29301818Y20260591D01*
X29398509Y20339943D01*
X29787418Y20728852D01*
X29866770Y20825543D01*
X29867330Y20826591D01*
X29954420Y20900199D01*
X29954420Y21030419D01*
X29962045Y21055555D01*
X29974305Y21180037D01*
X29962901Y21295831D01*
X30078695Y21284427D01*
X30203177Y21296687D01*
X30228310Y21304311D01*
X30293831Y21304311D01*
X30543835Y21054307D01*
X30566851Y21026262D01*
X30659768Y20950007D01*
X30678769Y20934413D01*
X30806455Y20866163D01*
X30945004Y20824135D01*
X31089089Y20809944D01*
X31125194Y20813500D01*
X41666928Y20813500D01*
X41666928Y20803500D01*
X41683752Y20632684D01*
X41733577Y20468433D01*
X41814488Y20317058D01*
X41923377Y20184377D01*
X42056058Y20075488D01*
X42207433Y19994577D01*
X42371684Y19944752D01*
X42542500Y19927928D01*
X43117500Y19927928D01*
X43288316Y19944752D01*
X43452567Y19994577D01*
X43603942Y20075488D01*
X43705000Y20158425D01*
X43806058Y20075488D01*
X43957433Y19994577D01*
X44121684Y19944752D01*
X44292500Y19927928D01*
X44867500Y19927928D01*
X45008235Y19941789D01*
X44994188Y19895482D01*
X44981928Y19771000D01*
X44985000Y19531750D01*
X45143750Y19373000D01*
X45968000Y19373000D01*
X45968000Y19393000D01*
X46222000Y19393000D01*
X46222000Y19373000D01*
X47046250Y19373000D01*
X47205000Y19531750D01*
X47208072Y19771000D01*
X47195812Y19895482D01*
X47159502Y20015180D01*
X47100537Y20125494D01*
X47040901Y20198161D01*
X47060512Y20222058D01*
X47141423Y20373433D01*
X47191248Y20537684D01*
X47208072Y20708500D01*
X47208072Y20819822D01*
X47226482Y20821635D01*
X47365030Y20863663D01*
X47492717Y20931913D01*
X47604635Y21023762D01*
X47627656Y21051813D01*
X52925704Y26349860D01*
X52982456Y26264923D01*
G37*
X52982456Y26264923D02*
X53154060Y26093319D01*
X53021697Y25971227D01*
X52870527Y25763629D01*
X52762762Y25530528D01*
X52732090Y25429400D01*
X52855776Y25227000D01*
X53873000Y25227000D01*
X53873000Y25247000D01*
X54127000Y25247000D01*
X54127000Y25227000D01*
X54147000Y25227000D01*
X54147000Y24973000D01*
X54127000Y24973000D01*
X54127000Y24953000D01*
X53873000Y24953000D01*
X53873000Y24973000D01*
X52855776Y24973000D01*
X52732090Y24770600D01*
X52762762Y24669472D01*
X52870527Y24436371D01*
X53021697Y24228773D01*
X53154060Y24106681D01*
X52982456Y23935077D01*
X52926953Y23852010D01*
X52896420Y23849003D01*
X52753159Y23805546D01*
X52621130Y23734974D01*
X52505405Y23640001D01*
X52481607Y23611003D01*
X45655604Y16784999D01*
X42339834Y16784999D01*
X42422853Y16985426D01*
X42478000Y17262665D01*
X42478000Y17545335D01*
X42422853Y17822574D01*
X42314680Y18083727D01*
X42157637Y18318759D01*
X41957759Y18518637D01*
X41722727Y18675680D01*
X41613315Y18721000D01*
X44981928Y18721000D01*
X44994188Y18596518D01*
X45030498Y18476820D01*
X45089463Y18366506D01*
X45168815Y18269815D01*
X45265506Y18190463D01*
X45375820Y18131498D01*
X45495518Y18095188D01*
X45620000Y18082928D01*
X45809250Y18086000D01*
X45968000Y18244750D01*
X45968000Y19119000D01*
X46222000Y19119000D01*
X46222000Y18244750D01*
X46380750Y18086000D01*
X46570000Y18082928D01*
X46694482Y18095188D01*
X46814180Y18131498D01*
X46924494Y18190463D01*
X47021185Y18269815D01*
X47100537Y18366506D01*
X47159502Y18476820D01*
X47195812Y18596518D01*
X47208072Y18721000D01*
X47205000Y18960250D01*
X47046250Y19119000D01*
X46222000Y19119000D01*
X45968000Y19119000D01*
X45143750Y19119000D01*
X44985000Y18960250D01*
X44981928Y18721000D01*
X41613315Y18721000D01*
X41461574Y18783853D01*
X41184335Y18839000D01*
X40901665Y18839000D01*
X40624426Y18783853D01*
X40525093Y18742708D01*
X39467777Y19800024D01*
X39443974Y19829028D01*
X39328249Y19924001D01*
X39196220Y19994573D01*
X39052959Y20038030D01*
X38941306Y20049027D01*
X38941295Y20049027D01*
X38903973Y20052703D01*
X38866651Y20049027D01*
X29107592Y20049027D01*
X29221732Y20163167D01*
X29301084Y20259858D01*
X29301339Y20260335D01*
X29301818Y20260591D01*
X29398509Y20339943D01*
X29787418Y20728852D01*
X29866770Y20825543D01*
X29867330Y20826591D01*
X29954420Y20900199D01*
X29954420Y21030419D01*
X29962045Y21055555D01*
X29974305Y21180037D01*
X29962901Y21295831D01*
X30078695Y21284427D01*
X30203177Y21296687D01*
X30228310Y21304311D01*
X30293831Y21304311D01*
X30543835Y21054307D01*
X30566851Y21026262D01*
X30659768Y20950007D01*
X30678769Y20934413D01*
X30806455Y20866163D01*
X30945004Y20824135D01*
X31089089Y20809944D01*
X31125194Y20813500D01*
X41666928Y20813500D01*
X41666928Y20803500D01*
X41683752Y20632684D01*
X41733577Y20468433D01*
X41814488Y20317058D01*
X41923377Y20184377D01*
X42056058Y20075488D01*
X42207433Y19994577D01*
X42371684Y19944752D01*
X42542500Y19927928D01*
X43117500Y19927928D01*
X43288316Y19944752D01*
X43452567Y19994577D01*
X43603942Y20075488D01*
X43705000Y20158425D01*
X43806058Y20075488D01*
X43957433Y19994577D01*
X44121684Y19944752D01*
X44292500Y19927928D01*
X44867500Y19927928D01*
X45008235Y19941789D01*
X44994188Y19895482D01*
X44981928Y19771000D01*
X44985000Y19531750D01*
X45143750Y19373000D01*
X45968000Y19373000D01*
X45968000Y19393000D01*
X46222000Y19393000D01*
X46222000Y19373000D01*
X47046250Y19373000D01*
X47205000Y19531750D01*
X47208072Y19771000D01*
X47195812Y19895482D01*
X47159502Y20015180D01*
X47100537Y20125494D01*
X47040901Y20198161D01*
X47060512Y20222058D01*
X47141423Y20373433D01*
X47191248Y20537684D01*
X47208072Y20708500D01*
X47208072Y20819822D01*
X47226482Y20821635D01*
X47365030Y20863663D01*
X47492717Y20931913D01*
X47604635Y21023762D01*
X47627656Y21051813D01*
X52925704Y26349860D01*
X52982456Y26264923D01*
G36*
X15704199Y28446000D02*
G01*
X15624253Y28446000D01*
X15636072Y28566000D01*
X15636072Y29366000D01*
X15623812Y29490482D01*
X15587502Y29610180D01*
X15528537Y29720494D01*
X15449185Y29817185D01*
X15352494Y29896537D01*
X15242180Y29955502D01*
X15122482Y29991812D01*
X14998000Y30004072D01*
X14262151Y30004072D01*
X14165314Y30100909D01*
X14145226Y30201898D01*
X14067205Y30390256D01*
X13953937Y30559774D01*
X13809774Y30703937D01*
X13640256Y30817205D01*
X13451898Y30895226D01*
X13251939Y30935000D01*
X13048061Y30935000D01*
X12848102Y30895226D01*
X12659744Y30817205D01*
X12490226Y30703937D01*
X12346063Y30559774D01*
X12232795Y30390256D01*
X12154774Y30201898D01*
X12115000Y30001939D01*
X12115000Y29798061D01*
X12154774Y29598102D01*
X12232795Y29409744D01*
X12330017Y29264240D01*
X12016765Y28950988D01*
X11983946Y28924054D01*
X11876476Y28793101D01*
X11796619Y28643699D01*
X11768693Y28551637D01*
X11747444Y28481589D01*
X11746794Y28474986D01*
X11735000Y28355245D01*
X11735000Y28355239D01*
X11730840Y28313000D01*
X11735000Y28270761D01*
X11735001Y20042000D01*
X11676119Y20042000D01*
X11633880Y20046160D01*
X11591641Y20042000D01*
X11591634Y20042000D01*
X11480855Y20031089D01*
X11465290Y20029556D01*
X11444733Y20023320D01*
X11341999Y19992156D01*
X11341999Y25094679D01*
X11345675Y25132002D01*
X11341999Y25169325D01*
X11341999Y25169334D01*
X11331002Y25280987D01*
X11287545Y25424248D01*
X11216973Y25556277D01*
X11122000Y25672002D01*
X11093001Y25695801D01*
X10963000Y25825802D01*
X10963000Y25887939D01*
X10923226Y26087898D01*
X10845205Y26276256D01*
X10731937Y26445774D01*
X10674975Y26502736D01*
X10713226Y26595081D01*
X10753000Y26795040D01*
X10753000Y26998918D01*
X10713226Y27198877D01*
X10635205Y27387235D01*
X10521937Y27556753D01*
X10377774Y27700916D01*
X10208256Y27814184D01*
X10019898Y27892205D01*
X9819939Y27931979D01*
X9616061Y27931979D01*
X9416102Y27892205D01*
X9336072Y27859055D01*
X9336072Y28086000D01*
X9323812Y28210482D01*
X9288770Y28326000D01*
X9323812Y28441518D01*
X9336072Y28566000D01*
X9336072Y29366000D01*
X9323812Y29490482D01*
X9287502Y29610180D01*
X9228537Y29720494D01*
X9149185Y29817185D01*
X9052494Y29896537D01*
X8942180Y29955502D01*
X8822482Y29991812D01*
X8698000Y30004072D01*
X7398000Y30004072D01*
X7273518Y29991812D01*
X7153820Y29955502D01*
X7043506Y29896537D01*
X6946815Y29817185D01*
X6867463Y29720494D01*
X6808498Y29610180D01*
X6797627Y29574344D01*
X6738512Y29684942D01*
X6629623Y29817623D01*
X6496942Y29926512D01*
X6345567Y30007423D01*
X6236527Y30040500D01*
X6345567Y30073577D01*
X6496942Y30154488D01*
X6629623Y30263377D01*
X6738512Y30396058D01*
X6819423Y30547433D01*
X6869248Y30711684D01*
X6886072Y30882500D01*
X6886072Y31357500D01*
X6869248Y31528316D01*
X6865704Y31540000D01*
X18798198Y31540000D01*
X15704199Y28446000D01*
G37*
X15704199Y28446000D02*
X15624253Y28446000D01*
X15636072Y28566000D01*
X15636072Y29366000D01*
X15623812Y29490482D01*
X15587502Y29610180D01*
X15528537Y29720494D01*
X15449185Y29817185D01*
X15352494Y29896537D01*
X15242180Y29955502D01*
X15122482Y29991812D01*
X14998000Y30004072D01*
X14262151Y30004072D01*
X14165314Y30100909D01*
X14145226Y30201898D01*
X14067205Y30390256D01*
X13953937Y30559774D01*
X13809774Y30703937D01*
X13640256Y30817205D01*
X13451898Y30895226D01*
X13251939Y30935000D01*
X13048061Y30935000D01*
X12848102Y30895226D01*
X12659744Y30817205D01*
X12490226Y30703937D01*
X12346063Y30559774D01*
X12232795Y30390256D01*
X12154774Y30201898D01*
X12115000Y30001939D01*
X12115000Y29798061D01*
X12154774Y29598102D01*
X12232795Y29409744D01*
X12330017Y29264240D01*
X12016765Y28950988D01*
X11983946Y28924054D01*
X11876476Y28793101D01*
X11796619Y28643699D01*
X11768693Y28551637D01*
X11747444Y28481589D01*
X11746794Y28474986D01*
X11735000Y28355245D01*
X11735000Y28355239D01*
X11730840Y28313000D01*
X11735000Y28270761D01*
X11735001Y20042000D01*
X11676119Y20042000D01*
X11633880Y20046160D01*
X11591641Y20042000D01*
X11591634Y20042000D01*
X11480855Y20031089D01*
X11465290Y20029556D01*
X11444733Y20023320D01*
X11341999Y19992156D01*
X11341999Y25094679D01*
X11345675Y25132002D01*
X11341999Y25169325D01*
X11341999Y25169334D01*
X11331002Y25280987D01*
X11287545Y25424248D01*
X11216973Y25556277D01*
X11122000Y25672002D01*
X11093001Y25695801D01*
X10963000Y25825802D01*
X10963000Y25887939D01*
X10923226Y26087898D01*
X10845205Y26276256D01*
X10731937Y26445774D01*
X10674975Y26502736D01*
X10713226Y26595081D01*
X10753000Y26795040D01*
X10753000Y26998918D01*
X10713226Y27198877D01*
X10635205Y27387235D01*
X10521937Y27556753D01*
X10377774Y27700916D01*
X10208256Y27814184D01*
X10019898Y27892205D01*
X9819939Y27931979D01*
X9616061Y27931979D01*
X9416102Y27892205D01*
X9336072Y27859055D01*
X9336072Y28086000D01*
X9323812Y28210482D01*
X9288770Y28326000D01*
X9323812Y28441518D01*
X9336072Y28566000D01*
X9336072Y29366000D01*
X9323812Y29490482D01*
X9287502Y29610180D01*
X9228537Y29720494D01*
X9149185Y29817185D01*
X9052494Y29896537D01*
X8942180Y29955502D01*
X8822482Y29991812D01*
X8698000Y30004072D01*
X7398000Y30004072D01*
X7273518Y29991812D01*
X7153820Y29955502D01*
X7043506Y29896537D01*
X6946815Y29817185D01*
X6867463Y29720494D01*
X6808498Y29610180D01*
X6797627Y29574344D01*
X6738512Y29684942D01*
X6629623Y29817623D01*
X6496942Y29926512D01*
X6345567Y30007423D01*
X6236527Y30040500D01*
X6345567Y30073577D01*
X6496942Y30154488D01*
X6629623Y30263377D01*
X6738512Y30396058D01*
X6819423Y30547433D01*
X6869248Y30711684D01*
X6886072Y30882500D01*
X6886072Y31357500D01*
X6869248Y31528316D01*
X6865704Y31540000D01*
X18798198Y31540000D01*
X15704199Y28446000D01*
G36*
X24260000Y27208061D02*
G01*
X24299774Y27008102D01*
X24377795Y26819744D01*
X24491063Y26650226D01*
X24635226Y26506063D01*
X24804744Y26392795D01*
X24993102Y26314774D01*
X25193061Y26275000D01*
X25396939Y26275000D01*
X25596898Y26314774D01*
X25785256Y26392795D01*
X25850237Y26436214D01*
X25901795Y26311744D01*
X26015063Y26142226D01*
X26159226Y25998063D01*
X26328744Y25884795D01*
X26517102Y25806774D01*
X26717061Y25767000D01*
X26920939Y25767000D01*
X27120898Y25806774D01*
X27309256Y25884795D01*
X27478774Y25998063D01*
X27622937Y26142226D01*
X27736205Y26311744D01*
X27814226Y26500102D01*
X27854000Y26700061D01*
X27854000Y26762199D01*
X28177999Y27086197D01*
X28177999Y27035927D01*
X28173839Y26993688D01*
X28177999Y26951449D01*
X28177999Y26951442D01*
X28190443Y26825099D01*
X28239618Y26662988D01*
X28319475Y26513586D01*
X28426946Y26382634D01*
X28459759Y26355705D01*
X29430439Y25385024D01*
X29430440Y25037472D01*
X29419429Y25001174D01*
X29404214Y24951015D01*
X29400444Y24938588D01*
X29388000Y24812245D01*
X29388000Y24812239D01*
X29383840Y24770000D01*
X29388000Y24727761D01*
X29388000Y24447083D01*
X29383840Y24404844D01*
X29384924Y24393840D01*
X29061824Y24070740D01*
X28982472Y23974049D01*
X28982217Y23973571D01*
X28981739Y23973316D01*
X28885048Y23893964D01*
X28496139Y23505055D01*
X28416787Y23408364D01*
X28416226Y23407315D01*
X28353254Y23354091D01*
X28362000Y23398061D01*
X28362000Y23601939D01*
X28322226Y23801898D01*
X28244205Y23990256D01*
X28130937Y24159774D01*
X27986774Y24303937D01*
X27817256Y24417205D01*
X27628898Y24495226D01*
X27428939Y24535000D01*
X27225061Y24535000D01*
X27025102Y24495226D01*
X26836744Y24417205D01*
X26667226Y24303937D01*
X26523063Y24159774D01*
X26409795Y23990256D01*
X26331774Y23801898D01*
X26292000Y23601939D01*
X26292000Y23398061D01*
X26331774Y23198102D01*
X26409795Y23009744D01*
X26523063Y22840226D01*
X26563367Y22799922D01*
X26567000Y22763039D01*
X26567000Y22763029D01*
X26577997Y22651376D01*
X26617625Y22520738D01*
X26621454Y22508115D01*
X26692026Y22376085D01*
X26721641Y22340000D01*
X26786999Y22260360D01*
X26816003Y22236557D01*
X27021821Y22030738D01*
X26799082Y21807999D01*
X26719730Y21711308D01*
X26719474Y21710829D01*
X26718997Y21710574D01*
X26622306Y21631222D01*
X26419417Y21428333D01*
X26216528Y21631222D01*
X26119837Y21710574D01*
X26119360Y21710829D01*
X26119104Y21711308D01*
X26107891Y21724971D01*
X26107891Y22520784D01*
X26111567Y22558109D01*
X26107891Y22595434D01*
X26107891Y22595442D01*
X26096894Y22707095D01*
X26053437Y22850356D01*
X25982865Y22982385D01*
X25887892Y23098110D01*
X25858894Y23121908D01*
X23663000Y25317801D01*
X23663000Y25379939D01*
X23623226Y25579898D01*
X23545205Y25768256D01*
X23431937Y25937774D01*
X23287774Y26081937D01*
X23187014Y26149263D01*
X23211325Y26173574D01*
X23290677Y26270265D01*
X23290933Y26270744D01*
X23291410Y26270999D01*
X23388101Y26350351D01*
X23777010Y26739260D01*
X23856362Y26835951D01*
X23856617Y26836429D01*
X23857095Y26836684D01*
X23953786Y26916036D01*
X24260000Y27222250D01*
X24260000Y27208061D01*
G37*
X24260000Y27208061D02*
X24299774Y27008102D01*
X24377795Y26819744D01*
X24491063Y26650226D01*
X24635226Y26506063D01*
X24804744Y26392795D01*
X24993102Y26314774D01*
X25193061Y26275000D01*
X25396939Y26275000D01*
X25596898Y26314774D01*
X25785256Y26392795D01*
X25850237Y26436214D01*
X25901795Y26311744D01*
X26015063Y26142226D01*
X26159226Y25998063D01*
X26328744Y25884795D01*
X26517102Y25806774D01*
X26717061Y25767000D01*
X26920939Y25767000D01*
X27120898Y25806774D01*
X27309256Y25884795D01*
X27478774Y25998063D01*
X27622937Y26142226D01*
X27736205Y26311744D01*
X27814226Y26500102D01*
X27854000Y26700061D01*
X27854000Y26762199D01*
X28177999Y27086197D01*
X28177999Y27035927D01*
X28173839Y26993688D01*
X28177999Y26951449D01*
X28177999Y26951442D01*
X28190443Y26825099D01*
X28239618Y26662988D01*
X28319475Y26513586D01*
X28426946Y26382634D01*
X28459759Y26355705D01*
X29430439Y25385024D01*
X29430440Y25037472D01*
X29419429Y25001174D01*
X29404214Y24951015D01*
X29400444Y24938588D01*
X29388000Y24812245D01*
X29388000Y24812239D01*
X29383840Y24770000D01*
X29388000Y24727761D01*
X29388000Y24447083D01*
X29383840Y24404844D01*
X29384924Y24393840D01*
X29061824Y24070740D01*
X28982472Y23974049D01*
X28982217Y23973571D01*
X28981739Y23973316D01*
X28885048Y23893964D01*
X28496139Y23505055D01*
X28416787Y23408364D01*
X28416226Y23407315D01*
X28353254Y23354091D01*
X28362000Y23398061D01*
X28362000Y23601939D01*
X28322226Y23801898D01*
X28244205Y23990256D01*
X28130937Y24159774D01*
X27986774Y24303937D01*
X27817256Y24417205D01*
X27628898Y24495226D01*
X27428939Y24535000D01*
X27225061Y24535000D01*
X27025102Y24495226D01*
X26836744Y24417205D01*
X26667226Y24303937D01*
X26523063Y24159774D01*
X26409795Y23990256D01*
X26331774Y23801898D01*
X26292000Y23601939D01*
X26292000Y23398061D01*
X26331774Y23198102D01*
X26409795Y23009744D01*
X26523063Y22840226D01*
X26563367Y22799922D01*
X26567000Y22763039D01*
X26567000Y22763029D01*
X26577997Y22651376D01*
X26617625Y22520738D01*
X26621454Y22508115D01*
X26692026Y22376085D01*
X26721641Y22340000D01*
X26786999Y22260360D01*
X26816003Y22236557D01*
X27021821Y22030738D01*
X26799082Y21807999D01*
X26719730Y21711308D01*
X26719474Y21710829D01*
X26718997Y21710574D01*
X26622306Y21631222D01*
X26419417Y21428333D01*
X26216528Y21631222D01*
X26119837Y21710574D01*
X26119360Y21710829D01*
X26119104Y21711308D01*
X26107891Y21724971D01*
X26107891Y22520784D01*
X26111567Y22558109D01*
X26107891Y22595434D01*
X26107891Y22595442D01*
X26096894Y22707095D01*
X26053437Y22850356D01*
X25982865Y22982385D01*
X25887892Y23098110D01*
X25858894Y23121908D01*
X23663000Y25317801D01*
X23663000Y25379939D01*
X23623226Y25579898D01*
X23545205Y25768256D01*
X23431937Y25937774D01*
X23287774Y26081937D01*
X23187014Y26149263D01*
X23211325Y26173574D01*
X23290677Y26270265D01*
X23290933Y26270744D01*
X23291410Y26270999D01*
X23388101Y26350351D01*
X23777010Y26739260D01*
X23856362Y26835951D01*
X23856617Y26836429D01*
X23857095Y26836684D01*
X23953786Y26916036D01*
X24260000Y27222250D01*
X24260000Y27208061D01*
G36*
X42620110Y30611314D02*
G01*
X42519122Y30591226D01*
X42330764Y30513205D01*
X42161246Y30399937D01*
X42017083Y30255774D01*
X41903815Y30086256D01*
X41825794Y29897898D01*
X41786020Y29697939D01*
X41786020Y29494061D01*
X41825794Y29294102D01*
X41903815Y29105744D01*
X42017083Y28936226D01*
X42161246Y28792063D01*
X42330764Y28678795D01*
X42519122Y28600774D01*
X42719081Y28561000D01*
X42922959Y28561000D01*
X43122918Y28600774D01*
X43311276Y28678795D01*
X43480794Y28792063D01*
X43624957Y28936226D01*
X43738225Y29105744D01*
X43816246Y29294102D01*
X43836334Y29395090D01*
X43862928Y29421685D01*
X43851928Y29310001D01*
X43851928Y28659999D01*
X43868992Y28486745D01*
X43919528Y28320149D01*
X44001595Y28166613D01*
X44112038Y28032038D01*
X44246613Y27921595D01*
X44400149Y27839528D01*
X44566745Y27788992D01*
X44739999Y27771928D01*
X45640001Y27771928D01*
X45813255Y27788992D01*
X45979851Y27839528D01*
X46133387Y27921595D01*
X46267962Y28032038D01*
X46344254Y28125000D01*
X46895261Y28125000D01*
X46937500Y28120840D01*
X46979739Y28125000D01*
X46979746Y28125000D01*
X47106089Y28137444D01*
X47266613Y28186137D01*
X47437250Y28015500D01*
X48697000Y28015500D01*
X48697000Y28035500D01*
X48843000Y28035500D01*
X48843000Y28015500D01*
X50102750Y28015500D01*
X50322000Y28234750D01*
X50326243Y28730000D01*
X50309310Y28901922D01*
X50259162Y29067237D01*
X50177727Y29219592D01*
X50068133Y29353133D01*
X49934592Y29462727D01*
X49782237Y29544162D01*
X49715999Y29564255D01*
X49822962Y29652038D01*
X49933405Y29786613D01*
X50015472Y29940149D01*
X50066008Y30106745D01*
X50077901Y30227500D01*
X52721338Y30227500D01*
X52735498Y30180820D01*
X52794463Y30070506D01*
X52873815Y29973815D01*
X52960697Y29902513D01*
X52839093Y29720518D01*
X52740342Y29482113D01*
X52690000Y29229024D01*
X52690000Y28970976D01*
X52713481Y28852928D01*
X47102305Y23241751D01*
X47060512Y23319942D01*
X47040901Y23343839D01*
X47100537Y23416506D01*
X47159502Y23526820D01*
X47195812Y23646518D01*
X47208072Y23771000D01*
X47205000Y24010250D01*
X47046250Y24169000D01*
X46222000Y24169000D01*
X46222000Y24149000D01*
X45968000Y24149000D01*
X45968000Y24169000D01*
X45143750Y24169000D01*
X44985000Y24010250D01*
X44981928Y23771000D01*
X44994188Y23646518D01*
X45004954Y23611026D01*
X44872500Y23624072D01*
X44297500Y23624072D01*
X44126684Y23607248D01*
X43962433Y23557423D01*
X43811058Y23476512D01*
X43710000Y23393575D01*
X43608942Y23476512D01*
X43457567Y23557423D01*
X43293316Y23607248D01*
X43122500Y23624072D01*
X42547500Y23624072D01*
X42376684Y23607248D01*
X42212433Y23557423D01*
X42061058Y23476512D01*
X41928377Y23367623D01*
X41819488Y23234942D01*
X41738577Y23083567D01*
X41688752Y22919316D01*
X41671928Y22748500D01*
X41671928Y22733500D01*
X31792065Y22733500D01*
X32050159Y22991594D01*
X32129511Y23088285D01*
X32129766Y23088762D01*
X32130245Y23089018D01*
X32226936Y23168370D01*
X32615845Y23557279D01*
X32695197Y23653970D01*
X32754162Y23764284D01*
X32790472Y23883982D01*
X32802732Y24008464D01*
X32790472Y24132946D01*
X32754162Y24252644D01*
X32695197Y24362958D01*
X32654980Y24411963D01*
X32744524Y24521073D01*
X32758005Y24546294D01*
X32829937Y24618226D01*
X32943205Y24787744D01*
X32956980Y24821000D01*
X44981928Y24821000D01*
X44985000Y24581750D01*
X45143750Y24423000D01*
X45968000Y24423000D01*
X45968000Y25297250D01*
X46222000Y25297250D01*
X46222000Y24423000D01*
X47046250Y24423000D01*
X47205000Y24581750D01*
X47208072Y24821000D01*
X47195812Y24945482D01*
X47159502Y25065180D01*
X47100537Y25175494D01*
X47021185Y25272185D01*
X46924494Y25351537D01*
X46814180Y25410502D01*
X46694482Y25446812D01*
X46570000Y25459072D01*
X46380750Y25456000D01*
X46222000Y25297250D01*
X45968000Y25297250D01*
X45809250Y25456000D01*
X45620000Y25459072D01*
X45495518Y25446812D01*
X45375820Y25410502D01*
X45265506Y25351537D01*
X45168815Y25272185D01*
X45089463Y25175494D01*
X45030498Y25065180D01*
X44994188Y24945482D01*
X44981928Y24821000D01*
X32956980Y24821000D01*
X33021226Y24976102D01*
X33061000Y25176061D01*
X33061000Y25379939D01*
X33021226Y25579898D01*
X32943205Y25768256D01*
X32829937Y25937774D01*
X32685774Y26081937D01*
X32516256Y26195205D01*
X32476971Y26211477D01*
X32615845Y26350351D01*
X32695197Y26447042D01*
X32754162Y26557356D01*
X32788332Y26670000D01*
X32837825Y26670000D01*
X32911377Y26580377D01*
X33044058Y26471488D01*
X33195433Y26390577D01*
X33359684Y26340752D01*
X33492531Y26327668D01*
X34494401Y25325797D01*
X34518199Y25296799D01*
X34547197Y25273001D01*
X34633923Y25201826D01*
X34764554Y25132002D01*
X34765953Y25131254D01*
X34909214Y25087797D01*
X35020867Y25076800D01*
X35020876Y25076800D01*
X35058199Y25073124D01*
X35095522Y25076800D01*
X38915478Y25076800D01*
X38952800Y25073124D01*
X38990122Y25076800D01*
X38990133Y25076800D01*
X39101786Y25087797D01*
X39245047Y25131254D01*
X39377076Y25201826D01*
X39492801Y25296799D01*
X39516604Y25325802D01*
X39774729Y25583928D01*
X40598000Y25583928D01*
X40722482Y25596188D01*
X40842180Y25632498D01*
X40952494Y25691463D01*
X41049185Y25770815D01*
X41128537Y25867506D01*
X41187502Y25977820D01*
X41223812Y26097518D01*
X41236072Y26222000D01*
X41236072Y27155000D01*
X47213757Y27155000D01*
X47230690Y26983078D01*
X47280838Y26817763D01*
X47362273Y26665408D01*
X47471867Y26531867D01*
X47605408Y26422273D01*
X47757763Y26340838D01*
X47923078Y26290690D01*
X48095000Y26273757D01*
X48477750Y26278000D01*
X48697000Y26497250D01*
X48697000Y27869500D01*
X48843000Y27869500D01*
X48843000Y26497250D01*
X49062250Y26278000D01*
X49445000Y26273757D01*
X49616922Y26290690D01*
X49782237Y26340838D01*
X49934592Y26422273D01*
X50068133Y26531867D01*
X50177727Y26665408D01*
X50259162Y26817763D01*
X50309310Y26983078D01*
X50326243Y27155000D01*
X50322000Y27650250D01*
X50102750Y27869500D01*
X48843000Y27869500D01*
X48697000Y27869500D01*
X47437250Y27869500D01*
X47218000Y27650250D01*
X47213757Y27155000D01*
X41236072Y27155000D01*
X41236072Y27522000D01*
X41223812Y27646482D01*
X41187502Y27766180D01*
X41128537Y27876494D01*
X41049185Y27973185D01*
X40952494Y28052537D01*
X40907597Y28076535D01*
X40948028Y28098146D01*
X41043501Y28176499D01*
X41121854Y28271972D01*
X41180076Y28380896D01*
X41215928Y28499086D01*
X41228034Y28622000D01*
X41225000Y29042250D01*
X41068250Y29199000D01*
X40121000Y29199000D01*
X40121000Y29179000D01*
X39975000Y29179000D01*
X39975000Y29199000D01*
X39955000Y29199000D01*
X39955000Y29345000D01*
X39975000Y29345000D01*
X39975000Y30392250D01*
X40121000Y30392250D01*
X40121000Y29345000D01*
X41068250Y29345000D01*
X41225000Y29501750D01*
X41228034Y29922000D01*
X41215928Y30044914D01*
X41180076Y30163104D01*
X41121854Y30272028D01*
X41043501Y30367501D01*
X40948028Y30445854D01*
X40839104Y30504076D01*
X40720914Y30539928D01*
X40598000Y30552034D01*
X40277750Y30549000D01*
X40121000Y30392250D01*
X39975000Y30392250D01*
X39818250Y30549000D01*
X39498000Y30552034D01*
X39375086Y30539928D01*
X39256896Y30504076D01*
X39147972Y30445854D01*
X39144305Y30442844D01*
X39132494Y30452537D01*
X39022180Y30511502D01*
X38902482Y30547812D01*
X38778000Y30560072D01*
X38268729Y30560072D01*
X38195803Y30632998D01*
X38172001Y30662001D01*
X38056276Y30756974D01*
X37924247Y30827546D01*
X37780986Y30871003D01*
X37669333Y30882000D01*
X37669322Y30882000D01*
X37632000Y30885676D01*
X37594678Y30882000D01*
X34684322Y30882000D01*
X34646999Y30885676D01*
X34609676Y30882000D01*
X34609667Y30882000D01*
X34498014Y30871003D01*
X34354753Y30827546D01*
X34222724Y30756974D01*
X34222722Y30756973D01*
X34222723Y30756973D01*
X34135996Y30685799D01*
X34135992Y30685795D01*
X34106999Y30662001D01*
X34083205Y30633008D01*
X33500295Y30050097D01*
X33359684Y30036248D01*
X33195433Y29986423D01*
X33044058Y29905512D01*
X32911377Y29796623D01*
X32832080Y29700000D01*
X32820166Y29700000D01*
X32782843Y29703676D01*
X32745520Y29700000D01*
X32745511Y29700000D01*
X32633858Y29689003D01*
X32490597Y29645546D01*
X32358568Y29574974D01*
X32242843Y29480001D01*
X32219045Y29451003D01*
X31157020Y28388978D01*
X31141186Y28387418D01*
X31192380Y28483196D01*
X31238519Y28635299D01*
X31241555Y28645306D01*
X31247493Y28705600D01*
X31253999Y28771650D01*
X31253999Y28771656D01*
X31258159Y28813895D01*
X31253999Y28856134D01*
X31253999Y29661763D01*
X31258159Y29704002D01*
X31253999Y29746241D01*
X31253999Y29746247D01*
X31241555Y29872590D01*
X31233241Y29900000D01*
X31221129Y29939927D01*
X31192380Y30034701D01*
X31112523Y30184103D01*
X31008013Y30311448D01*
X30989226Y30405898D01*
X30911205Y30594256D01*
X30797937Y30763774D01*
X30653774Y30907937D01*
X30484256Y31021205D01*
X30295898Y31099226D01*
X30095939Y31139000D01*
X29892061Y31139000D01*
X29692102Y31099226D01*
X29503744Y31021205D01*
X29334226Y30907937D01*
X29190063Y30763774D01*
X29155908Y30712657D01*
X28832823Y31035742D01*
X28736132Y31115094D01*
X28735655Y31115349D01*
X28735399Y31115828D01*
X28656047Y31212519D01*
X28328566Y31540000D01*
X43548796Y31540000D01*
X42620110Y30611314D01*
G37*
X42620110Y30611314D02*
X42519122Y30591226D01*
X42330764Y30513205D01*
X42161246Y30399937D01*
X42017083Y30255774D01*
X41903815Y30086256D01*
X41825794Y29897898D01*
X41786020Y29697939D01*
X41786020Y29494061D01*
X41825794Y29294102D01*
X41903815Y29105744D01*
X42017083Y28936226D01*
X42161246Y28792063D01*
X42330764Y28678795D01*
X42519122Y28600774D01*
X42719081Y28561000D01*
X42922959Y28561000D01*
X43122918Y28600774D01*
X43311276Y28678795D01*
X43480794Y28792063D01*
X43624957Y28936226D01*
X43738225Y29105744D01*
X43816246Y29294102D01*
X43836334Y29395090D01*
X43862928Y29421685D01*
X43851928Y29310001D01*
X43851928Y28659999D01*
X43868992Y28486745D01*
X43919528Y28320149D01*
X44001595Y28166613D01*
X44112038Y28032038D01*
X44246613Y27921595D01*
X44400149Y27839528D01*
X44566745Y27788992D01*
X44739999Y27771928D01*
X45640001Y27771928D01*
X45813255Y27788992D01*
X45979851Y27839528D01*
X46133387Y27921595D01*
X46267962Y28032038D01*
X46344254Y28125000D01*
X46895261Y28125000D01*
X46937500Y28120840D01*
X46979739Y28125000D01*
X46979746Y28125000D01*
X47106089Y28137444D01*
X47266613Y28186137D01*
X47437250Y28015500D01*
X48697000Y28015500D01*
X48697000Y28035500D01*
X48843000Y28035500D01*
X48843000Y28015500D01*
X50102750Y28015500D01*
X50322000Y28234750D01*
X50326243Y28730000D01*
X50309310Y28901922D01*
X50259162Y29067237D01*
X50177727Y29219592D01*
X50068133Y29353133D01*
X49934592Y29462727D01*
X49782237Y29544162D01*
X49715999Y29564255D01*
X49822962Y29652038D01*
X49933405Y29786613D01*
X50015472Y29940149D01*
X50066008Y30106745D01*
X50077901Y30227500D01*
X52721338Y30227500D01*
X52735498Y30180820D01*
X52794463Y30070506D01*
X52873815Y29973815D01*
X52960697Y29902513D01*
X52839093Y29720518D01*
X52740342Y29482113D01*
X52690000Y29229024D01*
X52690000Y28970976D01*
X52713481Y28852928D01*
X47102305Y23241751D01*
X47060512Y23319942D01*
X47040901Y23343839D01*
X47100537Y23416506D01*
X47159502Y23526820D01*
X47195812Y23646518D01*
X47208072Y23771000D01*
X47205000Y24010250D01*
X47046250Y24169000D01*
X46222000Y24169000D01*
X46222000Y24149000D01*
X45968000Y24149000D01*
X45968000Y24169000D01*
X45143750Y24169000D01*
X44985000Y24010250D01*
X44981928Y23771000D01*
X44994188Y23646518D01*
X45004954Y23611026D01*
X44872500Y23624072D01*
X44297500Y23624072D01*
X44126684Y23607248D01*
X43962433Y23557423D01*
X43811058Y23476512D01*
X43710000Y23393575D01*
X43608942Y23476512D01*
X43457567Y23557423D01*
X43293316Y23607248D01*
X43122500Y23624072D01*
X42547500Y23624072D01*
X42376684Y23607248D01*
X42212433Y23557423D01*
X42061058Y23476512D01*
X41928377Y23367623D01*
X41819488Y23234942D01*
X41738577Y23083567D01*
X41688752Y22919316D01*
X41671928Y22748500D01*
X41671928Y22733500D01*
X31792065Y22733500D01*
X32050159Y22991594D01*
X32129511Y23088285D01*
X32129766Y23088762D01*
X32130245Y23089018D01*
X32226936Y23168370D01*
X32615845Y23557279D01*
X32695197Y23653970D01*
X32754162Y23764284D01*
X32790472Y23883982D01*
X32802732Y24008464D01*
X32790472Y24132946D01*
X32754162Y24252644D01*
X32695197Y24362958D01*
X32654980Y24411963D01*
X32744524Y24521073D01*
X32758005Y24546294D01*
X32829937Y24618226D01*
X32943205Y24787744D01*
X32956980Y24821000D01*
X44981928Y24821000D01*
X44985000Y24581750D01*
X45143750Y24423000D01*
X45968000Y24423000D01*
X45968000Y25297250D01*
X46222000Y25297250D01*
X46222000Y24423000D01*
X47046250Y24423000D01*
X47205000Y24581750D01*
X47208072Y24821000D01*
X47195812Y24945482D01*
X47159502Y25065180D01*
X47100537Y25175494D01*
X47021185Y25272185D01*
X46924494Y25351537D01*
X46814180Y25410502D01*
X46694482Y25446812D01*
X46570000Y25459072D01*
X46380750Y25456000D01*
X46222000Y25297250D01*
X45968000Y25297250D01*
X45809250Y25456000D01*
X45620000Y25459072D01*
X45495518Y25446812D01*
X45375820Y25410502D01*
X45265506Y25351537D01*
X45168815Y25272185D01*
X45089463Y25175494D01*
X45030498Y25065180D01*
X44994188Y24945482D01*
X44981928Y24821000D01*
X32956980Y24821000D01*
X33021226Y24976102D01*
X33061000Y25176061D01*
X33061000Y25379939D01*
X33021226Y25579898D01*
X32943205Y25768256D01*
X32829937Y25937774D01*
X32685774Y26081937D01*
X32516256Y26195205D01*
X32476971Y26211477D01*
X32615845Y26350351D01*
X32695197Y26447042D01*
X32754162Y26557356D01*
X32788332Y26670000D01*
X32837825Y26670000D01*
X32911377Y26580377D01*
X33044058Y26471488D01*
X33195433Y26390577D01*
X33359684Y26340752D01*
X33492531Y26327668D01*
X34494401Y25325797D01*
X34518199Y25296799D01*
X34547197Y25273001D01*
X34633923Y25201826D01*
X34764554Y25132002D01*
X34765953Y25131254D01*
X34909214Y25087797D01*
X35020867Y25076800D01*
X35020876Y25076800D01*
X35058199Y25073124D01*
X35095522Y25076800D01*
X38915478Y25076800D01*
X38952800Y25073124D01*
X38990122Y25076800D01*
X38990133Y25076800D01*
X39101786Y25087797D01*
X39245047Y25131254D01*
X39377076Y25201826D01*
X39492801Y25296799D01*
X39516604Y25325802D01*
X39774729Y25583928D01*
X40598000Y25583928D01*
X40722482Y25596188D01*
X40842180Y25632498D01*
X40952494Y25691463D01*
X41049185Y25770815D01*
X41128537Y25867506D01*
X41187502Y25977820D01*
X41223812Y26097518D01*
X41236072Y26222000D01*
X41236072Y27155000D01*
X47213757Y27155000D01*
X47230690Y26983078D01*
X47280838Y26817763D01*
X47362273Y26665408D01*
X47471867Y26531867D01*
X47605408Y26422273D01*
X47757763Y26340838D01*
X47923078Y26290690D01*
X48095000Y26273757D01*
X48477750Y26278000D01*
X48697000Y26497250D01*
X48697000Y27869500D01*
X48843000Y27869500D01*
X48843000Y26497250D01*
X49062250Y26278000D01*
X49445000Y26273757D01*
X49616922Y26290690D01*
X49782237Y26340838D01*
X49934592Y26422273D01*
X50068133Y26531867D01*
X50177727Y26665408D01*
X50259162Y26817763D01*
X50309310Y26983078D01*
X50326243Y27155000D01*
X50322000Y27650250D01*
X50102750Y27869500D01*
X48843000Y27869500D01*
X48697000Y27869500D01*
X47437250Y27869500D01*
X47218000Y27650250D01*
X47213757Y27155000D01*
X41236072Y27155000D01*
X41236072Y27522000D01*
X41223812Y27646482D01*
X41187502Y27766180D01*
X41128537Y27876494D01*
X41049185Y27973185D01*
X40952494Y28052537D01*
X40907597Y28076535D01*
X40948028Y28098146D01*
X41043501Y28176499D01*
X41121854Y28271972D01*
X41180076Y28380896D01*
X41215928Y28499086D01*
X41228034Y28622000D01*
X41225000Y29042250D01*
X41068250Y29199000D01*
X40121000Y29199000D01*
X40121000Y29179000D01*
X39975000Y29179000D01*
X39975000Y29199000D01*
X39955000Y29199000D01*
X39955000Y29345000D01*
X39975000Y29345000D01*
X39975000Y30392250D01*
X40121000Y30392250D01*
X40121000Y29345000D01*
X41068250Y29345000D01*
X41225000Y29501750D01*
X41228034Y29922000D01*
X41215928Y30044914D01*
X41180076Y30163104D01*
X41121854Y30272028D01*
X41043501Y30367501D01*
X40948028Y30445854D01*
X40839104Y30504076D01*
X40720914Y30539928D01*
X40598000Y30552034D01*
X40277750Y30549000D01*
X40121000Y30392250D01*
X39975000Y30392250D01*
X39818250Y30549000D01*
X39498000Y30552034D01*
X39375086Y30539928D01*
X39256896Y30504076D01*
X39147972Y30445854D01*
X39144305Y30442844D01*
X39132494Y30452537D01*
X39022180Y30511502D01*
X38902482Y30547812D01*
X38778000Y30560072D01*
X38268729Y30560072D01*
X38195803Y30632998D01*
X38172001Y30662001D01*
X38056276Y30756974D01*
X37924247Y30827546D01*
X37780986Y30871003D01*
X37669333Y30882000D01*
X37669322Y30882000D01*
X37632000Y30885676D01*
X37594678Y30882000D01*
X34684322Y30882000D01*
X34646999Y30885676D01*
X34609676Y30882000D01*
X34609667Y30882000D01*
X34498014Y30871003D01*
X34354753Y30827546D01*
X34222724Y30756974D01*
X34222722Y30756973D01*
X34222723Y30756973D01*
X34135996Y30685799D01*
X34135992Y30685795D01*
X34106999Y30662001D01*
X34083205Y30633008D01*
X33500295Y30050097D01*
X33359684Y30036248D01*
X33195433Y29986423D01*
X33044058Y29905512D01*
X32911377Y29796623D01*
X32832080Y29700000D01*
X32820166Y29700000D01*
X32782843Y29703676D01*
X32745520Y29700000D01*
X32745511Y29700000D01*
X32633858Y29689003D01*
X32490597Y29645546D01*
X32358568Y29574974D01*
X32242843Y29480001D01*
X32219045Y29451003D01*
X31157020Y28388978D01*
X31141186Y28387418D01*
X31192380Y28483196D01*
X31238519Y28635299D01*
X31241555Y28645306D01*
X31247493Y28705600D01*
X31253999Y28771650D01*
X31253999Y28771656D01*
X31258159Y28813895D01*
X31253999Y28856134D01*
X31253999Y29661763D01*
X31258159Y29704002D01*
X31253999Y29746241D01*
X31253999Y29746247D01*
X31241555Y29872590D01*
X31233241Y29900000D01*
X31221129Y29939927D01*
X31192380Y30034701D01*
X31112523Y30184103D01*
X31008013Y30311448D01*
X30989226Y30405898D01*
X30911205Y30594256D01*
X30797937Y30763774D01*
X30653774Y30907937D01*
X30484256Y31021205D01*
X30295898Y31099226D01*
X30095939Y31139000D01*
X29892061Y31139000D01*
X29692102Y31099226D01*
X29503744Y31021205D01*
X29334226Y30907937D01*
X29190063Y30763774D01*
X29155908Y30712657D01*
X28832823Y31035742D01*
X28736132Y31115094D01*
X28735655Y31115349D01*
X28735399Y31115828D01*
X28656047Y31212519D01*
X28328566Y31540000D01*
X43548796Y31540000D01*
X42620110Y30611314D01*
G36*
X37039928Y28622000D02*
G01*
X37052188Y28497518D01*
X37088498Y28377820D01*
X37147463Y28267506D01*
X37226815Y28170815D01*
X37323506Y28091463D01*
X37359918Y28072000D01*
X37323506Y28052537D01*
X37226815Y27973185D01*
X37147463Y27876494D01*
X37088498Y27766180D01*
X37052188Y27646482D01*
X37039928Y27522000D01*
X37043000Y27157750D01*
X37201750Y26999000D01*
X38101000Y26999000D01*
X38101000Y27019000D01*
X38355000Y27019000D01*
X38355000Y26999000D01*
X38375000Y26999000D01*
X38375000Y26745000D01*
X38355000Y26745000D01*
X38355000Y26725000D01*
X38101000Y26725000D01*
X38101000Y26745000D01*
X37201750Y26745000D01*
X37053550Y26596800D01*
X36614751Y26596800D01*
X36623537Y26607506D01*
X36682502Y26717820D01*
X36718812Y26837518D01*
X36731072Y26962000D01*
X36728000Y27151250D01*
X36569250Y27310000D01*
X35695000Y27310000D01*
X35695000Y27290000D01*
X35441000Y27290000D01*
X35441000Y27310000D01*
X35421000Y27310000D01*
X35421000Y27564000D01*
X35441000Y27564000D01*
X35441000Y28813000D01*
X35695000Y28813000D01*
X35695000Y27564000D01*
X36569250Y27564000D01*
X36728000Y27722750D01*
X36731072Y27912000D01*
X36718812Y28036482D01*
X36682502Y28156180D01*
X36665226Y28188500D01*
X36682502Y28220820D01*
X36718812Y28340518D01*
X36731072Y28465000D01*
X36728000Y28654250D01*
X36569250Y28813000D01*
X35695000Y28813000D01*
X35441000Y28813000D01*
X35421000Y28813000D01*
X35421000Y29067000D01*
X35441000Y29067000D01*
X35441000Y29087000D01*
X35695000Y29087000D01*
X35695000Y29067000D01*
X36569250Y29067000D01*
X36728000Y29225750D01*
X36730212Y29362000D01*
X37039928Y29362000D01*
X37039928Y28622000D01*
G37*
X37039928Y28622000D02*
X37052188Y28497518D01*
X37088498Y28377820D01*
X37147463Y28267506D01*
X37226815Y28170815D01*
X37323506Y28091463D01*
X37359918Y28072000D01*
X37323506Y28052537D01*
X37226815Y27973185D01*
X37147463Y27876494D01*
X37088498Y27766180D01*
X37052188Y27646482D01*
X37039928Y27522000D01*
X37043000Y27157750D01*
X37201750Y26999000D01*
X38101000Y26999000D01*
X38101000Y27019000D01*
X38355000Y27019000D01*
X38355000Y26999000D01*
X38375000Y26999000D01*
X38375000Y26745000D01*
X38355000Y26745000D01*
X38355000Y26725000D01*
X38101000Y26725000D01*
X38101000Y26745000D01*
X37201750Y26745000D01*
X37053550Y26596800D01*
X36614751Y26596800D01*
X36623537Y26607506D01*
X36682502Y26717820D01*
X36718812Y26837518D01*
X36731072Y26962000D01*
X36728000Y27151250D01*
X36569250Y27310000D01*
X35695000Y27310000D01*
X35695000Y27290000D01*
X35441000Y27290000D01*
X35441000Y27310000D01*
X35421000Y27310000D01*
X35421000Y27564000D01*
X35441000Y27564000D01*
X35441000Y28813000D01*
X35695000Y28813000D01*
X35695000Y27564000D01*
X36569250Y27564000D01*
X36728000Y27722750D01*
X36731072Y27912000D01*
X36718812Y28036482D01*
X36682502Y28156180D01*
X36665226Y28188500D01*
X36682502Y28220820D01*
X36718812Y28340518D01*
X36731072Y28465000D01*
X36728000Y28654250D01*
X36569250Y28813000D01*
X35695000Y28813000D01*
X35441000Y28813000D01*
X35421000Y28813000D01*
X35421000Y29067000D01*
X35441000Y29067000D01*
X35441000Y29087000D01*
X35695000Y29087000D01*
X35695000Y29067000D01*
X36569250Y29067000D01*
X36728000Y29225750D01*
X36730212Y29362000D01*
X37039928Y29362000D01*
X37039928Y28622000D01*
M02*
