G04 #@! TF.GenerationSoftware,KiCad,Pcbnew,(5.1.6)-1*
G04 #@! TF.CreationDate,2020-11-05T08:21:22+01:00*
G04 #@! TF.ProjectId,repl board,7265706c-2062-46f6-9172-642e6b696361,1.05*
G04 #@! TF.SameCoordinates,PX9bbc2a0PY6b31680*
G04 #@! TF.FileFunction,Soldermask,Top*
G04 #@! TF.FilePolarity,Negative*
%FSLAX46Y46*%
G04 Gerber Fmt 4.6, Leading zero omitted, Abs format (unit mm)*
G04 Created by KiCad (PCBNEW (5.1.6)-1) date 2020-11-05 08:21:22*
%MOMM*%
%LPD*%
G01*
G04 APERTURE LIST*
%ADD10C,0.100000*%
G04 APERTURE END LIST*
D10*
G36*
X54211766Y1798101D02*
G01*
X54343888Y1743374D01*
X54343890Y1743373D01*
X54462798Y1663921D01*
X54563921Y1562798D01*
X54563922Y1562796D01*
X54643374Y1443888D01*
X54698101Y1311766D01*
X54726000Y1171506D01*
X54726000Y1028494D01*
X54698101Y888234D01*
X54643374Y756112D01*
X54643373Y756110D01*
X54563921Y637202D01*
X54462798Y536079D01*
X54343890Y456627D01*
X54343889Y456626D01*
X54343888Y456626D01*
X54211766Y401899D01*
X54071506Y374000D01*
X53928494Y374000D01*
X53788234Y401899D01*
X53656112Y456626D01*
X53656111Y456626D01*
X53656110Y456627D01*
X53537202Y536079D01*
X53436079Y637202D01*
X53356627Y756110D01*
X53356626Y756112D01*
X53301899Y888234D01*
X53274000Y1028494D01*
X53274000Y1171506D01*
X53301899Y1311766D01*
X53356626Y1443888D01*
X53436078Y1562796D01*
X53436079Y1562798D01*
X53537202Y1663921D01*
X53656110Y1743373D01*
X53656112Y1743374D01*
X53788234Y1798101D01*
X53928494Y1826000D01*
X54071506Y1826000D01*
X54211766Y1798101D01*
G37*
G36*
X1711766Y1798101D02*
G01*
X1843888Y1743374D01*
X1843890Y1743373D01*
X1962798Y1663921D01*
X2063921Y1562798D01*
X2063922Y1562796D01*
X2143374Y1443888D01*
X2198101Y1311766D01*
X2226000Y1171506D01*
X2226000Y1028494D01*
X2198101Y888234D01*
X2143374Y756112D01*
X2143373Y756110D01*
X2063921Y637202D01*
X1962798Y536079D01*
X1843890Y456627D01*
X1843889Y456626D01*
X1843888Y456626D01*
X1711766Y401899D01*
X1571506Y374000D01*
X1428494Y374000D01*
X1288234Y401899D01*
X1156112Y456626D01*
X1156111Y456626D01*
X1156110Y456627D01*
X1037202Y536079D01*
X936079Y637202D01*
X856627Y756110D01*
X856626Y756112D01*
X801899Y888234D01*
X774000Y1028494D01*
X774000Y1171506D01*
X801899Y1311766D01*
X856626Y1443888D01*
X936078Y1562796D01*
X936079Y1562798D01*
X1037202Y1663921D01*
X1156110Y1743373D01*
X1156112Y1743374D01*
X1288234Y1798101D01*
X1428494Y1826000D01*
X1571506Y1826000D01*
X1711766Y1798101D01*
G37*
G36*
X41291228Y2982297D02*
G01*
X41446100Y2918147D01*
X41585481Y2825015D01*
X41704015Y2706481D01*
X41797147Y2567100D01*
X41861297Y2412228D01*
X41894000Y2247816D01*
X41894000Y2080184D01*
X41861297Y1915772D01*
X41797147Y1760900D01*
X41704015Y1621519D01*
X41585481Y1502985D01*
X41446100Y1409853D01*
X41291228Y1345703D01*
X41126816Y1313000D01*
X40959184Y1313000D01*
X40794772Y1345703D01*
X40639900Y1409853D01*
X40500519Y1502985D01*
X40381985Y1621519D01*
X40288853Y1760900D01*
X40224703Y1915772D01*
X40192000Y2080184D01*
X40192000Y2247816D01*
X40224703Y2412228D01*
X40288853Y2567100D01*
X40381985Y2706481D01*
X40500519Y2825015D01*
X40639900Y2918147D01*
X40794772Y2982297D01*
X40959184Y3015000D01*
X41126816Y3015000D01*
X41291228Y2982297D01*
G37*
G36*
X54211766Y3798101D02*
G01*
X54325477Y3751000D01*
X54343890Y3743373D01*
X54462798Y3663921D01*
X54563921Y3562798D01*
X54643373Y3443890D01*
X54643374Y3443888D01*
X54698101Y3311766D01*
X54726000Y3171506D01*
X54726000Y3028494D01*
X54698101Y2888234D01*
X54644219Y2758153D01*
X54643373Y2756110D01*
X54563921Y2637202D01*
X54462798Y2536079D01*
X54343890Y2456627D01*
X54343889Y2456626D01*
X54343888Y2456626D01*
X54211766Y2401899D01*
X54071506Y2374000D01*
X53928494Y2374000D01*
X53788234Y2401899D01*
X53656112Y2456626D01*
X53656111Y2456626D01*
X53656110Y2456627D01*
X53537202Y2536079D01*
X53436079Y2637202D01*
X53356627Y2756110D01*
X53355781Y2758153D01*
X53301899Y2888234D01*
X53274000Y3028494D01*
X53274000Y3171506D01*
X53301899Y3311766D01*
X53356626Y3443888D01*
X53356627Y3443890D01*
X53436079Y3562798D01*
X53537202Y3663921D01*
X53656110Y3743373D01*
X53674523Y3751000D01*
X53788234Y3798101D01*
X53928494Y3826000D01*
X54071506Y3826000D01*
X54211766Y3798101D01*
G37*
G36*
X1711766Y3798101D02*
G01*
X1825477Y3751000D01*
X1843890Y3743373D01*
X1962798Y3663921D01*
X2063921Y3562798D01*
X2143373Y3443890D01*
X2143374Y3443888D01*
X2198101Y3311766D01*
X2226000Y3171506D01*
X2226000Y3028494D01*
X2198101Y2888234D01*
X2144219Y2758153D01*
X2143373Y2756110D01*
X2063921Y2637202D01*
X1962798Y2536079D01*
X1843890Y2456627D01*
X1843889Y2456626D01*
X1843888Y2456626D01*
X1711766Y2401899D01*
X1571506Y2374000D01*
X1428494Y2374000D01*
X1288234Y2401899D01*
X1156112Y2456626D01*
X1156111Y2456626D01*
X1156110Y2456627D01*
X1037202Y2536079D01*
X936079Y2637202D01*
X856627Y2756110D01*
X855781Y2758153D01*
X801899Y2888234D01*
X774000Y3028494D01*
X774000Y3171506D01*
X801899Y3311766D01*
X856626Y3443888D01*
X856627Y3443890D01*
X936079Y3562798D01*
X1037202Y3663921D01*
X1156110Y3743373D01*
X1174523Y3751000D01*
X1288234Y3798101D01*
X1428494Y3826000D01*
X1571506Y3826000D01*
X1711766Y3798101D01*
G37*
G36*
X9762200Y2482200D02*
G01*
X7960200Y2482200D01*
X7960200Y4284200D01*
X9762200Y4284200D01*
X9762200Y2482200D01*
G37*
G36*
X45564499Y3746555D02*
G01*
X45601995Y3735180D01*
X45636554Y3716708D01*
X45666847Y3691847D01*
X45691708Y3661554D01*
X45710180Y3626995D01*
X45721555Y3589499D01*
X45726000Y3544362D01*
X45726000Y2905638D01*
X45721555Y2860501D01*
X45710180Y2823005D01*
X45691708Y2788446D01*
X45666847Y2758153D01*
X45636554Y2733292D01*
X45601995Y2714820D01*
X45564499Y2703445D01*
X45519362Y2699000D01*
X44780638Y2699000D01*
X44735501Y2703445D01*
X44698005Y2714820D01*
X44663446Y2733292D01*
X44633153Y2758153D01*
X44608292Y2788446D01*
X44589820Y2823005D01*
X44578445Y2860501D01*
X44574000Y2905638D01*
X44574000Y3544362D01*
X44578445Y3589499D01*
X44589820Y3626995D01*
X44608292Y3661554D01*
X44633153Y3691847D01*
X44663446Y3716708D01*
X44698005Y3735180D01*
X44735501Y3746555D01*
X44780638Y3751000D01*
X45519362Y3751000D01*
X45564499Y3746555D01*
G37*
G36*
X47314499Y3746555D02*
G01*
X47351995Y3735180D01*
X47386554Y3716708D01*
X47416847Y3691847D01*
X47441708Y3661554D01*
X47460180Y3626995D01*
X47471555Y3589499D01*
X47476000Y3544362D01*
X47476000Y2905638D01*
X47471555Y2860501D01*
X47460180Y2823005D01*
X47441708Y2788446D01*
X47416847Y2758153D01*
X47386554Y2733292D01*
X47351995Y2714820D01*
X47314499Y2703445D01*
X47269362Y2699000D01*
X46530638Y2699000D01*
X46485501Y2703445D01*
X46448005Y2714820D01*
X46413446Y2733292D01*
X46383153Y2758153D01*
X46358292Y2788446D01*
X46339820Y2823005D01*
X46328445Y2860501D01*
X46324000Y2905638D01*
X46324000Y3544362D01*
X46328445Y3589499D01*
X46339820Y3626995D01*
X46358292Y3661554D01*
X46383153Y3691847D01*
X46413446Y3716708D01*
X46448005Y3735180D01*
X46485501Y3746555D01*
X46530638Y3751000D01*
X47269362Y3751000D01*
X47314499Y3746555D01*
G37*
G36*
X54211766Y5798101D02*
G01*
X54343888Y5743374D01*
X54343890Y5743373D01*
X54462798Y5663921D01*
X54563921Y5562798D01*
X54608276Y5496416D01*
X54643374Y5443888D01*
X54698101Y5311766D01*
X54726000Y5171506D01*
X54726000Y5028494D01*
X54698101Y4888234D01*
X54643374Y4756112D01*
X54643373Y4756110D01*
X54563921Y4637202D01*
X54462798Y4536079D01*
X54343890Y4456627D01*
X54343889Y4456626D01*
X54343888Y4456626D01*
X54211766Y4401899D01*
X54071506Y4374000D01*
X53928494Y4374000D01*
X53788234Y4401899D01*
X53656112Y4456626D01*
X53656111Y4456626D01*
X53656110Y4456627D01*
X53537202Y4536079D01*
X53436079Y4637202D01*
X53356627Y4756110D01*
X53356626Y4756112D01*
X53301899Y4888234D01*
X53274000Y5028494D01*
X53274000Y5171506D01*
X53301899Y5311766D01*
X53356626Y5443888D01*
X53391724Y5496416D01*
X53436079Y5562798D01*
X53537202Y5663921D01*
X53656110Y5743373D01*
X53656112Y5743374D01*
X53788234Y5798101D01*
X53928494Y5826000D01*
X54071506Y5826000D01*
X54211766Y5798101D01*
G37*
G36*
X1711766Y5798101D02*
G01*
X1843888Y5743374D01*
X1843890Y5743373D01*
X1962798Y5663921D01*
X2063921Y5562798D01*
X2108276Y5496416D01*
X2143374Y5443888D01*
X2198101Y5311766D01*
X2226000Y5171506D01*
X2226000Y5028494D01*
X2198101Y4888234D01*
X2143374Y4756112D01*
X2143373Y4756110D01*
X2063921Y4637202D01*
X1962798Y4536079D01*
X1843890Y4456627D01*
X1843889Y4456626D01*
X1843888Y4456626D01*
X1711766Y4401899D01*
X1571506Y4374000D01*
X1428494Y4374000D01*
X1288234Y4401899D01*
X1156112Y4456626D01*
X1156111Y4456626D01*
X1156110Y4456627D01*
X1037202Y4536079D01*
X936079Y4637202D01*
X856627Y4756110D01*
X856626Y4756112D01*
X801899Y4888234D01*
X774000Y5028494D01*
X774000Y5171506D01*
X801899Y5311766D01*
X856626Y5443888D01*
X891724Y5496416D01*
X936079Y5562798D01*
X1037202Y5663921D01*
X1156110Y5743373D01*
X1156112Y5743374D01*
X1288234Y5798101D01*
X1428494Y5826000D01*
X1571506Y5826000D01*
X1711766Y5798101D01*
G37*
G36*
X44851000Y4924000D02*
G01*
X43449000Y4924000D01*
X43449000Y5826000D01*
X44851000Y5826000D01*
X44851000Y4924000D01*
G37*
G36*
X51151000Y4924000D02*
G01*
X49749000Y4924000D01*
X49749000Y5826000D01*
X51151000Y5826000D01*
X51151000Y4924000D01*
G37*
G36*
X8974712Y6819273D02*
G01*
X9124012Y6789576D01*
X9287984Y6721656D01*
X9435554Y6623053D01*
X9561053Y6497554D01*
X9659656Y6349984D01*
X9727576Y6186012D01*
X9757273Y6036712D01*
X9762200Y6011942D01*
X9762200Y5834458D01*
X9757273Y5809688D01*
X9727576Y5660388D01*
X9659656Y5496416D01*
X9561053Y5348846D01*
X9435554Y5223347D01*
X9287984Y5124744D01*
X9124012Y5056824D01*
X8981589Y5028495D01*
X8949942Y5022200D01*
X8772458Y5022200D01*
X8740811Y5028495D01*
X8598388Y5056824D01*
X8434416Y5124744D01*
X8286846Y5223347D01*
X8161347Y5348846D01*
X8062744Y5496416D01*
X7994824Y5660388D01*
X7965127Y5809688D01*
X7960200Y5834458D01*
X7960200Y6011942D01*
X7965127Y6036712D01*
X7994824Y6186012D01*
X8062744Y6349984D01*
X8161347Y6497554D01*
X8286846Y6623053D01*
X8434416Y6721656D01*
X8598388Y6789576D01*
X8747688Y6819273D01*
X8772458Y6824200D01*
X8949942Y6824200D01*
X8974712Y6819273D01*
G37*
G36*
X44851000Y6204000D02*
G01*
X43449000Y6204000D01*
X43449000Y7106000D01*
X44851000Y7106000D01*
X44851000Y6204000D01*
G37*
G36*
X51151000Y6204000D02*
G01*
X49749000Y6204000D01*
X49749000Y7106000D01*
X51151000Y7106000D01*
X51151000Y6204000D01*
G37*
G36*
X1711766Y7798101D02*
G01*
X1843888Y7743374D01*
X1843890Y7743373D01*
X1962798Y7663921D01*
X2063921Y7562798D01*
X2129936Y7464000D01*
X2143374Y7443888D01*
X2198101Y7311766D01*
X2226000Y7171506D01*
X2226000Y7028494D01*
X2198101Y6888234D01*
X2171577Y6824200D01*
X2143373Y6756110D01*
X2063921Y6637202D01*
X1962798Y6536079D01*
X1843890Y6456627D01*
X1843889Y6456626D01*
X1843888Y6456626D01*
X1711766Y6401899D01*
X1571506Y6374000D01*
X1428494Y6374000D01*
X1288234Y6401899D01*
X1156112Y6456626D01*
X1156111Y6456626D01*
X1156110Y6456627D01*
X1037202Y6536079D01*
X936079Y6637202D01*
X856627Y6756110D01*
X828423Y6824200D01*
X801899Y6888234D01*
X774000Y7028494D01*
X774000Y7171506D01*
X801899Y7311766D01*
X856626Y7443888D01*
X870064Y7464000D01*
X936079Y7562798D01*
X1037202Y7663921D01*
X1156110Y7743373D01*
X1156112Y7743374D01*
X1288234Y7798101D01*
X1428494Y7826000D01*
X1571506Y7826000D01*
X1711766Y7798101D01*
G37*
G36*
X54211766Y7798101D02*
G01*
X54343888Y7743374D01*
X54343890Y7743373D01*
X54462798Y7663921D01*
X54563921Y7562798D01*
X54629936Y7464000D01*
X54643374Y7443888D01*
X54698101Y7311766D01*
X54726000Y7171506D01*
X54726000Y7028494D01*
X54698101Y6888234D01*
X54671577Y6824200D01*
X54643373Y6756110D01*
X54563921Y6637202D01*
X54462798Y6536079D01*
X54343890Y6456627D01*
X54343889Y6456626D01*
X54343888Y6456626D01*
X54211766Y6401899D01*
X54071506Y6374000D01*
X53928494Y6374000D01*
X53788234Y6401899D01*
X53656112Y6456626D01*
X53656111Y6456626D01*
X53656110Y6456627D01*
X53537202Y6536079D01*
X53436079Y6637202D01*
X53356627Y6756110D01*
X53328423Y6824200D01*
X53301899Y6888234D01*
X53274000Y7028494D01*
X53274000Y7171506D01*
X53301899Y7311766D01*
X53356626Y7443888D01*
X53370064Y7464000D01*
X53436079Y7562798D01*
X53537202Y7663921D01*
X53656110Y7743373D01*
X53656112Y7743374D01*
X53788234Y7798101D01*
X53928494Y7826000D01*
X54071506Y7826000D01*
X54211766Y7798101D01*
G37*
G36*
X44851000Y7464000D02*
G01*
X43449000Y7464000D01*
X43449000Y8366000D01*
X44851000Y8366000D01*
X44851000Y7464000D01*
G37*
G36*
X51151000Y7464000D02*
G01*
X49749000Y7464000D01*
X49749000Y8366000D01*
X51151000Y8366000D01*
X51151000Y7464000D01*
G37*
G36*
X8974712Y9359273D02*
G01*
X9124012Y9329576D01*
X9287984Y9261656D01*
X9435554Y9163053D01*
X9561053Y9037554D01*
X9659656Y8889984D01*
X9727576Y8726012D01*
X9757273Y8576712D01*
X9762200Y8551942D01*
X9762200Y8374458D01*
X9757273Y8349688D01*
X9727576Y8200388D01*
X9659656Y8036416D01*
X9561053Y7888846D01*
X9435554Y7763347D01*
X9287984Y7664744D01*
X9124012Y7596824D01*
X8974712Y7567127D01*
X8949942Y7562200D01*
X8772458Y7562200D01*
X8747688Y7567127D01*
X8598388Y7596824D01*
X8434416Y7664744D01*
X8286846Y7763347D01*
X8161347Y7888846D01*
X8062744Y8036416D01*
X7994824Y8200388D01*
X7965127Y8349688D01*
X7960200Y8374458D01*
X7960200Y8551942D01*
X7965127Y8576712D01*
X7994824Y8726012D01*
X8062744Y8889984D01*
X8161347Y9037554D01*
X8286846Y9163053D01*
X8434416Y9261656D01*
X8598388Y9329576D01*
X8747688Y9359273D01*
X8772458Y9364200D01*
X8949942Y9364200D01*
X8974712Y9359273D01*
G37*
G36*
X54211766Y9798101D02*
G01*
X54343888Y9743374D01*
X54343890Y9743373D01*
X54462798Y9663921D01*
X54563921Y9562798D01*
X54563922Y9562796D01*
X54643374Y9443888D01*
X54698101Y9311766D01*
X54726000Y9171506D01*
X54726000Y9028494D01*
X54698101Y8888234D01*
X54643374Y8756112D01*
X54643373Y8756110D01*
X54563921Y8637202D01*
X54462798Y8536079D01*
X54343890Y8456627D01*
X54343889Y8456626D01*
X54343888Y8456626D01*
X54211766Y8401899D01*
X54071506Y8374000D01*
X53928494Y8374000D01*
X53788234Y8401899D01*
X53656112Y8456626D01*
X53656111Y8456626D01*
X53656110Y8456627D01*
X53537202Y8536079D01*
X53436079Y8637202D01*
X53356627Y8756110D01*
X53356626Y8756112D01*
X53301899Y8888234D01*
X53274000Y9028494D01*
X53274000Y9171506D01*
X53301899Y9311766D01*
X53356626Y9443888D01*
X53436078Y9562796D01*
X53436079Y9562798D01*
X53537202Y9663921D01*
X53656110Y9743373D01*
X53656112Y9743374D01*
X53788234Y9798101D01*
X53928494Y9826000D01*
X54071506Y9826000D01*
X54211766Y9798101D01*
G37*
G36*
X1711766Y9798101D02*
G01*
X1843888Y9743374D01*
X1843890Y9743373D01*
X1962798Y9663921D01*
X2063921Y9562798D01*
X2063922Y9562796D01*
X2143374Y9443888D01*
X2198101Y9311766D01*
X2226000Y9171506D01*
X2226000Y9028494D01*
X2198101Y8888234D01*
X2143374Y8756112D01*
X2143373Y8756110D01*
X2063921Y8637202D01*
X1962798Y8536079D01*
X1843890Y8456627D01*
X1843889Y8456626D01*
X1843888Y8456626D01*
X1711766Y8401899D01*
X1571506Y8374000D01*
X1428494Y8374000D01*
X1288234Y8401899D01*
X1156112Y8456626D01*
X1156111Y8456626D01*
X1156110Y8456627D01*
X1037202Y8536079D01*
X936079Y8637202D01*
X856627Y8756110D01*
X856626Y8756112D01*
X801899Y8888234D01*
X774000Y9028494D01*
X774000Y9171506D01*
X801899Y9311766D01*
X856626Y9443888D01*
X936078Y9562796D01*
X936079Y9562798D01*
X1037202Y9663921D01*
X1156110Y9743373D01*
X1156112Y9743374D01*
X1288234Y9798101D01*
X1428494Y9826000D01*
X1571506Y9826000D01*
X1711766Y9798101D01*
G37*
G36*
X51151000Y8734000D02*
G01*
X49749000Y8734000D01*
X49749000Y9636000D01*
X51151000Y9636000D01*
X51151000Y8734000D01*
G37*
G36*
X44851000Y8734000D02*
G01*
X43449000Y8734000D01*
X43449000Y9636000D01*
X44851000Y9636000D01*
X44851000Y8734000D01*
G37*
G36*
X51151000Y10014000D02*
G01*
X49749000Y10014000D01*
X49749000Y10916000D01*
X51151000Y10916000D01*
X51151000Y10014000D01*
G37*
G36*
X44851000Y10014000D02*
G01*
X43449000Y10014000D01*
X43449000Y10916000D01*
X44851000Y10916000D01*
X44851000Y10014000D01*
G37*
G36*
X8974712Y11899273D02*
G01*
X9124012Y11869576D01*
X9287984Y11801656D01*
X9435554Y11703053D01*
X9561053Y11577554D01*
X9659656Y11429984D01*
X9727576Y11266012D01*
X9762200Y11091941D01*
X9762200Y10914459D01*
X9727576Y10740388D01*
X9659656Y10576416D01*
X9561053Y10428846D01*
X9435554Y10303347D01*
X9287984Y10204744D01*
X9124012Y10136824D01*
X8974712Y10107127D01*
X8949942Y10102200D01*
X8772458Y10102200D01*
X8747688Y10107127D01*
X8598388Y10136824D01*
X8434416Y10204744D01*
X8286846Y10303347D01*
X8161347Y10428846D01*
X8062744Y10576416D01*
X7994824Y10740388D01*
X7960200Y10914459D01*
X7960200Y11091941D01*
X7994824Y11266012D01*
X8062744Y11429984D01*
X8161347Y11577554D01*
X8286846Y11703053D01*
X8434416Y11801656D01*
X8598388Y11869576D01*
X8747688Y11899273D01*
X8772458Y11904200D01*
X8949942Y11904200D01*
X8974712Y11899273D01*
G37*
G36*
X1711766Y11798101D02*
G01*
X1843888Y11743374D01*
X1843890Y11743373D01*
X1962798Y11663921D01*
X2063921Y11562798D01*
X2063922Y11562796D01*
X2143374Y11443888D01*
X2198101Y11311766D01*
X2226000Y11171506D01*
X2226000Y11028494D01*
X2198101Y10888234D01*
X2143374Y10756112D01*
X2143373Y10756110D01*
X2063921Y10637202D01*
X1962798Y10536079D01*
X1843890Y10456627D01*
X1843889Y10456626D01*
X1843888Y10456626D01*
X1711766Y10401899D01*
X1571506Y10374000D01*
X1428494Y10374000D01*
X1288234Y10401899D01*
X1156112Y10456626D01*
X1156111Y10456626D01*
X1156110Y10456627D01*
X1037202Y10536079D01*
X936079Y10637202D01*
X856627Y10756110D01*
X856626Y10756112D01*
X801899Y10888234D01*
X774000Y11028494D01*
X774000Y11171506D01*
X801899Y11311766D01*
X856626Y11443888D01*
X936078Y11562796D01*
X936079Y11562798D01*
X1037202Y11663921D01*
X1156110Y11743373D01*
X1156112Y11743374D01*
X1288234Y11798101D01*
X1428494Y11826000D01*
X1571506Y11826000D01*
X1711766Y11798101D01*
G37*
G36*
X54211766Y11798101D02*
G01*
X54343888Y11743374D01*
X54343890Y11743373D01*
X54462798Y11663921D01*
X54563921Y11562798D01*
X54563922Y11562796D01*
X54643374Y11443888D01*
X54698101Y11311766D01*
X54726000Y11171506D01*
X54726000Y11028494D01*
X54698101Y10888234D01*
X54643374Y10756112D01*
X54643373Y10756110D01*
X54563921Y10637202D01*
X54462798Y10536079D01*
X54343890Y10456627D01*
X54343889Y10456626D01*
X54343888Y10456626D01*
X54211766Y10401899D01*
X54071506Y10374000D01*
X53928494Y10374000D01*
X53788234Y10401899D01*
X53656112Y10456626D01*
X53656111Y10456626D01*
X53656110Y10456627D01*
X53537202Y10536079D01*
X53436079Y10637202D01*
X53356627Y10756110D01*
X53356626Y10756112D01*
X53301899Y10888234D01*
X53274000Y11028494D01*
X53274000Y11171506D01*
X53301899Y11311766D01*
X53356626Y11443888D01*
X53436078Y11562796D01*
X53436079Y11562798D01*
X53537202Y11663921D01*
X53656110Y11743373D01*
X53656112Y11743374D01*
X53788234Y11798101D01*
X53928494Y11826000D01*
X54071506Y11826000D01*
X54211766Y11798101D01*
G37*
G36*
X44851000Y11284000D02*
G01*
X43449000Y11284000D01*
X43449000Y12186000D01*
X44851000Y12186000D01*
X44851000Y11284000D01*
G37*
G36*
X51151000Y11284000D02*
G01*
X49749000Y11284000D01*
X49749000Y12186000D01*
X51151000Y12186000D01*
X51151000Y11284000D01*
G37*
G36*
X1711766Y13798101D02*
G01*
X1843888Y13743374D01*
X1843890Y13743373D01*
X1962798Y13663921D01*
X2063921Y13562798D01*
X2141963Y13446000D01*
X2143374Y13443888D01*
X2198101Y13311766D01*
X2226000Y13171506D01*
X2226000Y13028494D01*
X2198101Y12888234D01*
X2143374Y12756112D01*
X2143373Y12756110D01*
X2063921Y12637202D01*
X1962798Y12536079D01*
X1843890Y12456627D01*
X1843889Y12456626D01*
X1843888Y12456626D01*
X1711766Y12401899D01*
X1571506Y12374000D01*
X1428494Y12374000D01*
X1288234Y12401899D01*
X1156112Y12456626D01*
X1156111Y12456626D01*
X1156110Y12456627D01*
X1037202Y12536079D01*
X936079Y12637202D01*
X856627Y12756110D01*
X856626Y12756112D01*
X801899Y12888234D01*
X774000Y13028494D01*
X774000Y13171506D01*
X801899Y13311766D01*
X856626Y13443888D01*
X858037Y13446000D01*
X936079Y13562798D01*
X1037202Y13663921D01*
X1156110Y13743373D01*
X1156112Y13743374D01*
X1288234Y13798101D01*
X1428494Y13826000D01*
X1571506Y13826000D01*
X1711766Y13798101D01*
G37*
G36*
X54211766Y13798101D02*
G01*
X54343888Y13743374D01*
X54343890Y13743373D01*
X54462798Y13663921D01*
X54563921Y13562798D01*
X54641963Y13446000D01*
X54643374Y13443888D01*
X54698101Y13311766D01*
X54726000Y13171506D01*
X54726000Y13028494D01*
X54698101Y12888234D01*
X54643374Y12756112D01*
X54643373Y12756110D01*
X54563921Y12637202D01*
X54462798Y12536079D01*
X54343890Y12456627D01*
X54343889Y12456626D01*
X54343888Y12456626D01*
X54211766Y12401899D01*
X54071506Y12374000D01*
X53928494Y12374000D01*
X53788234Y12401899D01*
X53656112Y12456626D01*
X53656111Y12456626D01*
X53656110Y12456627D01*
X53537202Y12536079D01*
X53436079Y12637202D01*
X53356627Y12756110D01*
X53356626Y12756112D01*
X53301899Y12888234D01*
X53274000Y13028494D01*
X53274000Y13171506D01*
X53301899Y13311766D01*
X53356626Y13443888D01*
X53358037Y13446000D01*
X53436079Y13562798D01*
X53537202Y13663921D01*
X53656110Y13743373D01*
X53656112Y13743374D01*
X53788234Y13798101D01*
X53928494Y13826000D01*
X54071506Y13826000D01*
X54211766Y13798101D01*
G37*
G36*
X51151000Y12544000D02*
G01*
X49749000Y12544000D01*
X49749000Y13446000D01*
X51151000Y13446000D01*
X51151000Y12544000D01*
G37*
G36*
X44851000Y12544000D02*
G01*
X43449000Y12544000D01*
X43449000Y13446000D01*
X44851000Y13446000D01*
X44851000Y12544000D01*
G37*
G36*
X8974712Y14439273D02*
G01*
X9124012Y14409576D01*
X9287984Y14341656D01*
X9435554Y14243053D01*
X9561053Y14117554D01*
X9659656Y13969984D01*
X9727576Y13806012D01*
X9740035Y13743373D01*
X9762200Y13631942D01*
X9762200Y13454458D01*
X9760098Y13443890D01*
X9727576Y13280388D01*
X9659656Y13116416D01*
X9561053Y12968846D01*
X9435554Y12843347D01*
X9287984Y12744744D01*
X9124012Y12676824D01*
X8974712Y12647127D01*
X8949942Y12642200D01*
X8772458Y12642200D01*
X8747688Y12647127D01*
X8598388Y12676824D01*
X8434416Y12744744D01*
X8286846Y12843347D01*
X8161347Y12968846D01*
X8062744Y13116416D01*
X7994824Y13280388D01*
X7962302Y13443890D01*
X7960200Y13454458D01*
X7960200Y13631942D01*
X7982365Y13743373D01*
X7994824Y13806012D01*
X8062744Y13969984D01*
X8161347Y14117554D01*
X8286846Y14243053D01*
X8434416Y14341656D01*
X8598388Y14409576D01*
X8747688Y14439273D01*
X8772458Y14444200D01*
X8949942Y14444200D01*
X8974712Y14439273D01*
G37*
G36*
X44851000Y13824000D02*
G01*
X43449000Y13824000D01*
X43449000Y14726000D01*
X44851000Y14726000D01*
X44851000Y13824000D01*
G37*
G36*
X51151000Y13824000D02*
G01*
X49749000Y13824000D01*
X49749000Y14726000D01*
X51151000Y14726000D01*
X51151000Y13824000D01*
G37*
G36*
X1711766Y15798101D02*
G01*
X1843888Y15743374D01*
X1843890Y15743373D01*
X1962798Y15663921D01*
X2063921Y15562798D01*
X2143373Y15443890D01*
X2143374Y15443888D01*
X2198101Y15311766D01*
X2226000Y15171506D01*
X2226000Y15028494D01*
X2198101Y14888234D01*
X2143374Y14756112D01*
X2143373Y14756110D01*
X2063921Y14637202D01*
X1962798Y14536079D01*
X1843890Y14456627D01*
X1843889Y14456626D01*
X1843888Y14456626D01*
X1711766Y14401899D01*
X1571506Y14374000D01*
X1428494Y14374000D01*
X1288234Y14401899D01*
X1156112Y14456626D01*
X1156111Y14456626D01*
X1156110Y14456627D01*
X1037202Y14536079D01*
X936079Y14637202D01*
X856627Y14756110D01*
X856626Y14756112D01*
X801899Y14888234D01*
X774000Y15028494D01*
X774000Y15171506D01*
X801899Y15311766D01*
X856626Y15443888D01*
X856627Y15443890D01*
X936079Y15562798D01*
X1037202Y15663921D01*
X1156110Y15743373D01*
X1156112Y15743374D01*
X1288234Y15798101D01*
X1428494Y15826000D01*
X1571506Y15826000D01*
X1711766Y15798101D01*
G37*
G36*
X54211766Y15798101D02*
G01*
X54343888Y15743374D01*
X54343890Y15743373D01*
X54462798Y15663921D01*
X54563921Y15562798D01*
X54643373Y15443890D01*
X54643374Y15443888D01*
X54698101Y15311766D01*
X54726000Y15171506D01*
X54726000Y15028494D01*
X54698101Y14888234D01*
X54643374Y14756112D01*
X54643373Y14756110D01*
X54563921Y14637202D01*
X54462798Y14536079D01*
X54343890Y14456627D01*
X54343889Y14456626D01*
X54343888Y14456626D01*
X54211766Y14401899D01*
X54071506Y14374000D01*
X53928494Y14374000D01*
X53788234Y14401899D01*
X53656112Y14456626D01*
X53656111Y14456626D01*
X53656110Y14456627D01*
X53537202Y14536079D01*
X53436079Y14637202D01*
X53356627Y14756110D01*
X53356626Y14756112D01*
X53301899Y14888234D01*
X53274000Y15028494D01*
X53274000Y15171506D01*
X53301899Y15311766D01*
X53356626Y15443888D01*
X53356627Y15443890D01*
X53436079Y15562798D01*
X53537202Y15663921D01*
X53656110Y15743373D01*
X53656112Y15743374D01*
X53788234Y15798101D01*
X53928494Y15826000D01*
X54071506Y15826000D01*
X54211766Y15798101D01*
G37*
G36*
X8974712Y16979273D02*
G01*
X9124012Y16949576D01*
X9287984Y16881656D01*
X9435554Y16783053D01*
X9561053Y16657554D01*
X9659656Y16509984D01*
X9727576Y16346012D01*
X9762200Y16171941D01*
X9762200Y15994459D01*
X9727576Y15820388D01*
X9659656Y15656416D01*
X9561053Y15508846D01*
X9435554Y15383347D01*
X9287984Y15284744D01*
X9124012Y15216824D01*
X8974712Y15187127D01*
X8949942Y15182200D01*
X8772458Y15182200D01*
X8747688Y15187127D01*
X8598388Y15216824D01*
X8434416Y15284744D01*
X8286846Y15383347D01*
X8161347Y15508846D01*
X8062744Y15656416D01*
X7994824Y15820388D01*
X7960200Y15994459D01*
X7960200Y16171941D01*
X7994824Y16346012D01*
X8062744Y16509984D01*
X8161347Y16657554D01*
X8286846Y16783053D01*
X8434416Y16881656D01*
X8598388Y16949576D01*
X8747688Y16979273D01*
X8772458Y16984200D01*
X8949942Y16984200D01*
X8974712Y16979273D01*
G37*
G36*
X1711766Y17798101D02*
G01*
X1843888Y17743374D01*
X1843890Y17743373D01*
X1962798Y17663921D01*
X2063921Y17562798D01*
X2114023Y17487815D01*
X2143374Y17443888D01*
X2198101Y17311766D01*
X2226000Y17171506D01*
X2226000Y17028494D01*
X2198101Y16888234D01*
X2154533Y16783053D01*
X2143373Y16756110D01*
X2063921Y16637202D01*
X1962798Y16536079D01*
X1843890Y16456627D01*
X1843889Y16456626D01*
X1843888Y16456626D01*
X1711766Y16401899D01*
X1571506Y16374000D01*
X1428494Y16374000D01*
X1288234Y16401899D01*
X1156112Y16456626D01*
X1156111Y16456626D01*
X1156110Y16456627D01*
X1037202Y16536079D01*
X936079Y16637202D01*
X856627Y16756110D01*
X845467Y16783053D01*
X801899Y16888234D01*
X774000Y17028494D01*
X774000Y17171506D01*
X801899Y17311766D01*
X856626Y17443888D01*
X885977Y17487815D01*
X936079Y17562798D01*
X1037202Y17663921D01*
X1156110Y17743373D01*
X1156112Y17743374D01*
X1288234Y17798101D01*
X1428494Y17826000D01*
X1571506Y17826000D01*
X1711766Y17798101D01*
G37*
G36*
X54211766Y17798101D02*
G01*
X54343888Y17743374D01*
X54343890Y17743373D01*
X54462798Y17663921D01*
X54563921Y17562798D01*
X54614023Y17487815D01*
X54643374Y17443888D01*
X54698101Y17311766D01*
X54726000Y17171506D01*
X54726000Y17028494D01*
X54698101Y16888234D01*
X54654533Y16783053D01*
X54643373Y16756110D01*
X54563921Y16637202D01*
X54462798Y16536079D01*
X54343890Y16456627D01*
X54343889Y16456626D01*
X54343888Y16456626D01*
X54211766Y16401899D01*
X54071506Y16374000D01*
X53928494Y16374000D01*
X53788234Y16401899D01*
X53656112Y16456626D01*
X53656111Y16456626D01*
X53656110Y16456627D01*
X53537202Y16536079D01*
X53436079Y16637202D01*
X53356627Y16756110D01*
X53345467Y16783053D01*
X53301899Y16888234D01*
X53274000Y17028494D01*
X53274000Y17171506D01*
X53301899Y17311766D01*
X53356626Y17443888D01*
X53385977Y17487815D01*
X53436079Y17562798D01*
X53537202Y17663921D01*
X53656110Y17743373D01*
X53656112Y17743374D01*
X53788234Y17798101D01*
X53928494Y17826000D01*
X54071506Y17826000D01*
X54211766Y17798101D01*
G37*
G36*
X41291228Y18222297D02*
G01*
X41446100Y18158147D01*
X41585481Y18065015D01*
X41704015Y17946481D01*
X41797147Y17807100D01*
X41861297Y17652228D01*
X41894000Y17487816D01*
X41894000Y17320184D01*
X41861297Y17155772D01*
X41797147Y17000900D01*
X41704015Y16861519D01*
X41585481Y16742985D01*
X41446100Y16649853D01*
X41291228Y16585703D01*
X41126816Y16553000D01*
X40959184Y16553000D01*
X40794772Y16585703D01*
X40639900Y16649853D01*
X40500519Y16742985D01*
X40381985Y16861519D01*
X40288853Y17000900D01*
X40224703Y17155772D01*
X40192000Y17320184D01*
X40192000Y17487816D01*
X40224703Y17652228D01*
X40288853Y17807100D01*
X40381985Y17946481D01*
X40500519Y18065015D01*
X40639900Y18158147D01*
X40794772Y18222297D01*
X40959184Y18255000D01*
X41126816Y18255000D01*
X41291228Y18222297D01*
G37*
G36*
X54211766Y19798101D02*
G01*
X54340037Y19744969D01*
X54343890Y19743373D01*
X54462798Y19663921D01*
X54563921Y19562798D01*
X54643373Y19443890D01*
X54643374Y19443888D01*
X54698101Y19311766D01*
X54726000Y19171506D01*
X54726000Y19028494D01*
X54698101Y18888234D01*
X54644755Y18759446D01*
X54643373Y18756110D01*
X54563921Y18637202D01*
X54462798Y18536079D01*
X54343890Y18456627D01*
X54343889Y18456626D01*
X54343888Y18456626D01*
X54211766Y18401899D01*
X54071506Y18374000D01*
X53928494Y18374000D01*
X53788234Y18401899D01*
X53656112Y18456626D01*
X53656111Y18456626D01*
X53656110Y18456627D01*
X53537202Y18536079D01*
X53436079Y18637202D01*
X53356627Y18756110D01*
X53355245Y18759446D01*
X53301899Y18888234D01*
X53274000Y19028494D01*
X53274000Y19171506D01*
X53301899Y19311766D01*
X53356626Y19443888D01*
X53356627Y19443890D01*
X53436079Y19562798D01*
X53537202Y19663921D01*
X53656110Y19743373D01*
X53659963Y19744969D01*
X53788234Y19798101D01*
X53928494Y19826000D01*
X54071506Y19826000D01*
X54211766Y19798101D01*
G37*
G36*
X1711766Y19798101D02*
G01*
X1840037Y19744969D01*
X1843890Y19743373D01*
X1962798Y19663921D01*
X2063921Y19562798D01*
X2143373Y19443890D01*
X2143374Y19443888D01*
X2198101Y19311766D01*
X2226000Y19171506D01*
X2226000Y19028494D01*
X2198101Y18888234D01*
X2144755Y18759446D01*
X2143373Y18756110D01*
X2063921Y18637202D01*
X1962798Y18536079D01*
X1843890Y18456627D01*
X1843889Y18456626D01*
X1843888Y18456626D01*
X1711766Y18401899D01*
X1571506Y18374000D01*
X1428494Y18374000D01*
X1288234Y18401899D01*
X1156112Y18456626D01*
X1156111Y18456626D01*
X1156110Y18456627D01*
X1037202Y18536079D01*
X936079Y18637202D01*
X856627Y18756110D01*
X855245Y18759446D01*
X801899Y18888234D01*
X774000Y19028494D01*
X774000Y19171506D01*
X801899Y19311766D01*
X856626Y19443888D01*
X856627Y19443890D01*
X936079Y19562798D01*
X1037202Y19663921D01*
X1156110Y19743373D01*
X1159963Y19744969D01*
X1288234Y19798101D01*
X1428494Y19826000D01*
X1571506Y19826000D01*
X1711766Y19798101D01*
G37*
G36*
X46459499Y19817555D02*
G01*
X46496995Y19806180D01*
X46531554Y19787708D01*
X46561847Y19762847D01*
X46586708Y19732554D01*
X46605180Y19697995D01*
X46616555Y19660499D01*
X46621000Y19615362D01*
X46621000Y18876638D01*
X46616555Y18831501D01*
X46605180Y18794005D01*
X46586708Y18759446D01*
X46561847Y18729153D01*
X46531554Y18704292D01*
X46496995Y18685820D01*
X46459499Y18674445D01*
X46414362Y18670000D01*
X45775638Y18670000D01*
X45730501Y18674445D01*
X45693005Y18685820D01*
X45658446Y18704292D01*
X45628153Y18729153D01*
X45603292Y18759446D01*
X45584820Y18794005D01*
X45573445Y18831501D01*
X45569000Y18876638D01*
X45569000Y19615362D01*
X45573445Y19660499D01*
X45584820Y19697995D01*
X45603292Y19732554D01*
X45628153Y19762847D01*
X45658446Y19787708D01*
X45693005Y19806180D01*
X45730501Y19817555D01*
X45775638Y19822000D01*
X46414362Y19822000D01*
X46459499Y19817555D01*
G37*
G36*
X32236785Y24008464D02*
G01*
X31775751Y23547430D01*
X31671099Y23442779D01*
X31210065Y22981745D01*
X31105414Y22877093D01*
X28947324Y20719003D01*
X28842672Y20614352D01*
X28381638Y20153318D01*
X28276987Y20048666D01*
X27815953Y19587632D01*
X26612457Y20791128D01*
X27073491Y21252162D01*
X27073492Y21252161D01*
X27089756Y21268425D01*
X27089765Y21268436D01*
X27178143Y21356813D01*
X27178142Y21356814D01*
X27639176Y21817848D01*
X27639177Y21817847D01*
X27727554Y21906225D01*
X27727565Y21906234D01*
X27743829Y21922498D01*
X27743828Y21922499D01*
X28204862Y22383533D01*
X28204863Y22383532D01*
X28293250Y22471920D01*
X28309514Y22488183D01*
X28309513Y22488184D01*
X28770547Y22949218D01*
X28770548Y22949217D01*
X28875200Y23053869D01*
X28875199Y23053870D01*
X29336233Y23514904D01*
X29336234Y23514903D01*
X29424621Y23603291D01*
X29440885Y23619554D01*
X29440884Y23619555D01*
X29901918Y24080589D01*
X29901919Y24080588D01*
X29918183Y24096852D01*
X29918192Y24096863D01*
X30006570Y24185240D01*
X30006569Y24185241D01*
X30467603Y24646275D01*
X30467604Y24646274D01*
X30555981Y24734652D01*
X30555992Y24734661D01*
X30572256Y24750925D01*
X30572255Y24750926D01*
X31033289Y25211960D01*
X32236785Y24008464D01*
G37*
G36*
X22266579Y24750926D02*
G01*
X22266579Y24750925D01*
X22282843Y24734661D01*
X22282849Y24734656D01*
X22371231Y24646274D01*
X22371231Y24646275D01*
X22832265Y24185241D01*
X22832265Y24185240D01*
X22920647Y24096858D01*
X22920652Y24096852D01*
X22936916Y24080588D01*
X22936916Y24080589D01*
X23397950Y23619555D01*
X23397950Y23619554D01*
X23502601Y23514903D01*
X23502601Y23514904D01*
X23963635Y23053870D01*
X23963635Y23053869D01*
X24068287Y22949217D01*
X24068287Y22949218D01*
X24529321Y22488184D01*
X24529321Y22488183D01*
X24633972Y22383532D01*
X24633972Y22383533D01*
X25095006Y21922499D01*
X25095006Y21922498D01*
X25111270Y21906234D01*
X25111276Y21906229D01*
X25199658Y21817847D01*
X25199658Y21817848D01*
X25660692Y21356814D01*
X25660692Y21356813D01*
X25749074Y21268431D01*
X25749079Y21268425D01*
X25765343Y21252161D01*
X25765343Y21252162D01*
X26226377Y20791128D01*
X25022881Y19587632D01*
X24561847Y20048666D01*
X24561848Y20048666D01*
X24473466Y20137048D01*
X24473461Y20137054D01*
X24457197Y20153318D01*
X24457196Y20153318D01*
X23996162Y20614352D01*
X23996163Y20614352D01*
X23979899Y20630616D01*
X23979893Y20630621D01*
X23891511Y20719003D01*
X23891510Y20719003D01*
X23430476Y21180037D01*
X23430477Y21180037D01*
X23325826Y21284688D01*
X23325825Y21284688D01*
X22864791Y21745722D01*
X22864792Y21745722D01*
X22760140Y21850374D01*
X22760139Y21850374D01*
X22299105Y22311408D01*
X22299106Y22311408D01*
X22194455Y22416059D01*
X22194454Y22416059D01*
X21733420Y22877093D01*
X21733421Y22877093D01*
X21645039Y22965475D01*
X21645034Y22965481D01*
X21628770Y22981745D01*
X21628769Y22981745D01*
X21167735Y23442779D01*
X21167736Y23442779D01*
X21151472Y23459043D01*
X21151466Y23459048D01*
X21063084Y23547430D01*
X21063083Y23547430D01*
X20602049Y24008464D01*
X21805545Y25211960D01*
X22266579Y24750926D01*
G37*
G36*
X15049000Y19615000D02*
G01*
X13647000Y19615000D01*
X13647000Y20517000D01*
X15049000Y20517000D01*
X15049000Y19615000D01*
G37*
G36*
X8749000Y19615000D02*
G01*
X7347000Y19615000D01*
X7347000Y20517000D01*
X8749000Y20517000D01*
X8749000Y19615000D01*
G37*
G36*
X54211766Y21798101D02*
G01*
X54338219Y21745722D01*
X54343890Y21743373D01*
X54462798Y21663921D01*
X54563921Y21562798D01*
X54640630Y21447995D01*
X54643374Y21443888D01*
X54698101Y21311766D01*
X54726000Y21171506D01*
X54726000Y21028494D01*
X54698101Y20888234D01*
X54657878Y20791128D01*
X54643373Y20756110D01*
X54563921Y20637202D01*
X54462798Y20536079D01*
X54343890Y20456627D01*
X54343889Y20456626D01*
X54343888Y20456626D01*
X54211766Y20401899D01*
X54071506Y20374000D01*
X53928494Y20374000D01*
X53788234Y20401899D01*
X53656112Y20456626D01*
X53656111Y20456626D01*
X53656110Y20456627D01*
X53537202Y20536079D01*
X53436079Y20637202D01*
X53356627Y20756110D01*
X53342122Y20791128D01*
X53301899Y20888234D01*
X53274000Y21028494D01*
X53274000Y21171506D01*
X53301899Y21311766D01*
X53356626Y21443888D01*
X53359370Y21447995D01*
X53436079Y21562798D01*
X53537202Y21663921D01*
X53656110Y21743373D01*
X53661781Y21745722D01*
X53788234Y21798101D01*
X53928494Y21826000D01*
X54071506Y21826000D01*
X54211766Y21798101D01*
G37*
G36*
X1711766Y21798101D02*
G01*
X1838219Y21745722D01*
X1843890Y21743373D01*
X1962798Y21663921D01*
X2063921Y21562798D01*
X2140630Y21447995D01*
X2143374Y21443888D01*
X2198101Y21311766D01*
X2226000Y21171506D01*
X2226000Y21028494D01*
X2198101Y20888234D01*
X2157878Y20791128D01*
X2143373Y20756110D01*
X2063921Y20637202D01*
X1962798Y20536079D01*
X1843890Y20456627D01*
X1843889Y20456626D01*
X1843888Y20456626D01*
X1711766Y20401899D01*
X1571506Y20374000D01*
X1428494Y20374000D01*
X1288234Y20401899D01*
X1156112Y20456626D01*
X1156111Y20456626D01*
X1156110Y20456627D01*
X1037202Y20536079D01*
X936079Y20637202D01*
X856627Y20756110D01*
X842122Y20791128D01*
X801899Y20888234D01*
X774000Y21028494D01*
X774000Y21171506D01*
X801899Y21311766D01*
X856626Y21443888D01*
X859370Y21447995D01*
X936079Y21562798D01*
X1037202Y21663921D01*
X1156110Y21743373D01*
X1161781Y21745722D01*
X1288234Y21798101D01*
X1428494Y21826000D01*
X1571506Y21826000D01*
X1711766Y21798101D01*
G37*
G36*
X46459499Y21567555D02*
G01*
X46496995Y21556180D01*
X46531554Y21537708D01*
X46561847Y21512847D01*
X46586708Y21482554D01*
X46605180Y21447995D01*
X46616555Y21410499D01*
X46621000Y21365362D01*
X46621000Y20626638D01*
X46616555Y20581501D01*
X46605180Y20544005D01*
X46586708Y20509446D01*
X46561847Y20479153D01*
X46531554Y20454292D01*
X46496995Y20435820D01*
X46459499Y20424445D01*
X46414362Y20420000D01*
X45775638Y20420000D01*
X45730501Y20424445D01*
X45693005Y20435820D01*
X45658446Y20454292D01*
X45628153Y20479153D01*
X45603292Y20509446D01*
X45584820Y20544005D01*
X45573445Y20581501D01*
X45569000Y20626638D01*
X45569000Y21365362D01*
X45573445Y21410499D01*
X45584820Y21447995D01*
X45603292Y21482554D01*
X45628153Y21512847D01*
X45658446Y21537708D01*
X45693005Y21556180D01*
X45730501Y21567555D01*
X45775638Y21572000D01*
X46414362Y21572000D01*
X46459499Y21567555D01*
G37*
G36*
X43244499Y21562555D02*
G01*
X43281995Y21551180D01*
X43316554Y21532708D01*
X43346847Y21507847D01*
X43371708Y21477554D01*
X43390180Y21442995D01*
X43401555Y21405499D01*
X43406000Y21360362D01*
X43406000Y20721638D01*
X43401555Y20676501D01*
X43390180Y20639005D01*
X43371708Y20604446D01*
X43346847Y20574153D01*
X43316554Y20549292D01*
X43281995Y20530820D01*
X43244499Y20519445D01*
X43199362Y20515000D01*
X42460638Y20515000D01*
X42415501Y20519445D01*
X42378005Y20530820D01*
X42343446Y20549292D01*
X42313153Y20574153D01*
X42288292Y20604446D01*
X42269820Y20639005D01*
X42258445Y20676501D01*
X42254000Y20721638D01*
X42254000Y21360362D01*
X42258445Y21405499D01*
X42269820Y21442995D01*
X42288292Y21477554D01*
X42313153Y21507847D01*
X42343446Y21532708D01*
X42378005Y21551180D01*
X42415501Y21562555D01*
X42460638Y21567000D01*
X43199362Y21567000D01*
X43244499Y21562555D01*
G37*
G36*
X44994499Y21562555D02*
G01*
X45031995Y21551180D01*
X45066554Y21532708D01*
X45096847Y21507847D01*
X45121708Y21477554D01*
X45140180Y21442995D01*
X45151555Y21405499D01*
X45156000Y21360362D01*
X45156000Y20721638D01*
X45151555Y20676501D01*
X45140180Y20639005D01*
X45121708Y20604446D01*
X45096847Y20574153D01*
X45066554Y20549292D01*
X45031995Y20530820D01*
X44994499Y20519445D01*
X44949362Y20515000D01*
X44210638Y20515000D01*
X44165501Y20519445D01*
X44128005Y20530820D01*
X44093446Y20549292D01*
X44063153Y20574153D01*
X44038292Y20604446D01*
X44019820Y20639005D01*
X44008445Y20676501D01*
X44004000Y20721638D01*
X44004000Y21360362D01*
X44008445Y21405499D01*
X44019820Y21442995D01*
X44038292Y21477554D01*
X44063153Y21507847D01*
X44093446Y21532708D01*
X44128005Y21551180D01*
X44165501Y21562555D01*
X44210638Y21567000D01*
X44949362Y21567000D01*
X44994499Y21562555D01*
G37*
G36*
X15049000Y20895000D02*
G01*
X13647000Y20895000D01*
X13647000Y21797000D01*
X15049000Y21797000D01*
X15049000Y20895000D01*
G37*
G36*
X8749000Y20895000D02*
G01*
X7347000Y20895000D01*
X7347000Y21797000D01*
X8749000Y21797000D01*
X8749000Y20895000D01*
G37*
G36*
X46459499Y23117555D02*
G01*
X46496995Y23106180D01*
X46531554Y23087708D01*
X46561847Y23062847D01*
X46586708Y23032554D01*
X46605180Y22997995D01*
X46616555Y22960499D01*
X46621000Y22915362D01*
X46621000Y22176638D01*
X46616555Y22131501D01*
X46605180Y22094005D01*
X46586708Y22059446D01*
X46561847Y22029153D01*
X46531554Y22004292D01*
X46496995Y21985820D01*
X46459499Y21974445D01*
X46414362Y21970000D01*
X45775638Y21970000D01*
X45730501Y21974445D01*
X45693005Y21985820D01*
X45658446Y22004292D01*
X45628153Y22029153D01*
X45603292Y22059446D01*
X45584820Y22094005D01*
X45573445Y22131501D01*
X45569000Y22176638D01*
X45569000Y22915362D01*
X45573445Y22960499D01*
X45584820Y22997995D01*
X45603292Y23032554D01*
X45628153Y23062847D01*
X45658446Y23087708D01*
X45693005Y23106180D01*
X45730501Y23117555D01*
X45775638Y23122000D01*
X46414362Y23122000D01*
X46459499Y23117555D01*
G37*
G36*
X44999499Y23032555D02*
G01*
X45036995Y23021180D01*
X45071554Y23002708D01*
X45101847Y22977847D01*
X45126708Y22947554D01*
X45145180Y22912995D01*
X45156555Y22875499D01*
X45161000Y22830362D01*
X45161000Y22191638D01*
X45156555Y22146501D01*
X45145180Y22109005D01*
X45126708Y22074446D01*
X45101847Y22044153D01*
X45071554Y22019292D01*
X45036995Y22000820D01*
X44999499Y21989445D01*
X44954362Y21985000D01*
X44215638Y21985000D01*
X44170501Y21989445D01*
X44133005Y22000820D01*
X44098446Y22019292D01*
X44068153Y22044153D01*
X44043292Y22074446D01*
X44024820Y22109005D01*
X44013445Y22146501D01*
X44009000Y22191638D01*
X44009000Y22830362D01*
X44013445Y22875499D01*
X44024820Y22912995D01*
X44043292Y22947554D01*
X44068153Y22977847D01*
X44098446Y23002708D01*
X44133005Y23021180D01*
X44170501Y23032555D01*
X44215638Y23037000D01*
X44954362Y23037000D01*
X44999499Y23032555D01*
G37*
G36*
X43249499Y23032555D02*
G01*
X43286995Y23021180D01*
X43321554Y23002708D01*
X43351847Y22977847D01*
X43376708Y22947554D01*
X43395180Y22912995D01*
X43406555Y22875499D01*
X43411000Y22830362D01*
X43411000Y22191638D01*
X43406555Y22146501D01*
X43395180Y22109005D01*
X43376708Y22074446D01*
X43351847Y22044153D01*
X43321554Y22019292D01*
X43286995Y22000820D01*
X43249499Y21989445D01*
X43204362Y21985000D01*
X42465638Y21985000D01*
X42420501Y21989445D01*
X42383005Y22000820D01*
X42348446Y22019292D01*
X42318153Y22044153D01*
X42293292Y22074446D01*
X42274820Y22109005D01*
X42263445Y22146501D01*
X42259000Y22191638D01*
X42259000Y22830362D01*
X42263445Y22875499D01*
X42274820Y22912995D01*
X42293292Y22947554D01*
X42318153Y22977847D01*
X42348446Y23002708D01*
X42383005Y23021180D01*
X42420501Y23032555D01*
X42465638Y23037000D01*
X43204362Y23037000D01*
X43249499Y23032555D01*
G37*
G36*
X8749000Y22155000D02*
G01*
X7347000Y22155000D01*
X7347000Y23057000D01*
X8749000Y23057000D01*
X8749000Y22155000D01*
G37*
G36*
X15049000Y22155000D02*
G01*
X13647000Y22155000D01*
X13647000Y23057000D01*
X15049000Y23057000D01*
X15049000Y22155000D01*
G37*
G36*
X1711766Y23798101D02*
G01*
X1843888Y23743374D01*
X1843890Y23743373D01*
X1962798Y23663921D01*
X2063921Y23562798D01*
X2133248Y23459043D01*
X2143374Y23443888D01*
X2198101Y23311766D01*
X2226000Y23171506D01*
X2226000Y23028494D01*
X2198101Y22888234D01*
X2172036Y22825309D01*
X2143373Y22756110D01*
X2063921Y22637202D01*
X1962798Y22536079D01*
X1843890Y22456627D01*
X1843889Y22456626D01*
X1843888Y22456626D01*
X1711766Y22401899D01*
X1571506Y22374000D01*
X1428494Y22374000D01*
X1288234Y22401899D01*
X1156112Y22456626D01*
X1156111Y22456626D01*
X1156110Y22456627D01*
X1037202Y22536079D01*
X936079Y22637202D01*
X856627Y22756110D01*
X827964Y22825309D01*
X801899Y22888234D01*
X774000Y23028494D01*
X774000Y23171506D01*
X801899Y23311766D01*
X856626Y23443888D01*
X866752Y23459043D01*
X936079Y23562798D01*
X1037202Y23663921D01*
X1156110Y23743373D01*
X1156112Y23743374D01*
X1288234Y23798101D01*
X1428494Y23826000D01*
X1571506Y23826000D01*
X1711766Y23798101D01*
G37*
G36*
X54211766Y23798101D02*
G01*
X54343888Y23743374D01*
X54343890Y23743373D01*
X54462798Y23663921D01*
X54563921Y23562798D01*
X54633248Y23459043D01*
X54643374Y23443888D01*
X54698101Y23311766D01*
X54726000Y23171506D01*
X54726000Y23028494D01*
X54698101Y22888234D01*
X54672036Y22825309D01*
X54643373Y22756110D01*
X54563921Y22637202D01*
X54462798Y22536079D01*
X54343890Y22456627D01*
X54343889Y22456626D01*
X54343888Y22456626D01*
X54211766Y22401899D01*
X54071506Y22374000D01*
X53928494Y22374000D01*
X53788234Y22401899D01*
X53656112Y22456626D01*
X53656111Y22456626D01*
X53656110Y22456627D01*
X53537202Y22536079D01*
X53436079Y22637202D01*
X53356627Y22756110D01*
X53327964Y22825309D01*
X53301899Y22888234D01*
X53274000Y23028494D01*
X53274000Y23171506D01*
X53301899Y23311766D01*
X53356626Y23443888D01*
X53366752Y23459043D01*
X53436079Y23562798D01*
X53537202Y23663921D01*
X53656110Y23743373D01*
X53656112Y23743374D01*
X53788234Y23798101D01*
X53928494Y23826000D01*
X54071506Y23826000D01*
X54211766Y23798101D01*
G37*
G36*
X8749000Y23425000D02*
G01*
X7347000Y23425000D01*
X7347000Y24327000D01*
X8749000Y24327000D01*
X8749000Y23425000D01*
G37*
G36*
X15049000Y23425000D02*
G01*
X13647000Y23425000D01*
X13647000Y24327000D01*
X15049000Y24327000D01*
X15049000Y23425000D01*
G37*
G36*
X46459499Y24867555D02*
G01*
X46496995Y24856180D01*
X46531554Y24837708D01*
X46561847Y24812847D01*
X46586708Y24782554D01*
X46605180Y24747995D01*
X46616555Y24710499D01*
X46621000Y24665362D01*
X46621000Y23926638D01*
X46616555Y23881501D01*
X46605180Y23844005D01*
X46586708Y23809446D01*
X46561847Y23779153D01*
X46531554Y23754292D01*
X46496995Y23735820D01*
X46459499Y23724445D01*
X46414362Y23720000D01*
X45775638Y23720000D01*
X45730501Y23724445D01*
X45693005Y23735820D01*
X45658446Y23754292D01*
X45628153Y23779153D01*
X45603292Y23809446D01*
X45584820Y23844005D01*
X45573445Y23881501D01*
X45569000Y23926638D01*
X45569000Y24665362D01*
X45573445Y24710499D01*
X45584820Y24747995D01*
X45603292Y24782554D01*
X45628153Y24812847D01*
X45658446Y24837708D01*
X45693005Y24856180D01*
X45730501Y24867555D01*
X45775638Y24872000D01*
X46414362Y24872000D01*
X46459499Y24867555D01*
G37*
G36*
X54211766Y25798101D02*
G01*
X54343888Y25743374D01*
X54343890Y25743373D01*
X54462798Y25663921D01*
X54563921Y25562798D01*
X54563922Y25562796D01*
X54643374Y25443888D01*
X54698101Y25311766D01*
X54726000Y25171506D01*
X54726000Y25028494D01*
X54698101Y24888234D01*
X54643374Y24756112D01*
X54643373Y24756110D01*
X54563921Y24637202D01*
X54462798Y24536079D01*
X54343890Y24456627D01*
X54343889Y24456626D01*
X54343888Y24456626D01*
X54211766Y24401899D01*
X54071506Y24374000D01*
X53928494Y24374000D01*
X53788234Y24401899D01*
X53656112Y24456626D01*
X53656111Y24456626D01*
X53656110Y24456627D01*
X53537202Y24536079D01*
X53436079Y24637202D01*
X53356627Y24756110D01*
X53356626Y24756112D01*
X53301899Y24888234D01*
X53274000Y25028494D01*
X53274000Y25171506D01*
X53301899Y25311766D01*
X53356626Y25443888D01*
X53436078Y25562796D01*
X53436079Y25562798D01*
X53537202Y25663921D01*
X53656110Y25743373D01*
X53656112Y25743374D01*
X53788234Y25798101D01*
X53928494Y25826000D01*
X54071506Y25826000D01*
X54211766Y25798101D01*
G37*
G36*
X1711766Y25798101D02*
G01*
X1843888Y25743374D01*
X1843890Y25743373D01*
X1962798Y25663921D01*
X2063921Y25562798D01*
X2063922Y25562796D01*
X2143374Y25443888D01*
X2198101Y25311766D01*
X2226000Y25171506D01*
X2226000Y25028494D01*
X2198101Y24888234D01*
X2143374Y24756112D01*
X2143373Y24756110D01*
X2063921Y24637202D01*
X1962798Y24536079D01*
X1843890Y24456627D01*
X1843889Y24456626D01*
X1843888Y24456626D01*
X1711766Y24401899D01*
X1571506Y24374000D01*
X1428494Y24374000D01*
X1288234Y24401899D01*
X1156112Y24456626D01*
X1156111Y24456626D01*
X1156110Y24456627D01*
X1037202Y24536079D01*
X936079Y24637202D01*
X856627Y24756110D01*
X856626Y24756112D01*
X801899Y24888234D01*
X774000Y25028494D01*
X774000Y25171506D01*
X801899Y25311766D01*
X856626Y25443888D01*
X936078Y25562796D01*
X936079Y25562798D01*
X1037202Y25663921D01*
X1156110Y25743373D01*
X1156112Y25743374D01*
X1288234Y25798101D01*
X1428494Y25826000D01*
X1571506Y25826000D01*
X1711766Y25798101D01*
G37*
G36*
X15049000Y24705000D02*
G01*
X13647000Y24705000D01*
X13647000Y25607000D01*
X15049000Y25607000D01*
X15049000Y24705000D01*
G37*
G36*
X8749000Y24705000D02*
G01*
X7347000Y24705000D01*
X7347000Y25607000D01*
X8749000Y25607000D01*
X8749000Y24705000D01*
G37*
G36*
X26226377Y30018872D02*
G01*
X25749079Y29541574D01*
X25660692Y29453186D01*
X25199658Y28992152D01*
X25111270Y28903765D01*
X24633972Y28426467D01*
X24545584Y28338080D01*
X24529321Y28321816D01*
X23502601Y27295096D01*
X23414213Y27206709D01*
X23397950Y27190445D01*
X22920652Y26713147D01*
X22832265Y26624759D01*
X22371231Y26163725D01*
X22282843Y26075338D01*
X21805545Y25598040D01*
X20602049Y26801536D01*
X21063083Y27262570D01*
X21063084Y27262569D01*
X21151461Y27350947D01*
X21151472Y27350956D01*
X21167736Y27367220D01*
X21167735Y27367221D01*
X21628769Y27828255D01*
X21628770Y27828254D01*
X21645034Y27844518D01*
X21645043Y27844529D01*
X21733421Y27932906D01*
X21733420Y27932907D01*
X22194454Y28393941D01*
X22194455Y28393940D01*
X22299106Y28498591D01*
X22299105Y28498592D01*
X22760139Y28959626D01*
X22760140Y28959625D01*
X22864792Y29064277D01*
X22864791Y29064278D01*
X23325825Y29525312D01*
X23325826Y29525311D01*
X23430477Y29629962D01*
X23430476Y29629963D01*
X23891510Y30090997D01*
X23891511Y30090996D01*
X23979888Y30179374D01*
X23979899Y30179383D01*
X23996163Y30195647D01*
X23996162Y30195648D01*
X24457196Y30656682D01*
X24457197Y30656681D01*
X24473461Y30672945D01*
X24473470Y30672956D01*
X24561848Y30761333D01*
X24561847Y30761334D01*
X25022881Y31222368D01*
X26226377Y30018872D01*
G37*
G36*
X28276987Y30761334D02*
G01*
X28276987Y30761333D01*
X28365369Y30672951D01*
X28365374Y30672945D01*
X28381638Y30656681D01*
X28381638Y30656682D01*
X28842672Y30195648D01*
X28842672Y30195647D01*
X28858936Y30179383D01*
X28858942Y30179378D01*
X28947324Y30090996D01*
X28947324Y30090997D01*
X29408358Y29629963D01*
X29408358Y29629962D01*
X29513009Y29525311D01*
X29513009Y29525312D01*
X29974043Y29064278D01*
X29974043Y29064277D01*
X30078695Y28959625D01*
X30078695Y28959626D01*
X30539729Y28498592D01*
X30539729Y28498591D01*
X30644380Y28393940D01*
X30644380Y28393941D01*
X31105414Y27932907D01*
X31105414Y27932906D01*
X31193796Y27844524D01*
X31193801Y27844518D01*
X31210065Y27828254D01*
X31210065Y27828255D01*
X31671099Y27367221D01*
X31671099Y27367220D01*
X31687363Y27350956D01*
X31687369Y27350951D01*
X31775751Y27262569D01*
X31775751Y27262570D01*
X32236785Y26801536D01*
X31033289Y25598040D01*
X30572255Y26059074D01*
X30572256Y26059074D01*
X30555992Y26075338D01*
X30555986Y26075343D01*
X30467604Y26163725D01*
X30467603Y26163725D01*
X30006569Y26624759D01*
X30006570Y26624759D01*
X29918188Y26713141D01*
X29918183Y26713147D01*
X29901919Y26729411D01*
X29901918Y26729411D01*
X29440884Y27190445D01*
X29440885Y27190445D01*
X29336234Y27295096D01*
X29336233Y27295096D01*
X28875199Y27756130D01*
X28875200Y27756130D01*
X28770548Y27860782D01*
X28770547Y27860782D01*
X28309513Y28321816D01*
X28309514Y28321816D01*
X28204863Y28426467D01*
X28204862Y28426467D01*
X27743828Y28887501D01*
X27743829Y28887501D01*
X27727565Y28903765D01*
X27727559Y28903770D01*
X27639177Y28992152D01*
X27639176Y28992152D01*
X27178142Y29453186D01*
X27178143Y29453186D01*
X27089761Y29541568D01*
X27089756Y29541574D01*
X27073492Y29557838D01*
X27073491Y29557838D01*
X26612457Y30018872D01*
X27815953Y31222368D01*
X28276987Y30761334D01*
G37*
G36*
X15049000Y25975000D02*
G01*
X13647000Y25975000D01*
X13647000Y26877000D01*
X15049000Y26877000D01*
X15049000Y25975000D01*
G37*
G36*
X8749000Y25975000D02*
G01*
X7347000Y25975000D01*
X7347000Y26877000D01*
X8749000Y26877000D01*
X8749000Y25975000D01*
G37*
G36*
X38829000Y26171000D02*
G01*
X37627000Y26171000D01*
X37627000Y27573000D01*
X38829000Y27573000D01*
X38829000Y26171000D01*
G37*
G36*
X40649000Y26171000D02*
G01*
X39447000Y26171000D01*
X39447000Y27573000D01*
X40649000Y27573000D01*
X40649000Y26171000D01*
G37*
G36*
X54211766Y27798101D02*
G01*
X54313092Y27756130D01*
X54343890Y27743373D01*
X54462798Y27663921D01*
X54563921Y27562798D01*
X54563922Y27562796D01*
X54643374Y27443888D01*
X54698101Y27311766D01*
X54726000Y27171506D01*
X54726000Y27028494D01*
X54698101Y26888234D01*
X54662189Y26801536D01*
X54643373Y26756110D01*
X54563921Y26637202D01*
X54462798Y26536079D01*
X54343890Y26456627D01*
X54343889Y26456626D01*
X54343888Y26456626D01*
X54211766Y26401899D01*
X54071506Y26374000D01*
X53928494Y26374000D01*
X53788234Y26401899D01*
X53656112Y26456626D01*
X53656111Y26456626D01*
X53656110Y26456627D01*
X53537202Y26536079D01*
X53436079Y26637202D01*
X53356627Y26756110D01*
X53337811Y26801536D01*
X53301899Y26888234D01*
X53274000Y27028494D01*
X53274000Y27171506D01*
X53301899Y27311766D01*
X53356626Y27443888D01*
X53436078Y27562796D01*
X53436079Y27562798D01*
X53537202Y27663921D01*
X53656110Y27743373D01*
X53686908Y27756130D01*
X53788234Y27798101D01*
X53928494Y27826000D01*
X54071506Y27826000D01*
X54211766Y27798101D01*
G37*
G36*
X1711766Y27798101D02*
G01*
X1813092Y27756130D01*
X1843890Y27743373D01*
X1962798Y27663921D01*
X2063921Y27562798D01*
X2063922Y27562796D01*
X2143374Y27443888D01*
X2198101Y27311766D01*
X2226000Y27171506D01*
X2226000Y27028494D01*
X2198101Y26888234D01*
X2162189Y26801536D01*
X2143373Y26756110D01*
X2063921Y26637202D01*
X1962798Y26536079D01*
X1843890Y26456627D01*
X1843889Y26456626D01*
X1843888Y26456626D01*
X1711766Y26401899D01*
X1571506Y26374000D01*
X1428494Y26374000D01*
X1288234Y26401899D01*
X1156112Y26456626D01*
X1156111Y26456626D01*
X1156110Y26456627D01*
X1037202Y26536079D01*
X936079Y26637202D01*
X856627Y26756110D01*
X837811Y26801536D01*
X801899Y26888234D01*
X774000Y27028494D01*
X774000Y27171506D01*
X801899Y27311766D01*
X856626Y27443888D01*
X936078Y27562796D01*
X936079Y27562798D01*
X1037202Y27663921D01*
X1156110Y27743373D01*
X1186908Y27756130D01*
X1288234Y27798101D01*
X1428494Y27826000D01*
X1571506Y27826000D01*
X1711766Y27798101D01*
G37*
G36*
X35982499Y27958555D02*
G01*
X36019995Y27947180D01*
X36054554Y27928708D01*
X36084847Y27903847D01*
X36109708Y27873554D01*
X36128180Y27838995D01*
X36139555Y27801499D01*
X36144000Y27756362D01*
X36144000Y27117638D01*
X36139555Y27072501D01*
X36128180Y27035005D01*
X36109708Y27000446D01*
X36084847Y26970153D01*
X36054554Y26945292D01*
X36019995Y26926820D01*
X35982499Y26915445D01*
X35937362Y26911000D01*
X35198638Y26911000D01*
X35153501Y26915445D01*
X35116005Y26926820D01*
X35081446Y26945292D01*
X35051153Y26970153D01*
X35026292Y27000446D01*
X35007820Y27035005D01*
X34996445Y27072501D01*
X34992000Y27117638D01*
X34992000Y27756362D01*
X34996445Y27801499D01*
X35007820Y27838995D01*
X35026292Y27873554D01*
X35051153Y27903847D01*
X35081446Y27928708D01*
X35116005Y27947180D01*
X35153501Y27958555D01*
X35198638Y27963000D01*
X35937362Y27963000D01*
X35982499Y27958555D01*
G37*
G36*
X34232499Y27958555D02*
G01*
X34269995Y27947180D01*
X34304554Y27928708D01*
X34334847Y27903847D01*
X34359708Y27873554D01*
X34378180Y27838995D01*
X34389555Y27801499D01*
X34394000Y27756362D01*
X34394000Y27117638D01*
X34389555Y27072501D01*
X34378180Y27035005D01*
X34359708Y27000446D01*
X34334847Y26970153D01*
X34304554Y26945292D01*
X34269995Y26926820D01*
X34232499Y26915445D01*
X34187362Y26911000D01*
X33448638Y26911000D01*
X33403501Y26915445D01*
X33366005Y26926820D01*
X33331446Y26945292D01*
X33301153Y26970153D01*
X33276292Y27000446D01*
X33257820Y27035005D01*
X33246445Y27072501D01*
X33242000Y27117638D01*
X33242000Y27756362D01*
X33246445Y27801499D01*
X33257820Y27838995D01*
X33276292Y27873554D01*
X33301153Y27903847D01*
X33331446Y27928708D01*
X33366005Y27947180D01*
X33403501Y27958555D01*
X33448638Y27963000D01*
X34187362Y27963000D01*
X34232499Y27958555D01*
G37*
G36*
X49343055Y28776759D02*
G01*
X49378558Y28765989D01*
X49411280Y28748499D01*
X49439961Y28724961D01*
X49463499Y28696280D01*
X49480989Y28663558D01*
X49491759Y28628055D01*
X49496000Y28584990D01*
X49496000Y27300010D01*
X49491759Y27256945D01*
X49480989Y27221442D01*
X49463499Y27188720D01*
X49439961Y27160039D01*
X49411280Y27136501D01*
X49378558Y27119011D01*
X49343055Y27108241D01*
X49299990Y27104000D01*
X48240010Y27104000D01*
X48196945Y27108241D01*
X48161442Y27119011D01*
X48128720Y27136501D01*
X48100039Y27160039D01*
X48076501Y27188720D01*
X48059011Y27221442D01*
X48048241Y27256945D01*
X48044000Y27300010D01*
X48044000Y28584990D01*
X48048241Y28628055D01*
X48059011Y28663558D01*
X48076501Y28696280D01*
X48100039Y28724961D01*
X48128720Y28748499D01*
X48161442Y28765989D01*
X48196945Y28776759D01*
X48240010Y28781000D01*
X49299990Y28781000D01*
X49343055Y28776759D01*
G37*
G36*
X8749000Y27235000D02*
G01*
X7347000Y27235000D01*
X7347000Y28137000D01*
X8749000Y28137000D01*
X8749000Y27235000D01*
G37*
G36*
X15049000Y27235000D02*
G01*
X13647000Y27235000D01*
X13647000Y28137000D01*
X15049000Y28137000D01*
X15049000Y27235000D01*
G37*
G36*
X45778674Y29606535D02*
G01*
X45816367Y29595101D01*
X45851103Y29576534D01*
X45881548Y29551548D01*
X45906534Y29521103D01*
X45925101Y29486367D01*
X45936535Y29448674D01*
X45941000Y29403339D01*
X45941000Y28566661D01*
X45936535Y28521326D01*
X45925101Y28483633D01*
X45906534Y28448897D01*
X45881548Y28418452D01*
X45851103Y28393466D01*
X45816367Y28374899D01*
X45778674Y28363465D01*
X45733339Y28359000D01*
X44646661Y28359000D01*
X44601326Y28363465D01*
X44563633Y28374899D01*
X44528897Y28393466D01*
X44498452Y28418452D01*
X44473466Y28448897D01*
X44454899Y28483633D01*
X44443465Y28521326D01*
X44439000Y28566661D01*
X44439000Y29403339D01*
X44443465Y29448674D01*
X44454899Y29486367D01*
X44473466Y29521103D01*
X44498452Y29551548D01*
X44528897Y29576534D01*
X44563633Y29595101D01*
X44601326Y29606535D01*
X44646661Y29611000D01*
X45733339Y29611000D01*
X45778674Y29606535D01*
G37*
G36*
X1711766Y29798101D02*
G01*
X1843888Y29743374D01*
X1843890Y29743373D01*
X1962798Y29663921D01*
X2063921Y29562798D01*
X2143373Y29443890D01*
X2143374Y29443888D01*
X2198101Y29311766D01*
X2226000Y29171506D01*
X2226000Y29028494D01*
X2198101Y28888234D01*
X2143374Y28756112D01*
X2143373Y28756110D01*
X2063921Y28637202D01*
X1962798Y28536079D01*
X1843890Y28456627D01*
X1843889Y28456626D01*
X1843888Y28456626D01*
X1711766Y28401899D01*
X1571506Y28374000D01*
X1428494Y28374000D01*
X1288234Y28401899D01*
X1156112Y28456626D01*
X1156111Y28456626D01*
X1156110Y28456627D01*
X1037202Y28536079D01*
X936079Y28637202D01*
X856627Y28756110D01*
X856626Y28756112D01*
X801899Y28888234D01*
X774000Y29028494D01*
X774000Y29171506D01*
X801899Y29311766D01*
X856626Y29443888D01*
X856627Y29443890D01*
X936079Y29562798D01*
X1037202Y29663921D01*
X1156110Y29743373D01*
X1156112Y29743374D01*
X1288234Y29798101D01*
X1428494Y29826000D01*
X1571506Y29826000D01*
X1711766Y29798101D01*
G37*
G36*
X54211766Y29798101D02*
G01*
X54343888Y29743374D01*
X54343890Y29743373D01*
X54462798Y29663921D01*
X54563921Y29562798D01*
X54643373Y29443890D01*
X54643374Y29443888D01*
X54698101Y29311766D01*
X54726000Y29171506D01*
X54726000Y29028494D01*
X54698101Y28888234D01*
X54643374Y28756112D01*
X54643373Y28756110D01*
X54563921Y28637202D01*
X54462798Y28536079D01*
X54343890Y28456627D01*
X54343889Y28456626D01*
X54343888Y28456626D01*
X54211766Y28401899D01*
X54071506Y28374000D01*
X53928494Y28374000D01*
X53788234Y28401899D01*
X53656112Y28456626D01*
X53656111Y28456626D01*
X53656110Y28456627D01*
X53537202Y28536079D01*
X53436079Y28637202D01*
X53356627Y28756110D01*
X53356626Y28756112D01*
X53301899Y28888234D01*
X53274000Y29028494D01*
X53274000Y29171506D01*
X53301899Y29311766D01*
X53356626Y29443888D01*
X53356627Y29443890D01*
X53436079Y29562798D01*
X53537202Y29663921D01*
X53656110Y29743373D01*
X53656112Y29743374D01*
X53788234Y29798101D01*
X53928494Y29826000D01*
X54071506Y29826000D01*
X54211766Y29798101D01*
G37*
G36*
X34232499Y29461555D02*
G01*
X34269995Y29450180D01*
X34304554Y29431708D01*
X34334847Y29406847D01*
X34359708Y29376554D01*
X34378180Y29341995D01*
X34389555Y29304499D01*
X34394000Y29259362D01*
X34394000Y28620638D01*
X34389555Y28575501D01*
X34378180Y28538005D01*
X34359708Y28503446D01*
X34334847Y28473153D01*
X34304554Y28448292D01*
X34269995Y28429820D01*
X34232499Y28418445D01*
X34187362Y28414000D01*
X33448638Y28414000D01*
X33403501Y28418445D01*
X33366005Y28429820D01*
X33331446Y28448292D01*
X33301153Y28473153D01*
X33276292Y28503446D01*
X33257820Y28538005D01*
X33246445Y28575501D01*
X33242000Y28620638D01*
X33242000Y29259362D01*
X33246445Y29304499D01*
X33257820Y29341995D01*
X33276292Y29376554D01*
X33301153Y29406847D01*
X33331446Y29431708D01*
X33366005Y29450180D01*
X33403501Y29461555D01*
X33448638Y29466000D01*
X34187362Y29466000D01*
X34232499Y29461555D01*
G37*
G36*
X35982499Y29461555D02*
G01*
X36019995Y29450180D01*
X36054554Y29431708D01*
X36084847Y29406847D01*
X36109708Y29376554D01*
X36128180Y29341995D01*
X36139555Y29304499D01*
X36144000Y29259362D01*
X36144000Y28620638D01*
X36139555Y28575501D01*
X36128180Y28538005D01*
X36109708Y28503446D01*
X36084847Y28473153D01*
X36054554Y28448292D01*
X36019995Y28429820D01*
X35982499Y28418445D01*
X35937362Y28414000D01*
X35198638Y28414000D01*
X35153501Y28418445D01*
X35116005Y28429820D01*
X35081446Y28448292D01*
X35051153Y28473153D01*
X35026292Y28503446D01*
X35007820Y28538005D01*
X34996445Y28575501D01*
X34992000Y28620638D01*
X34992000Y29259362D01*
X34996445Y29304499D01*
X35007820Y29341995D01*
X35026292Y29376554D01*
X35051153Y29406847D01*
X35081446Y29431708D01*
X35116005Y29450180D01*
X35153501Y29461555D01*
X35198638Y29466000D01*
X35937362Y29466000D01*
X35982499Y29461555D01*
G37*
G36*
X4387499Y29482555D02*
G01*
X4424995Y29471180D01*
X4459554Y29452708D01*
X4489847Y29427847D01*
X4514708Y29397554D01*
X4533180Y29362995D01*
X4544555Y29325499D01*
X4549000Y29280362D01*
X4549000Y28641638D01*
X4544555Y28596501D01*
X4533180Y28559005D01*
X4514708Y28524446D01*
X4489847Y28494153D01*
X4459554Y28469292D01*
X4424995Y28450820D01*
X4387499Y28439445D01*
X4342362Y28435000D01*
X3603638Y28435000D01*
X3558501Y28439445D01*
X3521005Y28450820D01*
X3486446Y28469292D01*
X3456153Y28494153D01*
X3431292Y28524446D01*
X3412820Y28559005D01*
X3401445Y28596501D01*
X3397000Y28641638D01*
X3397000Y29280362D01*
X3401445Y29325499D01*
X3412820Y29362995D01*
X3431292Y29397554D01*
X3456153Y29427847D01*
X3486446Y29452708D01*
X3521005Y29471180D01*
X3558501Y29482555D01*
X3603638Y29487000D01*
X4342362Y29487000D01*
X4387499Y29482555D01*
G37*
G36*
X6137499Y29482555D02*
G01*
X6174995Y29471180D01*
X6209554Y29452708D01*
X6239847Y29427847D01*
X6264708Y29397554D01*
X6283180Y29362995D01*
X6294555Y29325499D01*
X6299000Y29280362D01*
X6299000Y28641638D01*
X6294555Y28596501D01*
X6283180Y28559005D01*
X6264708Y28524446D01*
X6239847Y28494153D01*
X6209554Y28469292D01*
X6174995Y28450820D01*
X6137499Y28439445D01*
X6092362Y28435000D01*
X5353638Y28435000D01*
X5308501Y28439445D01*
X5271005Y28450820D01*
X5236446Y28469292D01*
X5206153Y28494153D01*
X5181292Y28524446D01*
X5162820Y28559005D01*
X5151445Y28596501D01*
X5147000Y28641638D01*
X5147000Y29280362D01*
X5151445Y29325499D01*
X5162820Y29362995D01*
X5181292Y29397554D01*
X5206153Y29427847D01*
X5236446Y29452708D01*
X5271005Y29471180D01*
X5308501Y29482555D01*
X5353638Y29487000D01*
X6092362Y29487000D01*
X6137499Y29482555D01*
G37*
G36*
X8749000Y28515000D02*
G01*
X7347000Y28515000D01*
X7347000Y29417000D01*
X8749000Y29417000D01*
X8749000Y28515000D01*
G37*
G36*
X15049000Y28515000D02*
G01*
X13647000Y28515000D01*
X13647000Y29417000D01*
X15049000Y29417000D01*
X15049000Y28515000D01*
G37*
G36*
X40649000Y28571000D02*
G01*
X39447000Y28571000D01*
X39447000Y29973000D01*
X40649000Y29973000D01*
X40649000Y28571000D01*
G37*
G36*
X38829000Y28571000D02*
G01*
X37627000Y28571000D01*
X37627000Y29973000D01*
X38829000Y29973000D01*
X38829000Y28571000D01*
G37*
G36*
X49342798Y31651753D02*
G01*
X49378367Y31640963D01*
X49411139Y31623446D01*
X49439869Y31599869D01*
X49463446Y31571139D01*
X49480963Y31538367D01*
X49491753Y31502798D01*
X49496000Y31459675D01*
X49496000Y30175325D01*
X49491753Y30132202D01*
X49480963Y30096633D01*
X49463446Y30063861D01*
X49439869Y30035131D01*
X49411139Y30011554D01*
X49378367Y29994037D01*
X49342798Y29983247D01*
X49299675Y29979000D01*
X48240325Y29979000D01*
X48197202Y29983247D01*
X48161633Y29994037D01*
X48128861Y30011554D01*
X48100131Y30035131D01*
X48076554Y30063861D01*
X48059037Y30096633D01*
X48048247Y30132202D01*
X48044000Y30175325D01*
X48044000Y31459675D01*
X48048247Y31502798D01*
X48059037Y31538367D01*
X48076554Y31571139D01*
X48100131Y31599869D01*
X48128861Y31623446D01*
X48161633Y31640963D01*
X48197202Y31651753D01*
X48240325Y31656000D01*
X49299675Y31656000D01*
X49342798Y31651753D01*
G37*
G36*
X2226000Y30374000D02*
G01*
X774000Y30374000D01*
X774000Y31826000D01*
X2226000Y31826000D01*
X2226000Y30374000D01*
G37*
G36*
X54726000Y30374000D02*
G01*
X53274000Y30374000D01*
X53274000Y31826000D01*
X54726000Y31826000D01*
X54726000Y30374000D01*
G37*
G36*
X45778674Y31656535D02*
G01*
X45816367Y31645101D01*
X45851103Y31626534D01*
X45881548Y31601548D01*
X45906534Y31571103D01*
X45925101Y31536367D01*
X45936535Y31498674D01*
X45941000Y31453339D01*
X45941000Y30616661D01*
X45936535Y30571326D01*
X45925101Y30533633D01*
X45906534Y30498897D01*
X45881548Y30468452D01*
X45851103Y30443466D01*
X45816367Y30424899D01*
X45778674Y30413465D01*
X45733339Y30409000D01*
X44646661Y30409000D01*
X44601326Y30413465D01*
X44563633Y30424899D01*
X44528897Y30443466D01*
X44498452Y30468452D01*
X44473466Y30498897D01*
X44454899Y30533633D01*
X44443465Y30571326D01*
X44439000Y30616661D01*
X44439000Y31453339D01*
X44443465Y31498674D01*
X44454899Y31536367D01*
X44473466Y31571103D01*
X44498452Y31601548D01*
X44528897Y31626534D01*
X44563633Y31645101D01*
X44601326Y31656535D01*
X44646661Y31661000D01*
X45733339Y31661000D01*
X45778674Y31656535D01*
G37*
G36*
X6137499Y31641555D02*
G01*
X6174995Y31630180D01*
X6209554Y31611708D01*
X6239847Y31586847D01*
X6264708Y31556554D01*
X6283180Y31521995D01*
X6294555Y31484499D01*
X6299000Y31439362D01*
X6299000Y30800638D01*
X6294555Y30755501D01*
X6283180Y30718005D01*
X6264708Y30683446D01*
X6239847Y30653153D01*
X6209554Y30628292D01*
X6174995Y30609820D01*
X6137499Y30598445D01*
X6092362Y30594000D01*
X5353638Y30594000D01*
X5308501Y30598445D01*
X5271005Y30609820D01*
X5236446Y30628292D01*
X5206153Y30653153D01*
X5181292Y30683446D01*
X5162820Y30718005D01*
X5151445Y30755501D01*
X5147000Y30800638D01*
X5147000Y31439362D01*
X5151445Y31484499D01*
X5162820Y31521995D01*
X5181292Y31556554D01*
X5206153Y31586847D01*
X5236446Y31611708D01*
X5271005Y31630180D01*
X5308501Y31641555D01*
X5353638Y31646000D01*
X6092362Y31646000D01*
X6137499Y31641555D01*
G37*
G36*
X4387499Y31641555D02*
G01*
X4424995Y31630180D01*
X4459554Y31611708D01*
X4489847Y31586847D01*
X4514708Y31556554D01*
X4533180Y31521995D01*
X4544555Y31484499D01*
X4549000Y31439362D01*
X4549000Y30800638D01*
X4544555Y30755501D01*
X4533180Y30718005D01*
X4514708Y30683446D01*
X4489847Y30653153D01*
X4459554Y30628292D01*
X4424995Y30609820D01*
X4387499Y30598445D01*
X4342362Y30594000D01*
X3603638Y30594000D01*
X3558501Y30598445D01*
X3521005Y30609820D01*
X3486446Y30628292D01*
X3456153Y30653153D01*
X3431292Y30683446D01*
X3412820Y30718005D01*
X3401445Y30755501D01*
X3397000Y30800638D01*
X3397000Y31439362D01*
X3401445Y31484499D01*
X3412820Y31521995D01*
X3431292Y31556554D01*
X3456153Y31586847D01*
X3486446Y31611708D01*
X3521005Y31630180D01*
X3558501Y31641555D01*
X3603638Y31646000D01*
X4342362Y31646000D01*
X4387499Y31641555D01*
G37*
M02*
