G04 #@! TF.GenerationSoftware,KiCad,Pcbnew,(5.1.6)-1*
G04 #@! TF.CreationDate,2020-11-05T08:21:22+01:00*
G04 #@! TF.ProjectId,repl board,7265706c-2062-46f6-9172-642e6b696361,1.05*
G04 #@! TF.SameCoordinates,PX9bbc2a0PY6b31680*
G04 #@! TF.FileFunction,Legend,Top*
G04 #@! TF.FilePolarity,Positive*
%FSLAX46Y46*%
G04 Gerber Fmt 4.6, Leading zero omitted, Abs format (unit mm)*
G04 Created by KiCad (PCBNEW (5.1.6)-1) date 2020-11-05 08:21:22*
%MOMM*%
%LPD*%
G01*
G04 APERTURE LIST*
%ADD10C,0.127000*%
%ADD11C,0.120000*%
%ADD12C,0.150000*%
G04 APERTURE END LIST*
D10*
X40974022Y26822000D02*
G75*
G03*
X40974022Y26822000I-86022J0D01*
G01*
D11*
X34521733Y26927000D02*
X34864267Y26927000D01*
X34521733Y27947000D02*
X34864267Y27947000D01*
X41043000Y16364000D02*
X41043000Y14404000D01*
X41043000Y3204000D02*
X41043000Y5164000D01*
X39323000Y14404000D02*
X39323000Y5164000D01*
X42763000Y14404000D02*
X39323000Y14404000D01*
X42763000Y5164000D02*
X42763000Y14404000D01*
X39323000Y5164000D02*
X42763000Y5164000D01*
D12*
X31386842Y25564099D02*
X32394469Y26571726D01*
X26419417Y20278476D02*
X26649227Y20508286D01*
X21292893Y25405000D02*
X21522703Y25634810D01*
X26419417Y30531524D02*
X26189607Y30301714D01*
X31545941Y25405000D02*
X31316131Y25175190D01*
X26419417Y30531524D02*
X26649227Y30301714D01*
X21292893Y25405000D02*
X21522703Y25175190D01*
X26419417Y20278476D02*
X26189607Y20508286D01*
X31545941Y25405000D02*
X31386842Y25564099D01*
D11*
X43538733Y22001000D02*
X43881267Y22001000D01*
X43538733Y23021000D02*
X43881267Y23021000D01*
X10191200Y2053200D02*
X8861200Y2053200D01*
X10191200Y3383200D02*
X10191200Y2053200D01*
X10191200Y4653200D02*
X7531200Y4653200D01*
X7531200Y4653200D02*
X7531200Y17413200D01*
X10191200Y4653200D02*
X10191200Y17413200D01*
X10191200Y17413200D02*
X7531200Y17413200D01*
X34521733Y28430000D02*
X34864267Y28430000D01*
X34521733Y29450000D02*
X34864267Y29450000D01*
X45585000Y23592267D02*
X45585000Y23249733D01*
X46605000Y23592267D02*
X46605000Y23249733D01*
X46605000Y19949733D02*
X46605000Y20292267D01*
X45585000Y19949733D02*
X45585000Y20292267D01*
X43876267Y21551000D02*
X43533733Y21551000D01*
X43876267Y20531000D02*
X43533733Y20531000D01*
X47835000Y31865000D02*
X47835000Y27780000D01*
X49705000Y31865000D02*
X47835000Y31865000D01*
X49705000Y27780000D02*
X49705000Y31865000D01*
X49700000Y15225000D02*
X44900000Y15225000D01*
X49700000Y4425000D02*
X44900000Y4425000D01*
X49700000Y4825000D02*
X51100000Y4825000D01*
X49700000Y4425000D02*
X49700000Y4825000D01*
X8798000Y19116000D02*
X13598000Y19116000D01*
X8798000Y29916000D02*
X13598000Y29916000D01*
X8798000Y29516000D02*
X7398000Y29516000D01*
X8798000Y29916000D02*
X8798000Y29516000D01*
X440000Y32160000D02*
X1500000Y32160000D01*
X440000Y31100000D02*
X440000Y32160000D01*
X440000Y30100000D02*
X2560000Y30100000D01*
X2560000Y30100000D02*
X2560000Y40000D01*
X440000Y30100000D02*
X440000Y40000D01*
X440000Y40000D02*
X2560000Y40000D01*
X52940000Y32160000D02*
X54000000Y32160000D01*
X52940000Y31100000D02*
X52940000Y32160000D01*
X52940000Y30100000D02*
X55060000Y30100000D01*
X55060000Y30100000D02*
X55060000Y40000D01*
X52940000Y30100000D02*
X52940000Y40000D01*
X52940000Y40000D02*
X55060000Y40000D01*
X4676733Y30610000D02*
X5019267Y30610000D01*
X4676733Y31630000D02*
X5019267Y31630000D01*
X5019267Y29471000D02*
X4676733Y29471000D01*
X5019267Y28451000D02*
X4676733Y28451000D01*
X44480000Y30271252D02*
X44480000Y29748748D01*
X45900000Y30271252D02*
X45900000Y29748748D01*
X45853733Y2715000D02*
X46196267Y2715000D01*
X45853733Y3735000D02*
X46196267Y3735000D01*
X38630857Y25469858D02*
X38630857Y25112715D01*
X38380857Y25862715D02*
X38630857Y25469858D01*
X38880857Y25862715D01*
X39523714Y25112715D02*
X39095142Y25112715D01*
X39309428Y25112715D02*
X39309428Y25862715D01*
X39238000Y25755572D01*
X39166571Y25684143D01*
X39095142Y25648429D01*
D12*
X35351833Y25555858D02*
X35304214Y25508239D01*
X35161357Y25460620D01*
X35066119Y25460620D01*
X34923261Y25508239D01*
X34828023Y25603477D01*
X34780404Y25698715D01*
X34732785Y25889191D01*
X34732785Y26032048D01*
X34780404Y26222524D01*
X34828023Y26317762D01*
X34923261Y26413000D01*
X35066119Y26460620D01*
X35161357Y26460620D01*
X35304214Y26413000D01*
X35351833Y26365381D01*
X36304214Y25460620D02*
X35732785Y25460620D01*
X36018500Y25460620D02*
X36018500Y26460620D01*
X35923261Y26317762D01*
X35828023Y26222524D01*
X35732785Y26174905D01*
X39709666Y6267739D02*
X39852523Y6220120D01*
X40090619Y6220120D01*
X40185857Y6267739D01*
X40233476Y6315358D01*
X40281095Y6410596D01*
X40281095Y6505834D01*
X40233476Y6601072D01*
X40185857Y6648691D01*
X40090619Y6696310D01*
X39900142Y6743929D01*
X39804904Y6791548D01*
X39757285Y6839167D01*
X39709666Y6934405D01*
X39709666Y7029643D01*
X39757285Y7124881D01*
X39804904Y7172500D01*
X39900142Y7220120D01*
X40138238Y7220120D01*
X40281095Y7172500D01*
X40614428Y7220120D02*
X40852523Y6220120D01*
X41043000Y6934405D01*
X41233476Y6220120D01*
X41471571Y7220120D01*
X41804904Y7124881D02*
X41852523Y7172500D01*
X41947761Y7220120D01*
X42185857Y7220120D01*
X42281095Y7172500D01*
X42328714Y7124881D01*
X42376333Y7029643D01*
X42376333Y6934405D01*
X42328714Y6791548D01*
X41757285Y6220120D01*
X42376333Y6220120D01*
X30973026Y21824478D02*
X31545446Y21252058D01*
X31646461Y21218386D01*
X31713805Y21218386D01*
X31814820Y21252058D01*
X31949507Y21386745D01*
X31983179Y21487760D01*
X31983179Y21555104D01*
X31949507Y21656119D01*
X31377087Y22228539D01*
X32791301Y22228539D02*
X32387240Y21824478D01*
X32589270Y22026508D02*
X31882164Y22733615D01*
X31915835Y22565256D01*
X31915835Y22430569D01*
X31882164Y22329554D01*
X42654333Y23488620D02*
X42321000Y23964810D01*
X42082904Y23488620D02*
X42082904Y24488620D01*
X42463857Y24488620D01*
X42559095Y24441000D01*
X42606714Y24393381D01*
X42654333Y24298143D01*
X42654333Y24155286D01*
X42606714Y24060048D01*
X42559095Y24012429D01*
X42463857Y23964810D01*
X42082904Y23964810D01*
X43559095Y24488620D02*
X43082904Y24488620D01*
X43035285Y24012429D01*
X43082904Y24060048D01*
X43178142Y24107667D01*
X43416238Y24107667D01*
X43511476Y24060048D01*
X43559095Y24012429D01*
X43606714Y23917191D01*
X43606714Y23679096D01*
X43559095Y23583858D01*
X43511476Y23536239D01*
X43416238Y23488620D01*
X43178142Y23488620D01*
X43082904Y23536239D01*
X43035285Y23583858D01*
X6887880Y3823120D02*
X5887880Y3823120D01*
X6840261Y4251691D02*
X6887880Y4394548D01*
X6887880Y4632643D01*
X6840261Y4727881D01*
X6792642Y4775500D01*
X6697404Y4823120D01*
X6602166Y4823120D01*
X6506928Y4775500D01*
X6459309Y4727881D01*
X6411690Y4632643D01*
X6364071Y4442167D01*
X6316452Y4346929D01*
X6268833Y4299310D01*
X6173595Y4251691D01*
X6078357Y4251691D01*
X5983119Y4299310D01*
X5935500Y4346929D01*
X5887880Y4442167D01*
X5887880Y4680262D01*
X5935500Y4823120D01*
X6887880Y5251691D02*
X5887880Y5251691D01*
X5887880Y5632643D01*
X5935500Y5727881D01*
X5983119Y5775500D01*
X6078357Y5823120D01*
X6221214Y5823120D01*
X6316452Y5775500D01*
X6364071Y5727881D01*
X6411690Y5632643D01*
X6411690Y5251691D01*
X6887880Y6775500D02*
X6887880Y6204072D01*
X6887880Y6489786D02*
X5887880Y6489786D01*
X6030738Y6394548D01*
X6125976Y6299310D01*
X6173595Y6204072D01*
X35288333Y30064358D02*
X35240714Y30016739D01*
X35097857Y29969120D01*
X35002619Y29969120D01*
X34859761Y30016739D01*
X34764523Y30111977D01*
X34716904Y30207215D01*
X34669285Y30397691D01*
X34669285Y30540548D01*
X34716904Y30731024D01*
X34764523Y30826262D01*
X34859761Y30921500D01*
X35002619Y30969120D01*
X35097857Y30969120D01*
X35240714Y30921500D01*
X35288333Y30873881D01*
X35669285Y30873881D02*
X35716904Y30921500D01*
X35812142Y30969120D01*
X36050238Y30969120D01*
X36145476Y30921500D01*
X36193095Y30873881D01*
X36240714Y30778643D01*
X36240714Y30683405D01*
X36193095Y30540548D01*
X35621666Y29969120D01*
X36240714Y29969120D01*
X44813476Y26524120D02*
X45146809Y25524120D01*
X45480142Y26524120D01*
X46384904Y25524120D02*
X46051571Y26000310D01*
X45813476Y25524120D02*
X45813476Y26524120D01*
X46194428Y26524120D01*
X46289666Y26476500D01*
X46337285Y26428881D01*
X46384904Y26333643D01*
X46384904Y26190786D01*
X46337285Y26095548D01*
X46289666Y26047929D01*
X46194428Y26000310D01*
X45813476Y26000310D01*
X46765857Y26428881D02*
X46813476Y26476500D01*
X46908714Y26524120D01*
X47146809Y26524120D01*
X47242047Y26476500D01*
X47289666Y26428881D01*
X47337285Y26333643D01*
X47337285Y26238405D01*
X47289666Y26095548D01*
X46718238Y25524120D01*
X47337285Y25524120D01*
X44940476Y18078620D02*
X45273809Y17078620D01*
X45607142Y18078620D01*
X46511904Y17078620D02*
X46178571Y17554810D01*
X45940476Y17078620D02*
X45940476Y18078620D01*
X46321428Y18078620D01*
X46416666Y18031000D01*
X46464285Y17983381D01*
X46511904Y17888143D01*
X46511904Y17745286D01*
X46464285Y17650048D01*
X46416666Y17602429D01*
X46321428Y17554810D01*
X45940476Y17554810D01*
X47464285Y17078620D02*
X46892857Y17078620D01*
X47178571Y17078620D02*
X47178571Y18078620D01*
X47083333Y17935762D01*
X46988095Y17840524D01*
X46892857Y17792905D01*
X42717833Y19047120D02*
X42384500Y19523310D01*
X42146404Y19047120D02*
X42146404Y20047120D01*
X42527357Y20047120D01*
X42622595Y19999500D01*
X42670214Y19951881D01*
X42717833Y19856643D01*
X42717833Y19713786D01*
X42670214Y19618548D01*
X42622595Y19570929D01*
X42527357Y19523310D01*
X42146404Y19523310D01*
X43051166Y20047120D02*
X43670214Y20047120D01*
X43336880Y19666167D01*
X43479738Y19666167D01*
X43574976Y19618548D01*
X43622595Y19570929D01*
X43670214Y19475691D01*
X43670214Y19237596D01*
X43622595Y19142358D01*
X43574976Y19094739D01*
X43479738Y19047120D01*
X43194023Y19047120D01*
X43098785Y19094739D01*
X43051166Y19142358D01*
X50877142Y28737143D02*
X50924761Y28689524D01*
X50972380Y28546667D01*
X50972380Y28451429D01*
X50924761Y28308572D01*
X50829523Y28213334D01*
X50734285Y28165715D01*
X50543809Y28118096D01*
X50400952Y28118096D01*
X50210476Y28165715D01*
X50115238Y28213334D01*
X50020000Y28308572D01*
X49972380Y28451429D01*
X49972380Y28546667D01*
X50020000Y28689524D01*
X50067619Y28737143D01*
X50972380Y29689524D02*
X50972380Y29118096D01*
X50972380Y29403810D02*
X49972380Y29403810D01*
X50115238Y29308572D01*
X50210476Y29213334D01*
X50258095Y29118096D01*
X50067619Y30070477D02*
X50020000Y30118096D01*
X49972380Y30213334D01*
X49972380Y30451429D01*
X50020000Y30546667D01*
X50067619Y30594286D01*
X50162857Y30641905D01*
X50258095Y30641905D01*
X50400952Y30594286D01*
X50972380Y30022858D01*
X50972380Y30641905D01*
X46480309Y5140620D02*
X46480309Y6140620D01*
X47527928Y5235858D02*
X47480309Y5188239D01*
X47337452Y5140620D01*
X47242214Y5140620D01*
X47099357Y5188239D01*
X47004119Y5283477D01*
X46956500Y5378715D01*
X46908880Y5569191D01*
X46908880Y5712048D01*
X46956500Y5902524D01*
X47004119Y5997762D01*
X47099357Y6093000D01*
X47242214Y6140620D01*
X47337452Y6140620D01*
X47480309Y6093000D01*
X47527928Y6045381D01*
X48480309Y5140620D02*
X47908880Y5140620D01*
X48194595Y5140620D02*
X48194595Y6140620D01*
X48099357Y5997762D01*
X48004119Y5902524D01*
X47908880Y5854905D01*
X10348809Y27937120D02*
X10348809Y28937120D01*
X11396428Y28032358D02*
X11348809Y27984739D01*
X11205952Y27937120D01*
X11110714Y27937120D01*
X10967857Y27984739D01*
X10872619Y28079977D01*
X10825000Y28175215D01*
X10777380Y28365691D01*
X10777380Y28508548D01*
X10825000Y28699024D01*
X10872619Y28794262D01*
X10967857Y28889500D01*
X11110714Y28937120D01*
X11205952Y28937120D01*
X11348809Y28889500D01*
X11396428Y28841881D01*
X11777380Y28841881D02*
X11825000Y28889500D01*
X11920238Y28937120D01*
X12158333Y28937120D01*
X12253571Y28889500D01*
X12301190Y28841881D01*
X12348809Y28746643D01*
X12348809Y28651405D01*
X12301190Y28508548D01*
X11729761Y27937120D01*
X12348809Y27937120D01*
X3435166Y15729120D02*
X3435166Y15014834D01*
X3387547Y14871977D01*
X3292309Y14776739D01*
X3149452Y14729120D01*
X3054214Y14729120D01*
X3816119Y15729120D02*
X4435166Y15729120D01*
X4101833Y15348167D01*
X4244690Y15348167D01*
X4339928Y15300548D01*
X4387547Y15252929D01*
X4435166Y15157691D01*
X4435166Y14919596D01*
X4387547Y14824358D01*
X4339928Y14776739D01*
X4244690Y14729120D01*
X3958976Y14729120D01*
X3863738Y14776739D01*
X3816119Y14824358D01*
X51250666Y17253120D02*
X51250666Y16538834D01*
X51203047Y16395977D01*
X51107809Y16300739D01*
X50964952Y16253120D01*
X50869714Y16253120D01*
X51679238Y17157881D02*
X51726857Y17205500D01*
X51822095Y17253120D01*
X52060190Y17253120D01*
X52155428Y17205500D01*
X52203047Y17157881D01*
X52250666Y17062643D01*
X52250666Y16967405D01*
X52203047Y16824548D01*
X51631619Y16253120D01*
X52250666Y16253120D01*
X7538833Y30223120D02*
X7205500Y30699310D01*
X6967404Y30223120D02*
X6967404Y31223120D01*
X7348357Y31223120D01*
X7443595Y31175500D01*
X7491214Y31127881D01*
X7538833Y31032643D01*
X7538833Y30889786D01*
X7491214Y30794548D01*
X7443595Y30746929D01*
X7348357Y30699310D01*
X6967404Y30699310D01*
X7919785Y31127881D02*
X7967404Y31175500D01*
X8062642Y31223120D01*
X8300738Y31223120D01*
X8395976Y31175500D01*
X8443595Y31127881D01*
X8491214Y31032643D01*
X8491214Y30937405D01*
X8443595Y30794548D01*
X7872166Y30223120D01*
X8491214Y30223120D01*
X3982833Y26603620D02*
X3649500Y27079810D01*
X3411404Y26603620D02*
X3411404Y27603620D01*
X3792357Y27603620D01*
X3887595Y27556000D01*
X3935214Y27508381D01*
X3982833Y27413143D01*
X3982833Y27270286D01*
X3935214Y27175048D01*
X3887595Y27127429D01*
X3792357Y27079810D01*
X3411404Y27079810D01*
X4935214Y26603620D02*
X4363785Y26603620D01*
X4649500Y26603620D02*
X4649500Y27603620D01*
X4554261Y27460762D01*
X4459023Y27365524D01*
X4363785Y27317905D01*
X46768571Y29676667D02*
X46768571Y29343334D01*
X47292380Y29343334D02*
X46292380Y29343334D01*
X46292380Y29819524D01*
X47292380Y30724286D02*
X47292380Y30152858D01*
X47292380Y30438572D02*
X46292380Y30438572D01*
X46435238Y30343334D01*
X46530476Y30248096D01*
X46578095Y30152858D01*
X45765833Y1298858D02*
X45718214Y1251239D01*
X45575357Y1203620D01*
X45480119Y1203620D01*
X45337261Y1251239D01*
X45242023Y1346477D01*
X45194404Y1441715D01*
X45146785Y1632191D01*
X45146785Y1775048D01*
X45194404Y1965524D01*
X45242023Y2060762D01*
X45337261Y2156000D01*
X45480119Y2203620D01*
X45575357Y2203620D01*
X45718214Y2156000D01*
X45765833Y2108381D01*
X46099166Y2203620D02*
X46765833Y2203620D01*
X46337261Y1203620D01*
M02*
