G04 #@! TF.GenerationSoftware,KiCad,Pcbnew,(5.1.6)-1*
G04 #@! TF.CreationDate,2020-11-05T08:21:22+01:00*
G04 #@! TF.ProjectId,repl board,7265706c-2062-46f6-9172-642e6b696361,1.05*
G04 #@! TF.SameCoordinates,PX9bbc2a0PY6b31680*
G04 #@! TF.FileFunction,Legend,Bot*
G04 #@! TF.FilePolarity,Positive*
%FSLAX46Y46*%
G04 Gerber Fmt 4.6, Leading zero omitted, Abs format (unit mm)*
G04 Created by KiCad (PCBNEW (5.1.6)-1) date 2020-11-05 08:21:22*
%MOMM*%
%LPD*%
G01*
G04 APERTURE LIST*
%ADD10C,0.120000*%
%ADD11C,0.150000*%
G04 APERTURE END LIST*
D10*
X46614928Y16135429D02*
X46614928Y16385429D01*
X47007785Y16385429D02*
X46257785Y16385429D01*
X46257785Y16028286D01*
X47007785Y15742572D02*
X46507785Y15742572D01*
X46257785Y15742572D02*
X46293500Y15778286D01*
X46329214Y15742572D01*
X46293500Y15706858D01*
X46257785Y15742572D01*
X46329214Y15742572D01*
X47007785Y15278286D02*
X46972071Y15349715D01*
X46900642Y15385429D01*
X46257785Y15385429D01*
X46972071Y14671143D02*
X47007785Y14742572D01*
X47007785Y14885429D01*
X46972071Y14956858D01*
X46936357Y14992572D01*
X46864928Y15028286D01*
X46650642Y15028286D01*
X46579214Y14992572D01*
X46543500Y14956858D01*
X46507785Y14885429D01*
X46507785Y14742572D01*
X46543500Y14671143D01*
X47007785Y14242572D02*
X46972071Y14314000D01*
X46936357Y14349715D01*
X46864928Y14385429D01*
X46650642Y14385429D01*
X46579214Y14349715D01*
X46543500Y14314000D01*
X46507785Y14242572D01*
X46507785Y14135429D01*
X46543500Y14064000D01*
X46579214Y14028286D01*
X46650642Y13992572D01*
X46864928Y13992572D01*
X46936357Y14028286D01*
X46972071Y14064000D01*
X47007785Y14135429D01*
X47007785Y14242572D01*
X46257785Y13206858D02*
X46257785Y12778286D01*
X47007785Y12992572D02*
X46257785Y12992572D01*
X47007785Y12528286D02*
X46257785Y12528286D01*
X47007785Y12099715D02*
X46579214Y12421143D01*
X46257785Y12099715D02*
X46686357Y12528286D01*
X47007785Y11421143D02*
X47007785Y11778286D01*
X46257785Y11778286D01*
X46936357Y10171143D02*
X46972071Y10206858D01*
X47007785Y10314000D01*
X47007785Y10385429D01*
X46972071Y10492572D01*
X46900642Y10564000D01*
X46829214Y10599715D01*
X46686357Y10635429D01*
X46579214Y10635429D01*
X46436357Y10599715D01*
X46364928Y10564000D01*
X46293500Y10492572D01*
X46257785Y10385429D01*
X46257785Y10314000D01*
X46293500Y10206858D01*
X46329214Y10171143D01*
X47007785Y9742572D02*
X46972071Y9814000D01*
X46936357Y9849715D01*
X46864928Y9885429D01*
X46650642Y9885429D01*
X46579214Y9849715D01*
X46543500Y9814000D01*
X46507785Y9742572D01*
X46507785Y9635429D01*
X46543500Y9564000D01*
X46579214Y9528286D01*
X46650642Y9492572D01*
X46864928Y9492572D01*
X46936357Y9528286D01*
X46972071Y9564000D01*
X47007785Y9635429D01*
X47007785Y9742572D01*
X46507785Y9171143D02*
X47007785Y9171143D01*
X46579214Y9171143D02*
X46543500Y9135429D01*
X46507785Y9064000D01*
X46507785Y8956858D01*
X46543500Y8885429D01*
X46614928Y8849715D01*
X47007785Y8849715D01*
X46507785Y8599715D02*
X46507785Y8314000D01*
X46257785Y8492572D02*
X46900642Y8492572D01*
X46972071Y8456858D01*
X47007785Y8385429D01*
X47007785Y8314000D01*
X47007785Y8064000D02*
X46507785Y8064000D01*
X46650642Y8064000D02*
X46579214Y8028286D01*
X46543500Y7992572D01*
X46507785Y7921143D01*
X46507785Y7849715D01*
X47007785Y7492572D02*
X46972071Y7564000D01*
X46936357Y7599715D01*
X46864928Y7635429D01*
X46650642Y7635429D01*
X46579214Y7599715D01*
X46543500Y7564000D01*
X46507785Y7492572D01*
X46507785Y7385429D01*
X46543500Y7314000D01*
X46579214Y7278286D01*
X46650642Y7242572D01*
X46864928Y7242572D01*
X46936357Y7278286D01*
X46972071Y7314000D01*
X47007785Y7385429D01*
X47007785Y7492572D01*
X47007785Y6814000D02*
X46972071Y6885429D01*
X46900642Y6921143D01*
X46257785Y6921143D01*
X47007785Y6421143D02*
X46972071Y6492572D01*
X46900642Y6528286D01*
X46257785Y6528286D01*
X46972071Y5849715D02*
X47007785Y5921143D01*
X47007785Y6064000D01*
X46972071Y6135429D01*
X46900642Y6171143D01*
X46614928Y6171143D01*
X46543500Y6135429D01*
X46507785Y6064000D01*
X46507785Y5921143D01*
X46543500Y5849715D01*
X46614928Y5814000D01*
X46686357Y5814000D01*
X46757785Y6171143D01*
X47007785Y5492572D02*
X46507785Y5492572D01*
X46650642Y5492572D02*
X46579214Y5456858D01*
X46543500Y5421143D01*
X46507785Y5349715D01*
X46507785Y5278286D01*
X46507785Y4528286D02*
X47007785Y4349715D01*
X46507785Y4171143D01*
X47007785Y3492572D02*
X47007785Y3921143D01*
X47007785Y3706858D02*
X46257785Y3706858D01*
X46364928Y3778286D01*
X46436357Y3849715D01*
X46472071Y3921143D01*
X46936357Y3171143D02*
X46972071Y3135429D01*
X47007785Y3171143D01*
X46972071Y3206858D01*
X46936357Y3171143D01*
X47007785Y3171143D01*
X46257785Y2671143D02*
X46257785Y2599715D01*
X46293500Y2528286D01*
X46329214Y2492572D01*
X46400642Y2456858D01*
X46543500Y2421143D01*
X46722071Y2421143D01*
X46864928Y2456858D01*
X46936357Y2492572D01*
X46972071Y2528286D01*
X47007785Y2599715D01*
X47007785Y2671143D01*
X46972071Y2742572D01*
X46936357Y2778286D01*
X46864928Y2814000D01*
X46722071Y2849715D01*
X46543500Y2849715D01*
X46400642Y2814000D01*
X46329214Y2778286D01*
X46293500Y2742572D01*
X46257785Y2671143D01*
X46257785Y1742572D02*
X46257785Y2099715D01*
X46614928Y2135429D01*
X46579214Y2099715D01*
X46543500Y2028286D01*
X46543500Y1849715D01*
X46579214Y1778286D01*
X46614928Y1742572D01*
X46686357Y1706858D01*
X46864928Y1706858D01*
X46936357Y1742572D01*
X46972071Y1778286D01*
X47007785Y1849715D01*
X47007785Y2028286D01*
X46972071Y2099715D01*
X46936357Y2135429D01*
X47574214Y16421143D02*
X47538500Y16385429D01*
X47502785Y16314000D01*
X47502785Y16135429D01*
X47538500Y16064000D01*
X47574214Y16028286D01*
X47645642Y15992572D01*
X47717071Y15992572D01*
X47824214Y16028286D01*
X48252785Y16456858D01*
X48252785Y15992572D01*
X47502785Y15528286D02*
X47502785Y15456858D01*
X47538500Y15385429D01*
X47574214Y15349715D01*
X47645642Y15314000D01*
X47788500Y15278286D01*
X47967071Y15278286D01*
X48109928Y15314000D01*
X48181357Y15349715D01*
X48217071Y15385429D01*
X48252785Y15456858D01*
X48252785Y15528286D01*
X48217071Y15599715D01*
X48181357Y15635429D01*
X48109928Y15671143D01*
X47967071Y15706858D01*
X47788500Y15706858D01*
X47645642Y15671143D01*
X47574214Y15635429D01*
X47538500Y15599715D01*
X47502785Y15528286D01*
X47574214Y14992572D02*
X47538500Y14956858D01*
X47502785Y14885429D01*
X47502785Y14706858D01*
X47538500Y14635429D01*
X47574214Y14599715D01*
X47645642Y14564000D01*
X47717071Y14564000D01*
X47824214Y14599715D01*
X48252785Y15028286D01*
X48252785Y14564000D01*
X47502785Y14099715D02*
X47502785Y14028286D01*
X47538500Y13956858D01*
X47574214Y13921143D01*
X47645642Y13885429D01*
X47788500Y13849715D01*
X47967071Y13849715D01*
X48109928Y13885429D01*
X48181357Y13921143D01*
X48217071Y13956858D01*
X48252785Y14028286D01*
X48252785Y14099715D01*
X48217071Y14171143D01*
X48181357Y14206858D01*
X48109928Y14242572D01*
X47967071Y14278286D01*
X47788500Y14278286D01*
X47645642Y14242572D01*
X47574214Y14206858D01*
X47538500Y14171143D01*
X47502785Y14099715D01*
X48252785Y12956858D02*
X47502785Y12956858D01*
X48038500Y12706858D01*
X47502785Y12456858D01*
X48252785Y12456858D01*
X48252785Y11778286D02*
X47859928Y11778286D01*
X47788500Y11814000D01*
X47752785Y11885429D01*
X47752785Y12028286D01*
X47788500Y12099715D01*
X48217071Y11778286D02*
X48252785Y11849715D01*
X48252785Y12028286D01*
X48217071Y12099715D01*
X48145642Y12135429D01*
X48074214Y12135429D01*
X48002785Y12099715D01*
X47967071Y12028286D01*
X47967071Y11849715D01*
X47931357Y11778286D01*
X48252785Y11421143D02*
X47752785Y11421143D01*
X47895642Y11421143D02*
X47824214Y11385429D01*
X47788500Y11349715D01*
X47752785Y11278286D01*
X47752785Y11206858D01*
X48252785Y10956858D02*
X47502785Y10956858D01*
X47967071Y10885429D02*
X48252785Y10671143D01*
X47752785Y10671143D02*
X48038500Y10956858D01*
X47752785Y10028286D02*
X48252785Y10028286D01*
X47752785Y10349715D02*
X48145642Y10349715D01*
X48217071Y10314000D01*
X48252785Y10242572D01*
X48252785Y10135429D01*
X48217071Y10064000D01*
X48181357Y10028286D01*
X48217071Y9706858D02*
X48252785Y9635429D01*
X48252785Y9492572D01*
X48217071Y9421143D01*
X48145642Y9385429D01*
X48109928Y9385429D01*
X48038500Y9421143D01*
X48002785Y9492572D01*
X48002785Y9599715D01*
X47967071Y9671143D01*
X47895642Y9706858D01*
X47859928Y9706858D01*
X47788500Y9671143D01*
X47752785Y9599715D01*
X47752785Y9492572D01*
X47788500Y9421143D01*
X48252785Y8492572D02*
X47502785Y8492572D01*
X48252785Y8064000D02*
X47824214Y8385429D01*
X47502785Y8064000D02*
X47931357Y8492572D01*
X47752785Y7742572D02*
X48252785Y7742572D01*
X47824214Y7742572D02*
X47788500Y7706858D01*
X47752785Y7635429D01*
X47752785Y7528286D01*
X47788500Y7456858D01*
X47859928Y7421143D01*
X48252785Y7421143D01*
X47752785Y6742572D02*
X48252785Y6742572D01*
X47752785Y7064000D02*
X48145642Y7064000D01*
X48217071Y7028286D01*
X48252785Y6956858D01*
X48252785Y6849715D01*
X48217071Y6778286D01*
X48181357Y6742572D01*
X47752785Y6492572D02*
X47752785Y6206858D01*
X47502785Y6385429D02*
X48145642Y6385429D01*
X48217071Y6349715D01*
X48252785Y6278286D01*
X48252785Y6206858D01*
X48217071Y5992572D02*
X48252785Y5921143D01*
X48252785Y5778286D01*
X48217071Y5706858D01*
X48145642Y5671143D01*
X48109928Y5671143D01*
X48038500Y5706858D01*
X48002785Y5778286D01*
X48002785Y5885429D01*
X47967071Y5956858D01*
X47895642Y5992572D01*
X47859928Y5992572D01*
X47788500Y5956858D01*
X47752785Y5885429D01*
X47752785Y5778286D01*
X47788500Y5706858D01*
X48217071Y5385429D02*
X48252785Y5314000D01*
X48252785Y5171143D01*
X48217071Y5099715D01*
X48145642Y5064000D01*
X48109928Y5064000D01*
X48038500Y5099715D01*
X48002785Y5171143D01*
X48002785Y5278286D01*
X47967071Y5349715D01*
X47895642Y5385429D01*
X47859928Y5385429D01*
X47788500Y5349715D01*
X47752785Y5278286D01*
X47752785Y5171143D01*
X47788500Y5099715D01*
X48252785Y4635429D02*
X48217071Y4706858D01*
X48181357Y4742572D01*
X48109928Y4778286D01*
X47895642Y4778286D01*
X47824214Y4742572D01*
X47788500Y4706858D01*
X47752785Y4635429D01*
X47752785Y4528286D01*
X47788500Y4456858D01*
X47824214Y4421143D01*
X47895642Y4385429D01*
X48109928Y4385429D01*
X48181357Y4421143D01*
X48217071Y4456858D01*
X48252785Y4528286D01*
X48252785Y4635429D01*
X47752785Y4064000D02*
X48252785Y4064000D01*
X47824214Y4064000D02*
X47788500Y4028286D01*
X47752785Y3956858D01*
X47752785Y3849715D01*
X47788500Y3778286D01*
X47859928Y3742572D01*
X48252785Y3742572D01*
X49426357Y15956858D02*
X49462071Y15992572D01*
X49497785Y16099715D01*
X49497785Y16171143D01*
X49462071Y16278286D01*
X49390642Y16349715D01*
X49319214Y16385429D01*
X49176357Y16421143D01*
X49069214Y16421143D01*
X48926357Y16385429D01*
X48854928Y16349715D01*
X48783500Y16278286D01*
X48747785Y16171143D01*
X48747785Y16099715D01*
X48783500Y15992572D01*
X48819214Y15956858D01*
X49104928Y15635429D02*
X49104928Y15385429D01*
X49497785Y15278286D02*
X49497785Y15635429D01*
X48747785Y15635429D01*
X48747785Y15278286D01*
X49497785Y14528286D02*
X49140642Y14778286D01*
X49497785Y14956858D02*
X48747785Y14956858D01*
X48747785Y14671143D01*
X48783500Y14599715D01*
X48819214Y14564000D01*
X48890642Y14528286D01*
X48997785Y14528286D01*
X49069214Y14564000D01*
X49104928Y14599715D01*
X49140642Y14671143D01*
X49140642Y14956858D01*
X49497785Y14206858D02*
X48747785Y14206858D01*
X49497785Y13778286D01*
X48747785Y13778286D01*
X49212071Y13421143D02*
X49212071Y12849715D01*
X48747785Y12349715D02*
X48747785Y12206858D01*
X48783500Y12135429D01*
X48854928Y12064000D01*
X48997785Y12028286D01*
X49247785Y12028286D01*
X49390642Y12064000D01*
X49462071Y12135429D01*
X49497785Y12206858D01*
X49497785Y12349715D01*
X49462071Y12421143D01*
X49390642Y12492572D01*
X49247785Y12528286D01*
X48997785Y12528286D01*
X48854928Y12492572D01*
X48783500Y12421143D01*
X48747785Y12349715D01*
X49497785Y11706858D02*
X48747785Y11706858D01*
X49104928Y11706858D02*
X49104928Y11278286D01*
X49497785Y11278286D02*
X48747785Y11278286D01*
X49497785Y10564000D02*
X49497785Y10921143D01*
X48747785Y10921143D01*
X49212071Y10314000D02*
X49212071Y9742572D01*
X49462071Y9421143D02*
X49497785Y9314000D01*
X49497785Y9135429D01*
X49462071Y9064000D01*
X49426357Y9028286D01*
X49354928Y8992572D01*
X49283500Y8992572D01*
X49212071Y9028286D01*
X49176357Y9064000D01*
X49140642Y9135429D01*
X49104928Y9278286D01*
X49069214Y9349715D01*
X49033500Y9385429D01*
X48962071Y9421143D01*
X48890642Y9421143D01*
X48819214Y9385429D01*
X48783500Y9349715D01*
X48747785Y9278286D01*
X48747785Y9099715D01*
X48783500Y8992572D01*
X48997785Y8171143D02*
X49497785Y7992572D01*
X48997785Y7814000D01*
X48819214Y7564000D02*
X48783500Y7528286D01*
X48747785Y7456858D01*
X48747785Y7278286D01*
X48783500Y7206858D01*
X48819214Y7171143D01*
X48890642Y7135429D01*
X48962071Y7135429D01*
X49069214Y7171143D01*
X49497785Y7599715D01*
X49497785Y7135429D01*
X49212071Y6814000D02*
X49212071Y6242572D01*
X49497785Y6528286D02*
X48926357Y6528286D01*
X50242785Y16064000D02*
X50849928Y16064000D01*
X50921357Y16099715D01*
X50957071Y16135429D01*
X50992785Y16206858D01*
X50992785Y16314000D01*
X50957071Y16385429D01*
X50707071Y16064000D02*
X50742785Y16135429D01*
X50742785Y16278286D01*
X50707071Y16349715D01*
X50671357Y16385429D01*
X50599928Y16421143D01*
X50385642Y16421143D01*
X50314214Y16385429D01*
X50278500Y16349715D01*
X50242785Y16278286D01*
X50242785Y16135429D01*
X50278500Y16064000D01*
X50742785Y15706858D02*
X50242785Y15706858D01*
X49992785Y15706858D02*
X50028500Y15742572D01*
X50064214Y15706858D01*
X50028500Y15671143D01*
X49992785Y15706858D01*
X50064214Y15706858D01*
X50242785Y15456858D02*
X50242785Y15171143D01*
X49992785Y15349715D02*
X50635642Y15349715D01*
X50707071Y15314000D01*
X50742785Y15242572D01*
X50742785Y15171143D01*
X50742785Y14921143D02*
X49992785Y14921143D01*
X50742785Y14599715D02*
X50349928Y14599715D01*
X50278500Y14635429D01*
X50242785Y14706858D01*
X50242785Y14814000D01*
X50278500Y14885429D01*
X50314214Y14921143D01*
X50242785Y13921143D02*
X50742785Y13921143D01*
X50242785Y14242572D02*
X50635642Y14242572D01*
X50707071Y14206858D01*
X50742785Y14135429D01*
X50742785Y14028286D01*
X50707071Y13956858D01*
X50671357Y13921143D01*
X50742785Y13564000D02*
X49992785Y13564000D01*
X50278500Y13564000D02*
X50242785Y13492572D01*
X50242785Y13349715D01*
X50278500Y13278286D01*
X50314214Y13242572D01*
X50385642Y13206858D01*
X50599928Y13206858D01*
X50671357Y13242572D01*
X50707071Y13278286D01*
X50742785Y13349715D01*
X50742785Y13492572D01*
X50707071Y13564000D01*
X50671357Y12885429D02*
X50707071Y12849715D01*
X50742785Y12885429D01*
X50707071Y12921143D01*
X50671357Y12885429D01*
X50742785Y12885429D01*
X50707071Y12206858D02*
X50742785Y12278286D01*
X50742785Y12421143D01*
X50707071Y12492572D01*
X50671357Y12528286D01*
X50599928Y12564000D01*
X50385642Y12564000D01*
X50314214Y12528286D01*
X50278500Y12492572D01*
X50242785Y12421143D01*
X50242785Y12278286D01*
X50278500Y12206858D01*
X50742785Y11778286D02*
X50707071Y11849715D01*
X50671357Y11885429D01*
X50599928Y11921143D01*
X50385642Y11921143D01*
X50314214Y11885429D01*
X50278500Y11849715D01*
X50242785Y11778286D01*
X50242785Y11671143D01*
X50278500Y11599715D01*
X50314214Y11564000D01*
X50385642Y11528286D01*
X50599928Y11528286D01*
X50671357Y11564000D01*
X50707071Y11599715D01*
X50742785Y11671143D01*
X50742785Y11778286D01*
X50742785Y11206858D02*
X50242785Y11206858D01*
X50314214Y11206858D02*
X50278500Y11171143D01*
X50242785Y11099715D01*
X50242785Y10992572D01*
X50278500Y10921143D01*
X50349928Y10885429D01*
X50742785Y10885429D01*
X50349928Y10885429D02*
X50278500Y10849715D01*
X50242785Y10778286D01*
X50242785Y10671143D01*
X50278500Y10599715D01*
X50349928Y10564000D01*
X50742785Y10564000D01*
X49957071Y9671143D02*
X50921357Y10314000D01*
X49992785Y9528286D02*
X49992785Y9099715D01*
X50742785Y9314000D02*
X49992785Y9314000D01*
X50242785Y8921143D02*
X50742785Y8778286D01*
X50385642Y8635429D01*
X50742785Y8492572D01*
X50242785Y8349715D01*
X50707071Y7778286D02*
X50742785Y7849715D01*
X50742785Y7992572D01*
X50707071Y8064000D01*
X50635642Y8099715D01*
X50349928Y8099715D01*
X50278500Y8064000D01*
X50242785Y7992572D01*
X50242785Y7849715D01*
X50278500Y7778286D01*
X50349928Y7742572D01*
X50421357Y7742572D01*
X50492785Y8099715D01*
X50707071Y7135429D02*
X50742785Y7206858D01*
X50742785Y7349715D01*
X50707071Y7421143D01*
X50635642Y7456858D01*
X50349928Y7456858D01*
X50278500Y7421143D01*
X50242785Y7349715D01*
X50242785Y7206858D01*
X50278500Y7135429D01*
X50349928Y7099715D01*
X50421357Y7099715D01*
X50492785Y7456858D01*
X50242785Y6885429D02*
X50242785Y6599715D01*
X49992785Y6778286D02*
X50635642Y6778286D01*
X50707071Y6742572D01*
X50742785Y6671143D01*
X50742785Y6599715D01*
X50242785Y6421143D02*
X50742785Y6242572D01*
X50242785Y6064000D02*
X50742785Y6242572D01*
X50921357Y6314000D01*
X50957071Y6349715D01*
X50992785Y6421143D01*
X50742785Y5778286D02*
X49992785Y5778286D01*
X49992785Y5599715D01*
X50028500Y5492572D01*
X50099928Y5421143D01*
X50171357Y5385429D01*
X50314214Y5349715D01*
X50421357Y5349715D01*
X50564214Y5385429D01*
X50635642Y5421143D01*
X50707071Y5492572D01*
X50742785Y5599715D01*
X50742785Y5778286D01*
X50742785Y4706858D02*
X50349928Y4706858D01*
X50278500Y4742572D01*
X50242785Y4814000D01*
X50242785Y4956858D01*
X50278500Y5028286D01*
X50707071Y4706858D02*
X50742785Y4778286D01*
X50742785Y4956858D01*
X50707071Y5028286D01*
X50635642Y5064000D01*
X50564214Y5064000D01*
X50492785Y5028286D01*
X50457071Y4956858D01*
X50457071Y4778286D01*
X50421357Y4706858D01*
X50349928Y4099715D02*
X50385642Y3992572D01*
X50421357Y3956858D01*
X50492785Y3921143D01*
X50599928Y3921143D01*
X50671357Y3956858D01*
X50707071Y3992572D01*
X50742785Y4064000D01*
X50742785Y4349715D01*
X49992785Y4349715D01*
X49992785Y4099715D01*
X50028500Y4028286D01*
X50064214Y3992572D01*
X50135642Y3956858D01*
X50207071Y3956858D01*
X50278500Y3992572D01*
X50314214Y4028286D01*
X50349928Y4099715D01*
X50349928Y4349715D01*
X50742785Y3599715D02*
X50242785Y3599715D01*
X49992785Y3599715D02*
X50028500Y3635429D01*
X50064214Y3599715D01*
X50028500Y3564000D01*
X49992785Y3599715D01*
X50064214Y3599715D01*
X50742785Y3242572D02*
X50242785Y3242572D01*
X50385642Y3242572D02*
X50314214Y3206858D01*
X50278500Y3171143D01*
X50242785Y3099715D01*
X50242785Y3028286D01*
X50742785Y2456858D02*
X49992785Y2456858D01*
X50707071Y2456858D02*
X50742785Y2528286D01*
X50742785Y2671143D01*
X50707071Y2742572D01*
X50671357Y2778286D01*
X50599928Y2814000D01*
X50385642Y2814000D01*
X50314214Y2778286D01*
X50278500Y2742572D01*
X50242785Y2671143D01*
X50242785Y2528286D01*
X50278500Y2456858D01*
X49957071Y1564000D02*
X50921357Y2206858D01*
X34013733Y25280000D02*
X34356267Y25280000D01*
X34013733Y24260000D02*
X34356267Y24260000D01*
X31727733Y31122000D02*
X32070267Y31122000D01*
X31727733Y30102000D02*
X32070267Y30102000D01*
X20297733Y20454000D02*
X20640267Y20454000D01*
X20297733Y19434000D02*
X20640267Y19434000D01*
X28768267Y24387000D02*
X28425733Y24387000D01*
X28768267Y25407000D02*
X28425733Y25407000D01*
X19243267Y28451000D02*
X18900733Y28451000D01*
X19243267Y29471000D02*
X18900733Y29471000D01*
X10561000Y29805733D02*
X10561000Y30148267D01*
X11581000Y29805733D02*
X11581000Y30148267D01*
D11*
X38066357Y24095358D02*
X38113976Y24047739D01*
X38256833Y24000120D01*
X38352071Y24000120D01*
X38494928Y24047739D01*
X38590166Y24142977D01*
X38637785Y24238215D01*
X38685404Y24428691D01*
X38685404Y24571548D01*
X38637785Y24762024D01*
X38590166Y24857262D01*
X38494928Y24952500D01*
X38352071Y25000120D01*
X38256833Y25000120D01*
X38113976Y24952500D01*
X38066357Y24904881D01*
X37113976Y24000120D02*
X37685404Y24000120D01*
X37399690Y24000120D02*
X37399690Y25000120D01*
X37494928Y24857262D01*
X37590166Y24762024D01*
X37685404Y24714405D01*
X36494928Y25000120D02*
X36399690Y25000120D01*
X36304452Y24952500D01*
X36256833Y24904881D01*
X36209214Y24809643D01*
X36161595Y24619167D01*
X36161595Y24381072D01*
X36209214Y24190596D01*
X36256833Y24095358D01*
X36304452Y24047739D01*
X36399690Y24000120D01*
X36494928Y24000120D01*
X36590166Y24047739D01*
X36637785Y24095358D01*
X36685404Y24190596D01*
X36733023Y24381072D01*
X36733023Y24619167D01*
X36685404Y24809643D01*
X36637785Y24904881D01*
X36590166Y24952500D01*
X36494928Y25000120D01*
X32065666Y28824858D02*
X32113285Y28777239D01*
X32256142Y28729620D01*
X32351380Y28729620D01*
X32494238Y28777239D01*
X32589476Y28872477D01*
X32637095Y28967715D01*
X32684714Y29158191D01*
X32684714Y29301048D01*
X32637095Y29491524D01*
X32589476Y29586762D01*
X32494238Y29682000D01*
X32351380Y29729620D01*
X32256142Y29729620D01*
X32113285Y29682000D01*
X32065666Y29634381D01*
X31208523Y29729620D02*
X31399000Y29729620D01*
X31494238Y29682000D01*
X31541857Y29634381D01*
X31637095Y29491524D01*
X31684714Y29301048D01*
X31684714Y28920096D01*
X31637095Y28824858D01*
X31589476Y28777239D01*
X31494238Y28729620D01*
X31303761Y28729620D01*
X31208523Y28777239D01*
X31160904Y28824858D01*
X31113285Y28920096D01*
X31113285Y29158191D01*
X31160904Y29253429D01*
X31208523Y29301048D01*
X31303761Y29348667D01*
X31494238Y29348667D01*
X31589476Y29301048D01*
X31637095Y29253429D01*
X31684714Y29158191D01*
X20572166Y20952120D02*
X20905500Y21428310D01*
X21143595Y20952120D02*
X21143595Y21952120D01*
X20762642Y21952120D01*
X20667404Y21904500D01*
X20619785Y21856881D01*
X20572166Y21761643D01*
X20572166Y21618786D01*
X20619785Y21523548D01*
X20667404Y21475929D01*
X20762642Y21428310D01*
X21143595Y21428310D01*
X19715023Y21618786D02*
X19715023Y20952120D01*
X19953119Y21999739D02*
X20191214Y21285453D01*
X19572166Y21285453D01*
X28763666Y25969858D02*
X28811285Y25922239D01*
X28954142Y25874620D01*
X29049380Y25874620D01*
X29192238Y25922239D01*
X29287476Y26017477D01*
X29335095Y26112715D01*
X29382714Y26303191D01*
X29382714Y26446048D01*
X29335095Y26636524D01*
X29287476Y26731762D01*
X29192238Y26827000D01*
X29049380Y26874620D01*
X28954142Y26874620D01*
X28811285Y26827000D01*
X28763666Y26779381D01*
X28192238Y26446048D02*
X28287476Y26493667D01*
X28335095Y26541286D01*
X28382714Y26636524D01*
X28382714Y26684143D01*
X28335095Y26779381D01*
X28287476Y26827000D01*
X28192238Y26874620D01*
X28001761Y26874620D01*
X27906523Y26827000D01*
X27858904Y26779381D01*
X27811285Y26684143D01*
X27811285Y26636524D01*
X27858904Y26541286D01*
X27906523Y26493667D01*
X28001761Y26446048D01*
X28192238Y26446048D01*
X28287476Y26398429D01*
X28335095Y26350810D01*
X28382714Y26255572D01*
X28382714Y26065096D01*
X28335095Y25969858D01*
X28287476Y25922239D01*
X28192238Y25874620D01*
X28001761Y25874620D01*
X27906523Y25922239D01*
X27858904Y25969858D01*
X27811285Y26065096D01*
X27811285Y26255572D01*
X27858904Y26350810D01*
X27906523Y26398429D01*
X28001761Y26446048D01*
X19238666Y29938620D02*
X19572000Y30414810D01*
X19810095Y29938620D02*
X19810095Y30938620D01*
X19429142Y30938620D01*
X19333904Y30891000D01*
X19286285Y30843381D01*
X19238666Y30748143D01*
X19238666Y30605286D01*
X19286285Y30510048D01*
X19333904Y30462429D01*
X19429142Y30414810D01*
X19810095Y30414810D01*
X18762476Y29938620D02*
X18572000Y29938620D01*
X18476761Y29986239D01*
X18429142Y30033858D01*
X18333904Y30176715D01*
X18286285Y30367191D01*
X18286285Y30748143D01*
X18333904Y30843381D01*
X18381523Y30891000D01*
X18476761Y30938620D01*
X18667238Y30938620D01*
X18762476Y30891000D01*
X18810095Y30843381D01*
X18857714Y30748143D01*
X18857714Y30510048D01*
X18810095Y30414810D01*
X18762476Y30367191D01*
X18667238Y30319572D01*
X18476761Y30319572D01*
X18381523Y30367191D01*
X18333904Y30414810D01*
X18286285Y30510048D01*
X9904142Y30143667D02*
X9951761Y30191286D01*
X9999380Y30334143D01*
X9999380Y30429381D01*
X9951761Y30572239D01*
X9856523Y30667477D01*
X9761285Y30715096D01*
X9570809Y30762715D01*
X9427952Y30762715D01*
X9237476Y30715096D01*
X9142238Y30667477D01*
X9047000Y30572239D01*
X8999380Y30429381D01*
X8999380Y30334143D01*
X9047000Y30191286D01*
X9094619Y30143667D01*
X9999380Y29667477D02*
X9999380Y29477000D01*
X9951761Y29381762D01*
X9904142Y29334143D01*
X9761285Y29238905D01*
X9570809Y29191286D01*
X9189857Y29191286D01*
X9094619Y29238905D01*
X9047000Y29286524D01*
X8999380Y29381762D01*
X8999380Y29572239D01*
X9047000Y29667477D01*
X9094619Y29715096D01*
X9189857Y29762715D01*
X9427952Y29762715D01*
X9523190Y29715096D01*
X9570809Y29667477D01*
X9618428Y29572239D01*
X9618428Y29381762D01*
X9570809Y29286524D01*
X9523190Y29238905D01*
X9427952Y29191286D01*
M02*
